SplineFontDB: 3.0
FontName: Boon-300i
FullName: Boon 300 Oblique
FamilyName: Boon
Weight: 300
Copyright: Copyright 2013-2015, Sungsit Sawaiwan (https://fontuni.com | uni@fontuni.com). This Font Software is licensed under the SIL Open Font License, Version 1.1 (http://scripts.sil.org/OFL).
Version: 1.0-beta1
ItalicAngle: -12
UnderlinePosition: -120
UnderlineWidth: 60
Ascent: 960
Descent: 240
InvalidEm: 0
UFOAscent: 960
UFODescent: -240
LayerCount: 2
Layer: 0 0 "Back" 1
Layer: 1 0 "Fore" 0
StyleMap: 0x0000
FSType: 0
OS2Version: 0
OS2_WeightWidthSlopeOnly: 0
OS2_UseTypoMetrics: 0
CreationTime: 1369324892
ModificationTime: 1444829225
PfmFamily: 33
TTFWeight: 300
TTFWidth: 5
LineGap: 90
VLineGap: 0
Panose: 2 0 2 3 0 0 0 0 0 0
OS2TypoAscent: 960
OS2TypoAOffset: 0
OS2TypoDescent: -240
OS2TypoDOffset: 0
OS2TypoLinegap: 90
OS2WinAscent: 1320
OS2WinAOffset: 0
OS2WinDescent: 480
OS2WinDOffset: 0
HheadAscent: 1320
HheadAOffset: 0
HheadDescent: -480
HheadDOffset: 0
OS2SubXSize: 780
OS2SubYSize: 840
OS2SubXOff: 0
OS2SubYOff: 180
OS2SupXSize: 780
OS2SupYSize: 840
OS2SupXOff: 0
OS2SupYOff: 600
OS2StrikeYSize: 60
OS2StrikeYPos: 300
OS2CapHeight: 780
OS2XHeight: 600
OS2Vendor: 'FUni'
OS2CodePages: 00010000.00000000
OS2UnicodeRanges: 81000003.1000200a.00000000.00000000
Lookup: 1 0 0 "ThaiRC.rd" { "ThaiRC.rd subtable"  } ['ss01' ('thai' <'dflt' > ) 'salt' ('thai' <'dflt' > ) 'ccmp' ('thai' <'PAL ' 'SAN ' > ) 'locl' ('thai' <'PAL ' 'SAN ' > ) ]
Lookup: 6 0 0 "ThaiContextRC.rd" { "ThaiContextRC.rd subtable"  } ['ccmp' ('thai' <'dflt' > ) ]
Lookup: 2 0 0 "ThaiDecomp" { "ThaiDecomp subtable"  } ['ccmp' ('thai' <'dflt' > ) ]
Lookup: 1 0 0 "ThaiT.0E4D" { "ThaiT.0E4D subtable"  } []
Lookup: 1 0 0 "Thai0E4D.0E48" { "Thai0E4D.0E48 subtable"  } []
Lookup: 1 0 0 "Thai0E4D.0E49" { "Thai0E4D.0E49 subtable"  } []
Lookup: 1 0 0 "Thai0E4D.0E4A" { "Thai0E4D.0E4A subtable"  } []
Lookup: 1 0 0 "Thai0E4D.0E4B" { "Thai0E4D.0E4B subtable"  } []

StartChar: .notdef
Encoding: 1114112 -1 0
GlifName: _notdef
Width: 660
VWidth: 0
Flags: HMW
LayerCount: 2
Fore
SplineSet
50 0 m 1
 178 600 l 1
 398 600 l 1
 618 600 l 1
 490 0 l 1
 270 0 l 1
 50 0 l 1
281 52 m 1
 438 52 l 1
 543 548 l 1
 386 548 l 1
 229 548 l 1
 124 52 l 1
 281 52 l 1
EndSplineSet
PickledDataWithLists: "(dp0
Vcom.fontlab.hintData
p1
(dp2
Vvhints
p3
(lp4
(dp5
Vposition
p6
L160L
sVwidth
p7
L10L
sa(dp8
g6
L190L
sg7
L10L
sa(dp9
g6
L520L
sg7
L10L
sa(dp10
g6
L550L
sg7
L10L
sasVhhints
p11
(lp12
(dp13
g6
L0L
sg7
L10L
sa(dp14
g6
L30L
sg7
L10L
sa(dp15
g6
L560L
sg7
L10L
sa(dp16
g6
L590L
sg7
L10L
sass."
EndChar

StartChar: exclam
Encoding: 33 33 5
GlifName: exclam
Width: 330
VWidth: 0
Flags: HMW
LayerCount: 2
Fore
SplineSet
131 120 m 0
 163 120 185 102 185 73 c 0
 185 69 184 64 183 59 c 0
 175 22 142 -2 105 -2 c 0
 73 -2 51 16 51 45 c 0
 51 49 52 54 53 59 c 0
 61 96 94 120 131 120 c 0
235 810 m 1
 319 810 l 1
 186 270 l 1
 138 270 l 1
 235 810 l 1
EndSplineSet
PickledDataWithLists: "(dp0
Vcom.fontlab.hintData
p1
(dp2
Vvhints
p3
(lp4
(dp5
Vposition
p6
L81L
sVwidth
p7
L10L
sa(dp8
g6
L101L
sg7
L10L
sa(dp9
g6
L125L
sg7
L10L
sa(dp10
g6
L195L
sg7
L10L
sa(dp11
g6
L210L
sg7
L10L
sa(dp12
g6
L239L
sg7
L10L
sasVhhints
p13
(lp14
(dp15
g6
L-5L
sg7
L10L
sa(dp16
g6
L122L
sg7
L10L
sa(dp17
g6
L268L
sg7
L10L
sa(dp18
g6
L826L
sg7
L10L
sass."
EndChar

StartChar: quotedbl
Encoding: 34 34 6
GlifName: quotedbl
Width: 540
VWidth: 0
Flags: HMW
LayerCount: 2
Fore
SplineSet
257 900 m 1
 325 900 l 1
 237 540 l 1
 192 540 l 1
 257 900 l 1
477 900 m 1
 545 900 l 1
 457 540 l 1
 412 540 l 1
 477 900 l 1
EndSplineSet
PickledDataWithLists: "(dp0
Vcom.fontlab.hintData
p1
(dp2
Vvhints
p3
(lp4
(dp5
Vposition
p6
L107L
sVwidth
p7
L10L
sa(dp8
g6
L196L
sg7
L10L
sa(dp9
g6
L304L
sg7
L10L
sa(dp10
g6
L313L
sg7
L10L
sa(dp11
g6
L393L
sg7
L10L
sasVhhints
p12
(lp13
(dp14
g6
L548L
sg7
L10L
sa(dp15
g6
L553L
sg7
L10L
sa(dp16
g6
L829L
sg7
L10L
sass."
EndChar

StartChar: numbersign
Encoding: 35 35 7
GlifName: numbersign
Width: 810
VWidth: 0
Flags: HMW
LayerCount: 2
Fore
SplineSet
57 221 m 1
 67 269 l 1
 194 269 l 1
 312 511 l 1
 179 511 l 1
 189 559 l 1
 335 559 l 1
 441 780 l 1
 498 780 l 1
 391 559 l 1
 627 559 l 1
 734 780 l 1
 791 780 l 1
 685 559 l 1
 799 559 l 1
 789 511 l 1
 662 511 l 1
 544 269 l 1
 677 269 l 1
 667 221 l 1
 521 221 l 1
 415 0 l 1
 358 0 l 1
 465 221 l 1
 228 221 l 1
 122 0 l 1
 65 0 l 1
 171 221 l 1
 57 221 l 1
369 511 m 1
 251 269 l 1
 487 269 l 1
 605 511 l 1
 369 511 l 1
EndSplineSet
PickledDataWithLists: "(dp0
Vcom.fontlab.hintData
p1
(dp2
Vvhints
p3
(lp4
(dp5
Vposition
p6
L111L
sVwidth
p7
L10L
sa(dp8
g6
L329L
sg7
L10L
sa(dp9
g6
L381L
sg7
L10L
sa(dp10
g6
L599L
sg7
L10L
sa(dp11
g6
L649L
sg7
L10L
sa(dp12
g6
L689L
sg7
L10L
sasVhhints
p13
(lp14
(dp15
g6
L-29L
sg7
L10L
sa(dp16
g6
L-19L
sg7
L10L
sa(dp17
g6
L241L
sg7
L7L
sa(dp18
g6
L284L
sg7
L10L
sa(dp19
g6
L521L
sg7
L7L
sa(dp20
g6
L564L
sg7
L10L
sa(dp21
g6
L819L
sg7
L10L
sa(dp22
g6
L829L
sg7
L10L
sass."
EndChar

StartChar: dollar
Encoding: 36 36 8
GlifName: dollar
Width: 660
VWidth: 0
Flags: HMW
LayerCount: 2
Fore
SplineSet
53 178 m 1
 123 183 l 1
 123 180 123 178 123 175 c 0
 123 114 164 49 258 40 c 1
 329 376 l 1
 303 387 278 398 257 407 c 0
 208 429 155 473 155 550 c 0
 155 562 156 575 159 589 c 0
 182 698 279 783 417 791 c 1
 440 900 l 1
 492 900 l 1
 469 791 l 1
 594 779 637 685 637 617 c 0
 637 613 637 610 637 606 c 1
 567 601 l 1
 567 604 567 608 567 611 c 0
 567 669 533 727 458 739 c 1
 390 420 l 1
 418 409 444 398 466 391 c 0
 520 372 572 327 572 244 c 0
 572 229 571 213 567 196 c 0
 544 87 448 -1 299 -11 c 1
 275 -120 l 1
 223 -120 l 1
 247 -11 l 1
 101 -2 53 95 53 167 c 0
 53 171 53 175 53 178 c 1
343 440 m 1
 406 740 l 1
 318 732 246 679 227 589 c 0
 225 579 224 570 224 562 c 0
 224 503 269 472 307 455 c 0
 318 450 330 445 343 440 c 1
377 356 m 1
 310 40 l 1
 411 49 479 106 498 196 c 0
 501 209 502 220 502 231 c 0
 502 297 456 327 422 339 c 0
 408 344 394 350 377 356 c 1
EndSplineSet
PickledDataWithLists: "(dp0
Vcom.fontlab.hintData
p1
(dp2
Vvhints
p3
(lp4
(dp5
Vposition
p6
L70L
sVwidth
p7
L10L
sa(dp8
g6
L78L
sg7
L10L
sa(dp9
g6
L169L
sg7
L10L
sa(dp10
g6
L319L
sg7
L10L
sa(dp11
g6
L323L
sg7
L10L
sa(dp12
g6
L382L
sg7
L10L
sa(dp13
g6
L392L
sg7
L10L
sa(dp14
g6
L504L
sg7
L10L
sa(dp15
g6
L565L
sg7
L10L
sa(dp16
g6
L604L
sg7
L10L
sa(dp17
g6
L664L
sg7
L10L
sasVhhints
p18
(lp19
(dp20
g6
L-127L
sg7
L10L
sa(dp21
g6
L46L
sg7
L10L
sa(dp22
g6
L192L
sg7
L10L
sa(dp23
g6
L584L
sg7
L10L
sa(dp24
g6
L812L
sg7
L10L
sa(dp25
g6
L916L
sg7
L10L
sass."
EndChar

StartChar: percent
Encoding: 37 37 9
GlifName: percent
Width: 780
VWidth: 0
Flags: HMW
LayerCount: 2
Fore
SplineSet
30 0 m 1
 31 4 l 1
 748 780 l 1
 796 780 l 1
 795 776 l 1
 78 0 l 1
 30 0 l 1
97 577 m 2
 100 593 l 2
 119 683 167 789 273 789 c 128
 348 789 371 735 371 672 c 0
 371 646 367 619 362 593 c 2
 359 577 l 2
 340 487 292 381 186 381 c 128
 111 381 88 435 88 498 c 0
 88 524 92 551 97 577 c 2
193 416 m 128
 247 416 292 479 313 577 c 2
 316 593 l 2
 322 620 325 644 325 665 c 0
 325 721 304 754 265 754 c 128
 211 754 167 691 146 593 c 2
 143 577 l 2
 137 550 134 525 134 504 c 0
 134 449 154 416 193 416 c 128
464 187 m 2
 467 203 l 2
 486 293 534 399 640 399 c 128
 715 399 738 345 738 282 c 0
 738 256 734 229 729 203 c 2
 726 187 l 2
 707 97 659 -9 553 -9 c 128
 478 -9 455 45 455 108 c 0
 455 134 459 161 464 187 c 2
561 26 m 128
 615 26 659 89 680 187 c 2
 683 203 l 2
 689 230 692 254 692 275 c 0
 692 331 671 364 632 364 c 128
 578 364 534 301 513 203 c 2
 510 187 l 2
 504 160 501 136 501 115 c 0
 501 59 522 26 561 26 c 128
EndSplineSet
PickledDataWithLists: "(dp0
Vcom.fontlab.hintData
p1
(dp2
Vvhints
p3
(lp4
(dp5
Vposition
p6
L50L
sVwidth
p7
L10L
sa(dp8
g6
L70L
sg7
L10L
sa(dp9
g6
L120L
sg7
L10L
sa(dp10
g6
L246L
sg7
L10L
sa(dp11
g6
L290L
sg7
L10L
sa(dp12
g6
L320L
sg7
L10L
sa(dp13
g6
L360L
sg7
L10L
sa(dp14
g6
L410L
sg7
L10L
sa(dp15
g6
L480L
sg7
L10L
sa(dp16
g6
L606L
sg7
L10L
sa(dp17
g6
L650L
sg7
L10L
sa(dp18
g6
L680L
sg7
L10L
sa(dp19
g6
L699L
sg7
L10L
sa(dp20
g6
L720L
sg7
L10L
sasVhhints
p21
(lp22
(dp23
g6
L-14L
sg7
L10L
sa(dp24
g6
L6L
sg7
L10L
sa(dp25
g6
L34L
sg7
L10L
sa(dp26
g6
L369L
sg7
L10L
sa(dp27
g6
L374L
sg7
L10L
sa(dp28
g6
L416L
sg7
L10L
sa(dp29
g6
L422L
sg7
L10L
sa(dp30
g6
L757L
sg7
L10L
sa(dp31
g6
L784L
sg7
L10L
sa(dp32
g6
L804L
sg7
L10L
sass."
EndChar

StartChar: ampersand
Encoding: 38 38 10
GlifName: ampersand
Width: 810
VWidth: 0
Flags: HMW
LayerCount: 2
Fore
SplineSet
608 145 m 1
 668 66 716 4 716 4 c 2
 715 0 l 1
 635 0 l 1
 635 0 604 42 560 100 c 1
 477 30 373 -17 253 -17 c 0
 116 -17 50 44 50 126 c 0
 50 137 51 149 54 161 c 0
 79 280 214 361 323 424 c 1
 294 472 272 531 272 588 c 0
 272 602 273 615 276 628 c 0
 298 732 377 796 476 797 c 0
 567 797 604 747 604 688 c 0
 604 678 603 667 601 656 c 0
 579 552 503 481 402 419 c 1
 447 358 516 266 578 184 c 1
 632 247 673 324 698 400 c 1
 756 391 l 1
 728 306 678 218 608 145 c 1
532 137 m 1
 471 219 397 319 348 387 c 1
 239 322 141 250 122 161 c 0
 120 152 119 142 119 134 c 0
 119 73 169 36 265 36 c 0
 373 36 462 76 532 137 c 1
466 750 m 0
 394 750 352 693 338 627 c 0
 336 616 335 604 335 593 c 0
 335 547 351 497 377 455 c 1
 464 510 524 574 541 656 c 0
 543 665 544 673 544 681 c 0
 544 722 518 750 466 750 c 0
EndSplineSet
PickledDataWithLists: "(dp0
Vcom.fontlab.hintData
p1
(dp2
Vvhints
p3
(lp4
(dp5
Vposition
p6
L66L
sVwidth
p7
L10L
sa(dp8
g6
L164L
sg7
L10L
sa(dp9
g6
L202L
sg7
L10L
sa(dp10
g6
L296L
sg7
L10L
sa(dp11
g6
L450L
sg7
L10L
sa(dp12
g6
L538L
sg7
L10L
sa(dp13
g6
L695L
sg7
L10L
sa(dp14
g6
L749L
sg7
L10L
sasVhhints
p15
(lp16
(dp17
g6
L-25L
sg7
L10L
sa(dp18
g6
L39L
sg7
L10L
sa(dp19
g6
L389L
sg7
L10L
sa(dp20
g6
L734L
sg7
L10L
sa(dp21
g6
L796L
sg7
L10L
sass."
EndChar

StartChar: quotesingle
Encoding: 39 39 11
GlifName: quotesingle
Width: 330
VWidth: 0
Flags: HMW
LayerCount: 2
Fore
SplineSet
262 900 m 1
 330 900 l 1
 242 540 l 1
 197 540 l 1
 262 900 l 1
EndSplineSet
PickledDataWithLists: "(dp0
Vcom.fontlab.hintData
p1
(dp2
Vvhints
p3
(lp4
(dp5
Vposition
p6
L110L
sVwidth
p7
L10L
sa(dp8
g6
L209L
sg7
L10L
sasVhhints
p9
(lp10
(dp11
g6
L544L
sg7
L10L
sa(dp12
g6
L832L
sg7
L10L
sass."
EndChar

StartChar: parenleft
Encoding: 40 40 12
GlifName: parenleft
Width: 390
VWidth: 0
Flags: HMW
LayerCount: 2
Fore
SplineSet
103 390 m 0
 150 611 255 783 393 907 c 1
 433 890 l 1
 303 772 211 600 166 390 c 0
 150 316 142 248 142 184 c 0
 142 66 169 -33 221 -110 c 1
 173 -127 l 1
 114 -42 81 65 81 195 c 0
 81 255 88 320 103 390 c 0
EndSplineSet
PickledDataWithLists: "(dp0
Vcom.fontlab.hintData
p1
(dp2
Vvhints
p3
(lp4
(dp5
Vposition
p6
L55L
sVwidth
p7
L10L
sa(dp8
g6
L135L
sg7
L10L
sa(dp9
g6
L270L
sg7
L10L
sasVhhints
p10
(lp11
(dp12
g6
L-112L
sg7
L10L
sa(dp13
g6
L882L
sg7
L10L
sass."
Substitution2: "Latin.subs subtable" parenleft.subs
Substitution2: "Latin.subs subtable" parenleft.subs
Substitution2: "Latin.sups subtable" parenleft.sups
Substitution2: "Latin.sups subtable" parenleft.sups
EndChar

StartChar: parenright
Encoding: 41 41 13
GlifName: parenright
Width: 390
VWidth: 0
Flags: HMW
LayerCount: 2
Fore
SplineSet
333 390 m 128
 286 169 181 -3 43 -127 c 1
 3 -110 l 1
 133 8 225 180 270 390 c 128
 286 464 294 532 294 596 c 0
 294 714 267 813 215 890 c 1
 263 907 l 1
 322 822 355 715 355 585 c 0
 355 525 348 460 333 390 c 128
EndSplineSet
PickledDataWithLists: "(dp0
Vcom.fontlab.hintData
p1
(dp2
Vvhints
p3
(lp4
(dp5
Vposition
p6
L79L
sVwidth
p7
L10L
sa(dp8
g6
L215L
sg7
L10L
sa(dp9
g6
L295L
sg7
L10L
sasVhhints
p10
(lp11
(dp12
g6
L-112L
sg7
L10L
sa(dp13
g6
L882L
sg7
L10L
sass."
Substitution2: "Latin.subs subtable" parenright.subs
Substitution2: "Latin.subs subtable" parenright.subs
Substitution2: "Latin.sups subtable" parenright.sups
Substitution2: "Latin.sups subtable" parenright.sups
EndChar

StartChar: asterisk
Encoding: 42 42 14
GlifName: asterisk
Width: 570
VWidth: 0
Flags: HMW
LayerCount: 2
Fore
SplineSet
149 713 m 1
 180 770 l 1
 355 695 l 1
 386 900 l 1
 446 900 l 1
 391 695 l 1
 599 770 l 1
 605 713 l 1
 395 660 l 1
 492 502 l 1
 436 466 l 1
 361 639 l 1
 213 466 l 1
 172 502 l 1
 336 660 l 1
 149 713 l 1
EndSplineSet
PickledDataWithLists: "(dp0
Vcom.fontlab.hintData
p1
(dp2
Vvhints
p3
(lp4
(dp5
Vposition
p6
L84L
sVwidth
p7
L10L
sa(dp8
g6
L89L
sg7
L10L
sa(dp9
g6
L256L
sg7
L10L
sa(dp10
g6
L265L
sg7
L10L
sa(dp11
g6
L272L
sg7
L10L
sa(dp12
g6
L326L
sg7
L10L
sa(dp13
g6
L335L
sg7
L10L
sa(dp14
g6
L501L
sg7
L10L
sa(dp15
g6
L506L
sg7
L10L
sasVhhints
p16
(lp17
(dp18
g6
L392L
sg7
L10L
sa(dp19
g6
L488L
sg7
L10L
sa(dp20
g6
L495L
sg7
L10L
sa(dp21
g6
L735L
sg7
L10L
sa(dp22
g6
L742L
sg7
L10L
sa(dp23
g6
L839L
sg7
L10L
sass."
EndChar

StartChar: plus
Encoding: 43 43 15
GlifName: plus
Width: 600
VWidth: 0
Flags: HMW
LayerCount: 2
Fore
SplineSet
116 336 m 1
 127 384 l 1
 291 384 l 1
 326 550 l 1
 389 550 l 1
 354 384 l 1
 517 384 l 1
 506 336 l 1
 343 336 l 1
 308 170 l 1
 245 170 l 1
 280 336 l 1
 116 336 l 1
EndSplineSet
PickledDataWithLists: "(dp0
Vcom.fontlab.hintData
p1
(dp2
Vvhints
p3
(lp4
(dp5
Vposition
p6
L80L
sVwidth
p7
L10L
sa(dp8
g6
L250L
sg7
L10L
sa(dp9
g6
L259L
sg7
L10L
sa(dp10
g6
L340L
sg7
L10L
sa(dp11
g6
L510L
sg7
L10L
sasVhhints
p12
(lp13
(dp14
g6
L145L
sg7
L10L
sa(dp15
g6
L302L
sg7
L10L
sa(dp16
g6
L362L
sg7
L10L
sa(dp17
g6
L370L
sg7
L10L
sa(dp18
g6
L525L
sg7
L10L
sass."
EndChar

StartChar: comma
Encoding: 44 44 16
GlifName: comma
Width: 330
VWidth: 0
Flags: HMW
LayerCount: 2
Fore
SplineSet
52 57 m 0
 60 94 92 121 131 121 c 0
 175 121 193 92 193 53 c 0
 193 42 192 31 189 19 c 0
 168 -78 92 -147 22 -190 c 1
 6 -160 l 1
 64 -124 118 -70 138 6 c 1
 127 1 115 -2 103 -2 c 0
 72 -2 50 15 50 43 c 0
 50 47 51 52 52 57 c 0
EndSplineSet
PickledDataWithLists: "(dp0
Vcom.fontlab.hintData
p1
(dp2
Vvhints
p3
(lp4
(dp5
Vposition
p6
L61L
sVwidth
p7
L10L
sa(dp8
g6
L170L
sg7
L10L
sa(dp9
g6
L251L
sg7
L10L
sasVhhints
p10
(lp11
(dp12
g6
L-182L
sg7
L10L
sa(dp13
g6
L48L
sg7
L10L
sa(dp14
g6
L117L
sg7
L10L
sass."
EndChar

StartChar: hyphen
Encoding: 45 45 17
GlifName: hyphen
Width: 600
VWidth: 0
Flags: HMW
LayerCount: 2
Fore
SplineSet
127 386 m 1
 517 386 l 1
 506 334 l 1
 116 334 l 1
 127 386 l 1
EndSplineSet
PickledDataWithLists: "(dp0
Vcom.fontlab.hintData
p1
(dp2
Vvhints
p3
(lp4
(dp5
Vposition
p6
L75L
sVwidth
p7
L10L
sa(dp8
g6
L514L
sg7
L10L
sasVhhints
p9
(lp10
(dp11
g6
L301L
sg7
L10L
sa(dp12
g6
L363L
sg7
L10L
sa(dp13
g6
L371L
sg7
L10L
sass."
EndChar

StartChar: period
Encoding: 46 46 18
GlifName: period
Width: 330
VWidth: 0
Flags: HMW
LayerCount: 2
Fore
SplineSet
131 120 m 0
 163 120 185 102 185 73 c 0
 185 69 184 64 183 59 c 0
 175 22 142 -2 105 -2 c 0
 73 -2 51 16 51 45 c 0
 51 49 52 54 53 59 c 0
 61 96 94 120 131 120 c 0
EndSplineSet
PickledDataWithLists: "(dp0
Vcom.fontlab.hintData
p1
(dp2
Vvhints
p3
(lp4
(dp5
Vposition
p6
L81L
sVwidth
p7
L10L
sa(dp8
g6
L239L
sg7
L10L
sasVhhints
p9
(lp10
(dp11
g6
L-5L
sg7
L10L
sa(dp12
g6
L122L
sg7
L10L
sass."
EndChar

StartChar: slash
Encoding: 47 47 19
GlifName: slash
Width: 510
VWidth: 0
Flags: HMW
LayerCount: 2
Fore
SplineSet
0 0 m 1
 1 4 l 1
 495 780 l 1
 556 780 l 1
 555 776 l 1
 60 0 l 1
 0 0 l 1
EndSplineSet
PickledDataWithLists: "(dp0
Vcom.fontlab.hintData
p1
(dp2
Vvhints
p3
(lp4
(dp5
Vposition
p6
L41L
sVwidth
p7
L10L
sa(dp8
g6
L429L
sg7
L10L
sasVhhints
p9
(lp10
(dp11
g6
L-29L
sg7
L10L
sa(dp12
g6
L818L
sg7
L10L
sass."
Substitution2: "LatinSlash.frac subtable" fraction
EndChar

StartChar: zero
Encoding: 48 48 20
GlifName: zero
Width: 660
VWidth: 0
Flags: HMW
LayerCount: 2
Fore
SplineSet
94 376 m 2
 100 404 l 2
 140 592 236 797 438 797 c 0
 582 797 629 693 629 564 c 0
 629 513 621 458 610 404 c 2
 604 376 l 2
 564 188 467 -17 265 -17 c 0
 121 -17 75 87 75 215 c 0
 75 267 83 322 94 376 c 2
277 36 m 0
 402 36 492 177 534 376 c 2
 540 404 l 2
 552 460 558 510 558 555 c 0
 558 670 517 744 427 744 c 0
 302 744 212 603 170 404 c 2
 164 376 l 2
 152 320 146 270 146 225 c 0
 146 110 187 36 277 36 c 0
EndSplineSet
PickledDataWithLists: "(dp0
Vcom.fontlab.hintData
p1
(dp2
Vvhints
p3
(lp4
(dp5
Vposition
p6
L66L
sVwidth
p7
L10L
sa(dp8
g6
L164L
sg7
L10L
sa(dp9
g6
L456L
sg7
L10L
sa(dp10
g6
L546L
sg7
L10L
sa(dp11
g6
L564L
sg7
L10L
sa(dp12
g6
L644L
sg7
L10L
sasVhhints
p13
(lp14
(dp15
g6
L-24L
sg7
L10L
sa(dp16
g6
L46L
sg7
L10L
sa(dp17
g6
L742L
sg7
L10L
sa(dp18
g6
L811L
sg7
L10L
sass."
Substitution2: "Latin.dnom subtable" zero.dnom
Substitution2: "Latin.numr subtable" zero.numr
Substitution2: "Latin.subs subtable" zero.subs
Substitution2: "Latin.sups subtable" zero.sups
Substitution2: "Latin.pnum subtable" zero.pnum
EndChar

StartChar: one
Encoding: 49 49 21
GlifName: one
Width: 570
VWidth: 0
Flags: HMW
LayerCount: 2
Fore
SplineSet
184 630 m 1
 477 786 l 1
 525 781 l 1
 371 56 l 1
 527 56 l 1
 515 0 l 1
 90 0 l 1
 102 56 l 1
 302 56 l 1
 440 706 l 1
 203 579 l 1
 184 630 l 1
EndSplineSet
PickledDataWithLists: "(dp0
Vcom.fontlab.hintData
p1
(dp2
Vvhints
p3
(lp4
(dp5
Vposition
p6
L126L
sVwidth
p7
L10L
sa(dp8
g6
L364L
sg7
L10L
sa(dp9
g6
L371L
sg7
L10L
sa(dp10
g6
L462L
sg7
L10L
sa(dp11
g6
L469L
sg7
L10L
sa(dp12
g6
L677L
sg7
L10L
sasVhhints
p13
(lp14
(dp15
g6
L-19L
sg7
L10L
sa(dp16
g6
L-9L
sg7
L10L
sa(dp17
g6
L49L
sg7
L10L
sa(dp18
g6
L57L
sg7
L10L
sa(dp19
g6
L591L
sg7
L10L
sa(dp20
g6
L802L
sg7
L10L
sass."
Substitution2: "Latin.dnom subtable" one.dnom
Substitution2: "Latin.numr subtable" one.numr
Substitution2: "Latin.subs subtable" one.subs
Substitution2: "Latin.sups subtable" one.sups
Substitution2: "Latin.pnum subtable" one.pnum
EndChar

StartChar: two
Encoding: 50 50 22
GlifName: two
Width: 660
VWidth: 0
Flags: HMW
LayerCount: 2
Fore
SplineSet
31 27 m 0
 68 203 232 302 358 377 c 0
 449 431 542 487 562 583 c 0
 565 595 566 609 566 623 c 0
 566 681 538 744 428 744 c 0
 332 744 260 671 235 610 c 1
 165 617 l 1
 193 688 288 797 438 797 c 0
 600 797 635 701 635 629 c 0
 635 612 633 596 630 583 c 0
 604 460 481 385 392 332 c 0
 274 262 151 186 113 55 c 1
 527 55 l 1
 515 0 l 1
 28 0 l 1
 28 0 28 11 31 27 c 0
EndSplineSet
PickledDataWithLists: "(dp0
Vcom.fontlab.hintData
p1
(dp2
Vvhints
p3
(lp4
(dp5
Vposition
p6
L71L
sVwidth
p7
L10L
sa(dp8
g6
L81L
sg7
L10L
sa(dp9
g6
L501L
sg7
L10L
sa(dp10
g6
L599L
sg7
L10L
sa(dp11
g6
L639L
sg7
L10L
sasVhhints
p12
(lp13
(dp14
g6
L-13L
sg7
L10L
sa(dp15
g6
L61L
sg7
L10L
sa(dp16
g6
L74L
sg7
L10L
sa(dp17
g6
L620L
sg7
L10L
sa(dp18
g6
L740L
sg7
L10L
sa(dp19
g6
L809L
sg7
L10L
sass."
Substitution2: "Latin.dnom subtable" two.dnom
Substitution2: "Latin.numr subtable" two.numr
Substitution2: "Latin.subs subtable" two.subs
Substitution2: "Latin.sups subtable" two.sups
Substitution2: "Latin.pnum subtable" two.pnum
EndChar

StartChar: three
Encoding: 51 51 23
GlifName: three
Width: 660
VWidth: 0
Flags: HMW
LayerCount: 2
Fore
SplineSet
22 126 m 1
 93 139 l 1
 99 104 124 35 250 35 c 0
 414 35 470 141 485 210 c 0
 487 221 489 234 489 246 c 0
 489 305 455 369 332 369 c 2
 237 369 l 1
 248 421 l 1
 334 421 l 2
 410 421 512 478 534 583 c 0
 537 596 538 610 538 624 c 0
 538 681 511 744 401 744 c 0
 305 744 232 671 207 610 c 1
 137 617 l 1
 165 688 260 797 410 797 c 0
 572 797 607 701 607 629 c 0
 607 612 605 596 602 583 c 0
 582 489 511 432 444 403 c 1
 533 378 559 312 559 254 c 0
 559 239 558 226 555 213 c 0
 539 137 466 -17 239 -17 c 0
 68 -17 29 82 22 126 c 1
EndSplineSet
PickledDataWithLists: "(dp0
Vcom.fontlab.hintData
p1
(dp2
Vvhints
p3
(lp4
(dp5
Vposition
p6
L66L
sVwidth
p7
L10L
sa(dp8
g6
L76L
sg7
L10L
sa(dp9
g6
L203L
sg7
L10L
sa(dp10
g6
L491L
sg7
L10L
sa(dp11
g6
L546L
sg7
L10L
sa(dp12
g6
L589L
sg7
L10L
sa(dp13
g6
L644L
sg7
L10L
sasVhhints
p14
(lp15
(dp16
g6
L-27L
sg7
L10L
sa(dp17
g6
L44L
sg7
L10L
sa(dp18
g6
L150L
sg7
L10L
sa(dp19
g6
L361L
sg7
L10L
sa(dp20
g6
L372L
sg7
L10L
sa(dp21
g6
L630L
sg7
L10L
sa(dp22
g6
L741L
sg7
L10L
sa(dp23
g6
L810L
sg7
L10L
sass."
Substitution2: "Latin.dnom subtable" three.dnom
Substitution2: "Latin.numr subtable" three.numr
Substitution2: "Latin.subs subtable" three.subs
Substitution2: "Latin.sups subtable" three.sups
Substitution2: "Latin.pnum subtable" three.pnum
EndChar

StartChar: four
Encoding: 52 52 24
GlifName: four
Width: 650
VWidth: 0
Flags: HMW
LayerCount: 2
Fore
SplineSet
408 214 m 1
 35 214 l 1
 37 246 l 1
 540 786 l 1
 595 781 l 1
 486 266 l 1
 612 266 l 1
 600 214 l 1
 474 214 l 1
 429 0 l 1
 363 0 l 1
 408 214 l 1
421 266 m 1
 510 688 l 1
 120 266 l 1
 421 266 l 1
EndSplineSet
PickledDataWithLists: "(dp0
Vcom.fontlab.hintData
p1
(dp2
Vvhints
p3
(lp4
(dp5
Vposition
p6
L31L
sVwidth
p7
L10L
sa(dp8
g6
L276L
sg7
L10L
sa(dp9
g6
L374L
sg7
L10L
sa(dp10
g6
L455L
sg7
L10L
sa(dp11
g6
L554L
sg7
L10L
sa(dp12
g6
L679L
sg7
L10L
sasVhhints
p13
(lp14
(dp15
g6
L-30L
sg7
L10L
sa(dp16
g6
L174L
sg7
L10L
sa(dp17
g6
L243L
sg7
L10L
sa(dp18
g6
L259L
sg7
L10L
sa(dp19
g6
L609L
sg7
L10L
sa(dp20
g6
L819L
sg7
L10L
sass."
Substitution2: "Latin.dnom subtable" four.dnom
Substitution2: "Latin.numr subtable" four.numr
Substitution2: "Latin.subs subtable" four.subs
Substitution2: "Latin.sups subtable" four.sups
Substitution2: "Latin.pnum subtable" four.pnum
EndChar

StartChar: five
Encoding: 53 53 25
GlifName: five
Width: 660
VWidth: 0
Flags: HMW
LayerCount: 2
Fore
SplineSet
42 126 m 1
 113 139 l 1
 119 104 143 35 269 35 c 0
 433 35 490 149 507 228 c 0
 511 247 514 267 514 288 c 0
 514 355 484 423 372 423 c 0
 290 423 205 367 169 326 c 1
 122 353 l 1
 226 780 l 1
 654 780 l 1
 643 728 l 1
 280 728 l 1
 201 406 l 1
 248 439 317 473 394 473 c 0
 550 473 585 374 585 293 c 0
 585 271 583 249 579 232 c 0
 561 148 485 -17 258 -17 c 0
 87 -17 49 82 42 126 c 1
EndSplineSet
PickledDataWithLists: "(dp0
Vcom.fontlab.hintData
p1
(dp2
Vvhints
p3
(lp4
(dp5
Vposition
p6
L76L
sVwidth
p7
L10L
sa(dp8
g6
L106L
sg7
L10L
sa(dp9
g6
L125L
sg7
L10L
sa(dp10
g6
L226L
sg7
L10L
sa(dp11
g6
L541L
sg7
L10L
sa(dp12
g6
L614L
sg7
L10L
sa(dp13
g6
L639L
sg7
L10L
sasVhhints
p14
(lp15
(dp16
g6
L-26L
sg7
L10L
sa(dp17
g6
L43L
sg7
L10L
sa(dp18
g6
L150L
sg7
L10L
sa(dp19
g6
L334L
sg7
L10L
sa(dp20
g6
L409L
sg7
L10L
sa(dp21
g6
L477L
sg7
L10L
sa(dp22
g6
L716L
sg7
L10L
sa(dp23
g6
L784L
sg7
L10L
sa(dp24
g6
L795L
sg7
L10L
sass."
Substitution2: "Latin.dnom subtable" five.dnom
Substitution2: "Latin.numr subtable" five.numr
Substitution2: "Latin.subs subtable" five.subs
Substitution2: "Latin.sups subtable" five.sups
Substitution2: "Latin.pnum subtable" five.pnum
EndChar

StartChar: six
Encoding: 54 54 26
GlifName: six
Width: 660
VWidth: 0
Flags: HMW
LayerCount: 2
Fore
SplineSet
97 292 m 2
 128 439 l 2
 157 576 233 797 452 797 c 0
 614 797 642 689 647 645 c 1
 578 634 l 1
 574 674 551 744 441 744 c 0
 298 744 231 592 198 439 c 2
 186 381 l 1
 235 433 306 471 393 471 c 0
 542 471 585 378 585 289 c 0
 585 267 582 247 578 227 c 0
 549 91 437 -17 279 -17 c 0
 151 -17 84 51 84 181 c 0
 84 214 88 251 97 292 c 2
162 263 m 1
 157 233 154 207 154 184 c 0
 154 73 211 36 291 36 c 0
 396 36 483 104 509 227 c 0
 513 246 515 266 515 285 c 0
 515 357 482 421 372 421 c 0
 275 421 197 351 162 263 c 1
EndSplineSet
PickledDataWithLists: "(dp0
Vcom.fontlab.hintData
p1
(dp2
Vvhints
p3
(lp4
(dp5
Vposition
p6
L32L
sVwidth
p7
L10L
sa(dp8
g6
L90L
sg7
L10L
sa(dp9
g6
L188L
sg7
L10L
sa(dp10
g6
L464L
sg7
L10L
sa(dp11
g6
L560L
sg7
L10L
sa(dp12
g6
L658L
sg7
L10L
sasVhhints
p13
(lp14
(dp15
g6
L-29L
sg7
L10L
sa(dp16
g6
L39L
sg7
L10L
sa(dp17
g6
L251L
sg7
L10L
sa(dp18
g6
L397L
sg7
L10L
sa(dp19
g6
L466L
sg7
L10L
sa(dp20
g6
L819L
sg7
L10L
sass."
Substitution2: "Latin.dnom subtable" six.dnom
Substitution2: "Latin.numr subtable" six.numr
Substitution2: "Latin.subs subtable" six.subs
Substitution2: "Latin.sups subtable" six.sups
Substitution2: "Latin.pnum subtable" six.pnum
EndChar

StartChar: seven
Encoding: 55 55 27
GlifName: seven
Width: 585
VWidth: 0
Flags: HMW
LayerCount: 2
Fore
SplineSet
174 724 m 1
 186 780 l 1
 671 780 l 1
 667 740 l 1
 518 582 330 280 279 40 c 2
 270 0 l 1
 197 0 l 1
 206 40 l 2
 255 270 437 560 580 724 c 1
 174 724 l 1
EndSplineSet
PickledDataWithLists: "(dp0
Vcom.fontlab.hintData
p1
(dp2
Vvhints
p3
(lp4
(dp5
Vposition
p6
L69L
sVwidth
p7
L10L
sa(dp8
g6
L199L
sg7
L10L
sa(dp9
g6
L274L
sg7
L10L
sa(dp10
g6
L648L
sg7
L10L
sasVhhints
p11
(lp12
(dp13
g6
L-19L
sg7
L10L
sa(dp14
g6
L554L
sg7
L10L
sa(dp15
g6
L716L
sg7
L10L
sa(dp16
g6
L784L
sg7
L10L
sa(dp17
g6
L795L
sg7
L10L
sass."
Substitution2: "Latin.dnom subtable" seven.dnom
Substitution2: "Latin.numr subtable" seven.numr
Substitution2: "Latin.subs subtable" seven.subs
Substitution2: "Latin.sups subtable" seven.sups
Substitution2: "Latin.pnum subtable" seven.pnum
EndChar

StartChar: eight
Encoding: 56 56 28
GlifName: eight
Width: 660
VWidth: 0
Flags: HMW
LayerCount: 2
Fore
SplineSet
266 -17 m 0
 123 -17 41 54 41 153 c 0
 41 167 43 180 46 195 c 0
 75 332 186 384 263 401 c 1
 208 422 161 467 161 544 c 0
 161 559 162 574 166 591 c 0
 191 709 301 797 439 797 c 0
 559 797 631 730 631 635 c 0
 631 621 629 606 626 591 c 0
 603 485 523 426 447 401 c 1
 507 386 582 345 582 245 c 0
 582 230 580 213 576 195 c 0
 550 75 429 -17 266 -17 c 0
277 34 m 0
 397 34 485 97 506 195 c 0
 509 211 511 226 511 239 c 0
 511 316 459 350 405 362 c 0
 389 366 370 371 350 376 c 1
 328 371 307 366 289 362 c 0
 220 348 139 304 116 195 c 0
 113 182 112 170 112 159 c 0
 112 82 172 34 277 34 c 0
429 747 m 0
 338 747 256 691 235 591 c 0
 232 577 231 565 231 553 c 0
 231 486 273 446 320 435 c 0
 332 432 346 428 360 424 c 1
 376 428 390 432 404 435 c 0
 465 448 538 500 557 591 c 0
 560 605 561 618 561 630 c 0
 561 705 507 747 429 747 c 0
EndSplineSet
PickledDataWithLists: "(dp0
Vcom.fontlab.hintData
p1
(dp2
Vvhints
p3
(lp4
(dp5
Vposition
p6
L76L
sVwidth
p7
L10L
sa(dp8
g6
L87L
sg7
L10L
sa(dp9
g6
L174L
sg7
L10L
sa(dp10
g6
L185L
sg7
L10L
sa(dp11
g6
L549L
sg7
L10L
sa(dp12
g6
L584L
sg7
L10L
sa(dp13
g6
L594L
sg7
L10L
sa(dp14
g6
L649L
sg7
L10L
sasVhhints
p15
(lp16
(dp17
g6
L-24L
sg7
L10L
sa(dp18
g6
L44L
sg7
L10L
sa(dp19
g6
L394L
sg7
L9L
sa(dp20
g6
L610L
sg7
L10L
sa(dp21
g6
L651L
sg7
L10L
sa(dp22
g6
L741L
sg7
L10L
sa(dp23
g6
L809L
sg7
L10L
sass."
Substitution2: "Latin.dnom subtable" eight.dnom
Substitution2: "Latin.numr subtable" eight.numr
Substitution2: "Latin.subs subtable" eight.subs
Substitution2: "Latin.sups subtable" eight.sups
Substitution2: "Latin.pnum subtable" eight.pnum
EndChar

StartChar: nine
Encoding: 57 57 29
GlifName: nine
Width: 660
VWidth: 0
Flags: HMW
LayerCount: 2
Fore
SplineSet
609 488 m 2
 577 341 l 2
 548 204 472 -17 253 -17 c 0
 91 -17 64 91 59 135 c 1
 128 146 l 1
 132 106 155 36 265 36 c 0
 408 36 474 188 507 341 c 2
 520 399 l 1
 471 347 400 309 313 309 c 0
 164 309 121 402 121 491 c 0
 121 513 124 533 128 553 c 0
 157 689 268 797 426 797 c 0
 555 797 622 728 622 598 c 0
 622 565 618 528 609 488 c 2
544 517 m 1
 549 547 552 573 552 596 c 0
 552 707 495 744 415 744 c 0
 310 744 223 676 197 553 c 0
 193 534 190 513 190 494 c 0
 190 423 224 359 333 359 c 0
 430 359 509 429 544 517 c 1
EndSplineSet
PickledDataWithLists: "(dp0
Vcom.fontlab.hintData
p1
(dp2
Vvhints
p3
(lp4
(dp5
Vposition
p6
L52L
sVwidth
p7
L10L
sa(dp8
g6
L150L
sg7
L10L
sa(dp9
g6
L246L
sg7
L10L
sa(dp10
g6
L521L
sg7
L10L
sa(dp11
g6
L620L
sg7
L10L
sa(dp12
g6
L678L
sg7
L10L
sasVhhints
p13
(lp14
(dp15
g6
L-29L
sg7
L10L
sa(dp16
g6
L324L
sg7
L10L
sa(dp17
g6
L393L
sg7
L10L
sa(dp18
g6
L539L
sg7
L10L
sa(dp19
g6
L751L
sg7
L10L
sa(dp20
g6
L819L
sg7
L10L
sass."
Substitution2: "Latin.dnom subtable" nine.dnom
Substitution2: "Latin.numr subtable" nine.numr
Substitution2: "Latin.subs subtable" nine.subs
Substitution2: "Latin.sups subtable" nine.sups
Substitution2: "Latin.pnum subtable" nine.pnum
EndChar

StartChar: colon
Encoding: 58 58 30
GlifName: colon
Width: 330
VWidth: 0
Flags: HMW
LayerCount: 2
Fore
SplineSet
131 120 m 128
 163 120 185 102 185 73 c 0
 185 69 184 64 183 59 c 128
 175 22 142 -2 105 -2 c 128
 73 -2 51 16 51 45 c 0
 51 49 52 54 53 59 c 128
 61 96 94 120 131 120 c 128
220 540 m 128
 252 540 274 522 274 493 c 0
 274 489 273 484 272 479 c 128
 264 442 231 418 194 418 c 128
 162 418 140 436 140 465 c 0
 140 469 141 474 142 479 c 128
 150 516 183 540 220 540 c 128
EndSplineSet
PickledDataWithLists: "(dp0
Vcom.fontlab.hintData
p1
(dp2
Vvhints
p3
(lp4
(dp5
Vposition
p6
L81L
sVwidth
p7
L10L
sa(dp8
g6
L238L
sg7
L10L
sasVhhints
p9
(lp10
(dp11
g6
L-5L
sg7
L10L
sa(dp12
g6
L122L
sg7
L10L
sa(dp13
g6
L475L
sg7
L10L
sa(dp14
g6
L602L
sg7
L10L
sass."
EndChar

StartChar: semicolon
Encoding: 59 59 31
GlifName: semicolon
Width: 330
VWidth: 0
Flags: HMW
LayerCount: 2
Fore
SplineSet
220 540 m 128
 252 540 274 522 274 493 c 0
 274 489 273 484 272 479 c 128
 264 442 231 418 194 418 c 128
 162 418 140 436 140 465 c 0
 140 469 141 474 142 479 c 128
 150 516 183 540 220 540 c 128
52 57 m 128
 60 94 92 121 131 121 c 0
 175 121 193 92 193 53 c 0
 193 42 192 31 189 19 c 0
 168 -78 92 -147 22 -190 c 1
 6 -160 l 1
 64 -124 118 -70 138 6 c 1
 127 1 115 -2 103 -2 c 0
 72 -2 50 15 50 43 c 0
 50 47 51 52 52 57 c 128
EndSplineSet
PickledDataWithLists: "(dp0
Vcom.fontlab.hintData
p1
(dp2
Vvhints
p3
(lp4
(dp5
Vposition
p6
L61L
sVwidth
p7
L10L
sa(dp8
g6
L81L
sg7
L10L
sa(dp9
g6
L170L
sg7
L10L
sa(dp10
g6
L239L
sg7
L10L
sa(dp11
g6
L251L
sg7
L10L
sasVhhints
p12
(lp13
(dp14
g6
L-182L
sg7
L10L
sa(dp15
g6
L48L
sg7
L10L
sa(dp16
g6
L117L
sg7
L10L
sa(dp17
g6
L475L
sg7
L10L
sa(dp18
g6
L602L
sg7
L10L
sass."
EndChar

StartChar: less
Encoding: 60 60 32
GlifName: less
Width: 600
VWidth: 0
Flags: HMW
LayerCount: 2
Fore
SplineSet
117 341 m 1
 122 360 l 1
 126 379 l 1
 552 605 l 1
 552 552 l 1
 188 360 l 1
 471 168 l 1
 447 115 l 1
 117 341 l 1
EndSplineSet
PickledDataWithLists: "(dp0
Vcom.fontlab.hintData
p1
(dp2
Vvhints
p3
(lp4
(dp5
Vposition
p6
L63L
sVwidth
p7
L10L
sa(dp8
g6
L514L
sg7
L10L
sa(dp9
g6
L524L
sg7
L10L
sasVhhints
p10
(lp11
(dp12
g6
L65L
sg7
L10L
sa(dp13
g6
L606L
sg7
L10L
sass."
EndChar

StartChar: equal
Encoding: 61 61 33
GlifName: equal
Width: 600
VWidth: 0
Flags: HMW
LayerCount: 2
Fore
SplineSet
135 423 m 1
 146 473 l 1
 536 473 l 1
 525 423 l 1
 135 423 l 1
98 247 m 1
 108 297 l 1
 498 297 l 1
 488 247 l 1
 98 247 l 1
EndSplineSet
PickledDataWithLists: "(dp0
Vcom.fontlab.hintData
p1
(dp2
Vvhints
p3
(lp4
(dp5
Vposition
p6
L75L
sVwidth
p7
L10L
sa(dp8
g6
L514L
sg7
L10L
sasVhhints
p9
(lp10
(dp11
g6
L201L
sg7
L10L
sa(dp12
g6
L263L
sg7
L10L
sa(dp13
g6
L271L
sg7
L10L
sa(dp14
g6
L401L
sg7
L10L
sa(dp15
g6
L463L
sg7
L10L
sa(dp16
g6
L471L
sg7
L10L
sass."
EndChar

StartChar: greater
Encoding: 62 62 34
GlifName: greater
Width: 600
VWidth: 0
Flags: HMW
LayerCount: 2
Fore
SplineSet
516 379 m 1
 512 360 l 1
 507 341 l 1
 81 115 l 1
 81 168 l 1
 446 360 l 1
 162 552 l 1
 186 605 l 1
 516 379 l 1
EndSplineSet
PickledDataWithLists: "(dp0
Vcom.fontlab.hintData
p1
(dp2
Vvhints
p3
(lp4
(dp5
Vposition
p6
L66L
sVwidth
p7
L10L
sa(dp8
g6
L76L
sg7
L10L
sa(dp9
g6
L527L
sg7
L10L
sasVhhints
p10
(lp11
(dp12
g6
L64L
sg7
L10L
sa(dp13
g6
L605L
sg7
L10L
sass."
EndChar

StartChar: question
Encoding: 63 63 35
GlifName: question
Width: 570
VWidth: 0
Flags: HMW
LayerCount: 2
Fore
SplineSet
251 120 m 0
 283 120 305 102 305 73 c 0
 305 69 304 64 303 59 c 0
 295 22 262 -2 225 -2 c 0
 193 -2 171 16 171 45 c 0
 171 49 172 54 173 59 c 0
 181 96 214 120 251 120 c 0
149 653 m 0
 170 754 271 827 401 827 c 0
 505 827 571 776 571 685 c 0
 571 670 570 655 566 638 c 0
 531 473 312 430 285 302 c 0
 283 292 282 281 282 270 c 0
 282 259 283 248 286 238 c 1
 228 232 l 1
 224 247 222 261 222 275 c 0
 222 285 223 295 225 305 c 0
 258 462 466 498 495 636 c 0
 498 651 500 664 500 676 c 0
 500 745 451 773 388 773 c 0
 304 773 236 729 220 653 c 0
 218 641 216 629 216 617 c 0
 216 605 218 594 220 583 c 1
 150 565 l 1
 147 580 145 596 145 612 c 0
 145 626 146 639 149 653 c 0
EndSplineSet
PickledDataWithLists: "(dp0
Vcom.fontlab.hintData
p1
(dp2
Vvhints
p3
(lp4
(dp5
Vposition
p6
L11L
sVwidth
p7
L10L
sa(dp8
g6
L98L
sg7
L10L
sa(dp9
g6
L120L
sg7
L10L
sa(dp10
g6
L152L
sg7
L10L
sa(dp11
g6
L161L
sg7
L10L
sa(dp12
g6
L241L
sg7
L10L
sa(dp13
g6
L254L
sg7
L10L
sa(dp14
g6
L310L
sg7
L10L
sa(dp15
g6
L351L
sg7
L10L
sa(dp16
g6
L439L
sg7
L10L
sasVhhints
p17
(lp18
(dp19
g6
L-5L
sg7
L10L
sa(dp20
g6
L122L
sg7
L10L
sa(dp21
g6
L255L
sg7
L10L
sa(dp22
g6
L594L
sg7
L10L
sa(dp23
g6
L784L
sg7
L10L
sa(dp24
g6
L846L
sg7
L10L
sass."
EndChar

StartChar: at
Encoding: 64 64 36
GlifName: at
Width: 1020
VWidth: 0
Flags: HMW
LayerCount: 2
Fore
SplineSet
80 235 m 0
 134 491 367 780 665 780 c 0
 873 780 966 656 966 498 c 0
 966 467 962 433 955 400 c 0
 920 234 784 42 649 42 c 0
 601 42 587 68 587 104 c 0
 587 115 588 127 590 139 c 1
 543 80 487 38 421 38 c 0
 323 38 287 101 287 174 c 0
 287 192 289 211 293 229 c 0
 323 369 462 560 647 560 c 0
 717 560 743 518 743 471 c 0
 743 462 742 451 740 442 c 0
 731 400 710 356 685 301 c 0
 658 234 642 186 635 152 c 0
 631 135 630 121 630 111 c 0
 630 86 639 79 657 79 c 0
 746 79 878 236 913 400 c 0
 920 432 923 463 923 492 c 0
 923 636 840 743 657 743 c 0
 394 743 174 481 122 235 c 0
 114 198 110 162 110 128 c 0
 110 -30 198 -153 409 -153 c 0
 482 -153 574 -115 605 -98 c 1
 623 -129 l 1
 586 -150 489 -190 402 -190 c 0
 164 -190 68 -48 68 124 c 0
 68 160 72 197 80 235 c 0
430 80 m 0
 514 80 583 178 638 307 c 0
 662 360 683 408 690 442 c 0
 692 450 693 458 693 465 c 0
 693 499 673 518 638 518 c 0
 507 518 375 365 346 229 c 0
 342 211 340 195 340 180 c 0
 340 118 371 80 430 80 c 0
EndSplineSet
PickledDataWithLists: "(dp0
Vcom.fontlab.hintData
p1
(dp2
Vvhints
p3
(lp4
(dp5
Vposition
p6
L74L
sVwidth
p7
L10L
sa(dp8
g6
L143L
sg7
L10L
sa(dp9
g6
L293L
sg7
L10L
sa(dp10
g6
L372L
sg7
L10L
sa(dp11
g6
L622L
sg7
L10L
sa(dp12
g6
L670L
sg7
L10L
sa(dp13
g6
L702L
sg7
L10L
sa(dp14
g6
L726L
sg7
L10L
sa(dp15
g6
L865L
sg7
L10L
sa(dp16
g6
L935L
sg7
L10L
sasVhhints
p17
(lp18
(dp19
g6
L-179L
sg7
L10L
sa(dp20
g6
L-131L
sg7
L10L
sa(dp21
g6
L-76L
sg7
L10L
sa(dp22
g6
L38L
sg7
L10L
sa(dp23
g6
L92L
sg7
L10L
sa(dp24
g6
L352L
sg7
L10L
sa(dp25
g6
L399L
sg7
L10L
sa(dp26
g6
L490L
sg7
L10L
sa(dp27
g6
L544L
sg7
L10L
sa(dp28
g6
L711L
sg7
L10L
sa(dp29
g6
L759L
sg7
L10L
sass."
EndChar

StartChar: A
Encoding: 65 65 37
GlifName: A_
Width: 750
VWidth: 0
Flags: HMW
AnchorPoint: "LatinOgonek.mark" 610 0 basechar 0
AnchorPoint: "LatinBelow.mark" 315 0 basechar 0
AnchorPoint: "LatinAbove.mark" 347 150 basechar 0
LayerCount: 2
Fore
SplineSet
660 0 m 1
 580 0 l 1
 549 184 l 1
 159 184 l 1
 50 0 l 1
 -30 0 l 1
 -29 5 l 1
 450 780 l 1
 512 780 l 1
 661 5 l 1
 660 0 l 1
540 236 m 1
 463 698 l 1
 190 236 l 1
 540 236 l 1
EndSplineSet
PickledDataWithLists: "(dp0
Vcom.fontlab.hintData
p1
(dp2
Vvhints
p3
(lp4
(dp5
Vposition
p6
L33L
sVwidth
p7
L10L
sa(dp8
g6
L39L
sg7
L10L
sa(dp9
g6
L763L
sg7
L10L
sasVhhints
p10
(lp11
(dp12
g6
L-16L
sg7
L10L
sa(dp13
g6
L3L
sg7
L10L
sa(dp14
g6
L179L
sg7
L10L
sa(dp15
g6
L209L
sg7
L10L
sa(dp16
g6
L271L
sg7
L10L
sa(dp17
g6
L810L
sg7
L10L
sass."
EndChar

StartChar: B
Encoding: 66 66 38
GlifName: B_
Width: 745
VWidth: 0
Flags: HMW
AnchorPoint: "LatinBelow.mark" 260 0 basechar 0
AnchorPoint: "LatinAbove.mark" 292 150 basechar 0
LayerCount: 2
Fore
SplineSet
509 426 m 1
 605 405 666 350 666 262 c 0
 666 248 664 232 661 216 c 0
 630 68 481 -9 307 -9 c 0
 204 -9 81 -3 45 0 c 1
 211 780 l 1
 244 783 351 789 442 789 c 0
 572 789 671 738 671 635 c 0
 671 622 669 609 666 595 c 0
 648 509 586 454 509 426 c 1
402 437 m 1
 488 446 577 494 597 590 c 0
 600 602 601 613 601 623 c 0
 601 702 529 737 425 737 c 0
 366 737 303 735 268 733 c 1
 204 432 l 1
 258 435 333 437 402 437 c 1
122 47 m 1
 168 45 246 43 312 43 c 0
 449 43 566 94 592 216 c 0
 595 229 596 242 596 254 c 0
 596 349 507 388 385 388 c 0
 319 388 240 386 194 384 c 1
 122 47 l 1
EndSplineSet
PickledDataWithLists: "(dp0
Vcom.fontlab.hintData
p1
(dp2
Vvhints
p3
(lp4
(dp5
Vposition
p6
L26L
sVwidth
p7
L10L
sa(dp8
g6
L116L
sg7
L10L
sa(dp9
g6
L121L
sg7
L10L
sa(dp10
g6
L223L
sg7
L10L
sa(dp11
g6
L537L
sg7
L10L
sa(dp12
g6
L636L
sg7
L10L
sa(dp13
g6
L735L
sg7
L10L
sasVhhints
p14
(lp15
(dp16
g6
L-22L
sg7
L10L
sa(dp17
g6
L49L
sg7
L10L
sa(dp18
g6
L395L
sg7
L10L
sa(dp19
g6
L634L
sg7
L10L
sa(dp20
g6
L661L
sg7
L10L
sa(dp21
g6
L742L
sg7
L10L
sa(dp22
g6
L809L
sg7
L10L
sass."
Colour: ff00
EndChar

StartChar: C
Encoding: 67 67 39
GlifName: C_
Width: 755
VWidth: 0
Flags: HMW
AnchorPoint: "LatinCedilla.mark" 352 0 basechar 0
AnchorPoint: "LatinBelow.mark" 350 0 basechar 0
AnchorPoint: "LatinAbove.mark" 382 150 basechar 0
LayerCount: 2
Fore
SplineSet
102 407 m 2
 143 599 267 797 522 797 c 0
 705 797 766 680 766 601 c 0
 766 599 766 597 766 595 c 1
 692 588 l 1
 692 589 692 591 692 592 c 0
 692 657 643 742 511 742 c 0
 327 742 216 597 176 407 c 2
 168 373 l 2
 159 333 155 294 155 259 c 0
 155 128 216 38 361 38 c 0
 496 38 582 127 608 192 c 1
 679 185 l 1
 648 106 536 -17 349 -17 c 0
 148 -17 80 105 80 251 c 0
 80 291 85 332 94 373 c 2
 102 407 l 2
EndSplineSet
PickledDataWithLists: "(dp0
Vcom.fontlab.hintData
p1
(dp2
Vvhints
p3
(lp4
(dp5
Vposition
p6
L68L
sVwidth
p7
L10L
sa(dp8
g6
L172L
sg7
L10L
sa(dp9
g6
L569L
sg7
L10L
sa(dp10
g6
L673L
sg7
L10L
sa(dp11
g6
L707L
sg7
L10L
sasVhhints
p12
(lp13
(dp14
g6
L-20L
sg7
L10L
sa(dp15
g6
L52L
sg7
L10L
sa(dp16
g6
L169L
sg7
L10L
sa(dp17
g6
L586L
sg7
L10L
sa(dp18
g6
L739L
sg7
L10L
sa(dp19
g6
L811L
sg7
L10L
sass."
Colour: ff00
EndChar

StartChar: D
Encoding: 68 68 40
GlifName: D_
Width: 770
VWidth: 0
Flags: HMW
AnchorPoint: "LatinBelow.mark" 260 0 basechar 0
AnchorPoint: "LatinAbove.mark" 292 150 basechar 0
LayerCount: 2
Fore
SplineSet
125 48 m 1
 157 46 204 44 236 44 c 0
 486 44 604 188 643 372 c 2
 651 408 l 2
 658 442 662 475 662 506 c 0
 662 641 587 736 383 736 c 0
 351 736 303 734 271 732 c 1
 125 48 l 1
211 780 m 1
 211 780 321 789 395 789 c 0
 646 789 733 662 733 509 c 0
 733 476 729 442 722 408 c 2
 714 372 l 2
 673 179 530 -9 225 -9 c 0
 151 -9 45 0 45 0 c 1
 211 780 l 1
EndSplineSet
PickledDataWithLists: "(dp0
Vcom.fontlab.hintData
p1
(dp2
Vvhints
p3
(lp4
(dp5
Vposition
p6
L26L
sVwidth
p7
L10L
sa(dp8
g6
L116L
sg7
L10L
sa(dp9
g6
L121L
sg7
L10L
sa(dp10
g6
L223L
sg7
L10L
sa(dp11
g6
L630L
sg7
L10L
sa(dp12
g6
L729L
sg7
L10L
sasVhhints
p13
(lp14
(dp15
g6
L-21L
sg7
L10L
sa(dp16
g6
L49L
sg7
L10L
sa(dp17
g6
L634L
sg7
L10L
sa(dp18
g6
L661L
sg7
L10L
sa(dp19
g6
L742L
sg7
L10L
sa(dp20
g6
L810L
sg7
L10L
sass."
EndChar

StartChar: E
Encoding: 69 69 41
GlifName: E_
Width: 675
VWidth: 0
Flags: HMW
AnchorPoint: "LatinOgonek.mark" 485 0 basechar 0
AnchorPoint: "LatinBelow.mark" 290 0 basechar 0
AnchorPoint: "LatinAbove.mark" 322 150 basechar 0
LayerCount: 2
Fore
SplineSet
45 0 m 1
 211 780 l 1
 696 780 l 1
 684 725 l 1
 270 725 l 1
 203 411 l 1
 585 411 l 1
 574 359 l 1
 192 359 l 1
 128 55 l 1
 557 55 l 1
 545 0 l 1
 45 0 l 1
EndSplineSet
PickledDataWithLists: "(dp0
Vcom.fontlab.hintData
p1
(dp2
Vvhints
p3
(lp4
(dp5
Vposition
p6
L66L
sVwidth
p7
L10L
sa(dp8
g6
L106L
sg7
L10L
sa(dp9
g6
L121L
sg7
L10L
sa(dp10
g6
L204L
sg7
L10L
sa(dp11
g6
L220L
sg7
L10L
sa(dp12
g6
L564L
sg7
L10L
sa(dp13
g6
L644L
sg7
L10L
sa(dp14
g6
L674L
sg7
L10L
sasVhhints
p15
(lp16
(dp17
g6
L-24L
sg7
L10L
sa(dp18
g6
L-9L
sg7
L10L
sa(dp19
g6
L46L
sg7
L10L
sa(dp20
g6
L59L
sg7
L10L
sa(dp21
g6
L361L
sg7
L10L
sa(dp22
g6
L423L
sg7
L10L
sa(dp23
g6
L726L
sg7
L10L
sa(dp24
g6
L794L
sg7
L10L
sa(dp25
g6
L799L
sg7
L10L
sa(dp26
g6
L804L
sg7
L10L
sass."
Colour: ff00
EndChar

StartChar: F
Encoding: 70 70 42
GlifName: F_
Width: 640
VWidth: 0
Flags: HMW
AnchorPoint: "LatinBelow.mark" 100 0 basechar 0
AnchorPoint: "LatinAbove.mark" 312 150 basechar 0
LayerCount: 2
Fore
SplineSet
45 0 m 1
 211 780 l 1
 686 780 l 1
 674 725 l 1
 270 725 l 1
 204 413 l 1
 576 413 l 1
 564 357 l 1
 192 357 l 1
 116 0 l 1
 45 0 l 1
EndSplineSet
PickledDataWithLists: "(dp0
Vcom.fontlab.hintData
p1
(dp2
Vvhints
p3
(lp4
(dp5
Vposition
p6
L59L
sVwidth
p7
L10L
sa(dp8
g6
L66L
sg7
L10L
sa(dp9
g6
L116L
sg7
L10L
sa(dp10
g6
L124L
sg7
L10L
sa(dp11
g6
L214L
sg7
L10L
sa(dp12
g6
L222L
sg7
L10L
sa(dp13
g6
L564L
sg7
L10L
sa(dp14
g6
L644L
sg7
L10L
sasVhhints
p15
(lp16
(dp17
g6
L-14L
sg7
L10L
sa(dp18
g6
L355L
sg7
L10L
sa(dp19
g6
L360L
sg7
L10L
sa(dp20
g6
L423L
sg7
L10L
sa(dp21
g6
L726L
sg7
L10L
sa(dp22
g6
L794L
sg7
L10L
sa(dp23
g6
L799L
sg7
L10L
sa(dp24
g6
L804L
sg7
L10L
sass."
Colour: ff00
EndChar

StartChar: G
Encoding: 71 71 43
GlifName: G_
Width: 770
VWidth: 0
Flags: HMW
AnchorPoint: "LatinBelow.mark" 350 0 basechar 0
AnchorPoint: "LatinAbove.mark" 382 150 basechar 0
LayerCount: 2
Fore
SplineSet
432 320 m 1
 443 371 l 1
 714 371 l 1
 665 139 l 1
 626 76 520 -17 349 -17 c 0
 148 -17 80 105 80 251 c 0
 80 291 85 332 94 373 c 2
 102 407 l 2
 143 599 267 797 522 797 c 0
 705 797 766 680 766 601 c 0
 766 599 766 597 766 595 c 1
 693 588 l 1
 693 589 693 591 693 592 c 0
 693 657 643 743 511 743 c 0
 325 743 216 599 175 407 c 2
 167 373 l 2
 158 332 154 292 154 256 c 0
 154 125 215 37 361 37 c 0
 489 37 561 93 600 143 c 1
 638 320 l 1
 432 320 l 1
EndSplineSet
PickledDataWithLists: "(dp0
Vcom.fontlab.hintData
p1
(dp2
Vvhints
p3
(lp4
(dp5
Vposition
p6
L71L
sVwidth
p7
L10L
sa(dp8
g6
L169L
sg7
L10L
sa(dp9
g6
L386L
sg7
L10L
sa(dp10
g6
L572L
sg7
L10L
sa(dp11
g6
L615L
sg7
L10L
sa(dp12
g6
L670L
sg7
L10L
sa(dp13
g6
L715L
sg7
L10L
sasVhhints
p14
(lp15
(dp16
g6
L-24L
sg7
L10L
sa(dp17
g6
L44L
sg7
L10L
sa(dp18
g6
L290L
sg7
L10L
sa(dp19
g6
L390L
sg7
L10L
sa(dp20
g6
L587L
sg7
L10L
sa(dp21
g6
L741L
sg7
L10L
sa(dp22
g6
L810L
sg7
L10L
sass."
Colour: ff00
EndChar

StartChar: H
Encoding: 72 72 44
GlifName: H_
Width: 790
VWidth: 0
Flags: HMW
AnchorPoint: "LatinBelow.mark" 335 0 basechar 0
AnchorPoint: "LatinAbove.mark" 367 150 basechar 0
LayerCount: 2
Fore
SplineSet
45 0 m 1
 211 780 l 1
 282 780 l 1
 205 418 l 1
 643 418 l 1
 720 780 l 1
 791 780 l 1
 625 0 l 1
 554 0 l 1
 631 362 l 1
 193 362 l 1
 116 0 l 1
 45 0 l 1
EndSplineSet
PickledDataWithLists: "(dp0
Vcom.fontlab.hintData
p1
(dp2
Vvhints
p3
(lp4
(dp5
Vposition
p6
L66L
sVwidth
p7
L10L
sa(dp8
g6
L101L
sg7
L10L
sa(dp9
g6
L111L
sg7
L10L
sa(dp10
g6
L211L
sg7
L10L
sa(dp11
g6
L605L
sg7
L10L
sa(dp12
g6
L704L
sg7
L10L
sa(dp13
g6
L744L
sg7
L10L
sasVhhints
p14
(lp15
(dp16
g6
L-14L
sg7
L10L
sa(dp17
g6
L355L
sg7
L10L
sa(dp18
g6
L423L
sg7
L10L
sa(dp19
g6
L794L
sg7
L10L
sa(dp20
g6
L799L
sg7
L10L
sass."
Colour: ff00
EndChar

StartChar: I
Encoding: 73 73 45
GlifName: I_
Width: 320
VWidth: 0
Flags: HMW
AnchorPoint: "LatinOgonek.mark" 105 0 basechar 0
AnchorPoint: "LatinBelow.mark" 100 0 basechar 0
AnchorPoint: "LatinAbove.mark" 132 150 basechar 0
LayerCount: 2
Fore
SplineSet
65 0 m 1
 231 780 l 1
 301 780 l 1
 135 0 l 1
 65 0 l 1
EndSplineSet
PickledDataWithLists: "(dp0
Vcom.fontlab.hintData
p1
(dp2
Vvhints
p3
(lp4
(dp5
Vposition
p6
L53L
sVwidth
p7
L10L
sa(dp8
g6
L77L
sg7
L10L
sa(dp9
g6
L188L
sg7
L10L
sa(dp10
g6
L194L
sg7
L10L
sa(dp11
g6
L282L
sg7
L10L
sa(dp12
g6
L288L
sg7
L10L
sa(dp13
g6
L414L
sg7
L10L
sasVhhints
p14
(lp15
(dp16
g6
L-3L
sg7
L10L
sa(dp17
g6
L3L
sg7
L10L
sa(dp18
g6
L59L
sg7
L10L
sa(dp19
g6
L67L
sg7
L10L
sa(dp20
g6
L729L
sg7
L10L
sa(dp21
g6
L788L
sg7
L10L
sass."
Colour: ff00
EndChar

StartChar: J
Encoding: 74 74 46
GlifName: J_
Width: 520
VWidth: 0
Flags: HMW
AnchorPoint: "LatinBelow.mark" 170 0 basechar 0
AnchorPoint: "LatinAbove.mark" 332 150 basechar 0
LayerCount: 2
Fore
SplineSet
3 132 m 1
 75 138 l 1
 75 135 75 133 75 130 c 0
 75 72 108 36 173 36 c 0
 240 36 300 74 318 158 c 2
 450 780 l 1
 521 780 l 1
 389 158 l 2
 368 58 280 -17 161 -17 c 0
 49 -17 3 50 3 121 c 0
 3 125 3 128 3 132 c 1
EndSplineSet
PickledDataWithLists: "(dp0
Vcom.fontlab.hintData
p1
(dp2
Vvhints
p3
(lp4
(dp5
Vposition
p6
L16L
sVwidth
p7
L10L
sa(dp8
g6
L152L
sg7
L10L
sa(dp9
g6
L318L
sg7
L10L
sa(dp10
g6
L412L
sg7
L10L
sa(dp11
g6
L492L
sg7
L10L
sasVhhints
p12
(lp13
(dp14
g6
L-14L
sg7
L10L
sa(dp15
g6
L55L
sg7
L9L
sa(dp16
g6
L129L
sg7
L10L
sa(dp17
g6
L730L
sg7
L10L
sa(dp18
g6
L788L
sg7
L10L
sass."
Colour: ff00
EndChar

StartChar: K
Encoding: 75 75 47
GlifName: K_
Width: 715
VWidth: 0
Flags: HMW
AnchorPoint: "LatinBelow.mark" 300 0 basechar 0
AnchorPoint: "LatinAbove.mark" 332 150 basechar 0
LayerCount: 2
Fore
SplineSet
45 0 m 1
 211 780 l 1
 279 780 l 1
 187 350 l 1
 670 780 l 1
 747 774 l 1
 746 770 l 1
 380 454 l 1
 636 4 l 1
 635 0 l 1
 551 0 l 1
 325 407 l 1
 171 274 l 1
 113 0 l 1
 45 0 l 1
EndSplineSet
PickledDataWithLists: "(dp0
Vcom.fontlab.hintData
p1
(dp2
Vvhints
p3
(lp4
(dp5
Vposition
p6
L64L
sVwidth
p7
L10L
sa(dp8
g6
L86L
sg7
L10L
sa(dp9
g6
L116L
sg7
L10L
sa(dp10
g6
L211L
sg7
L10L
sa(dp11
g6
L219L
sg7
L10L
sa(dp12
g6
L679L
sg7
L10L
sa(dp13
g6
L734L
sg7
L10L
sasVhhints
p14
(lp15
(dp16
g6
L-14L
sg7
L10L
sa(dp17
g6
L-9L
sg7
L10L
sa(dp18
g6
L799L
sg7
L10L
sass."
Colour: ff00
EndChar

StartChar: L
Encoding: 76 76 48
GlifName: L_
Width: 570
VWidth: 0
Flags: HMW
AnchorPoint: "LatinBelow.mark" 260 0 basechar 0
AnchorPoint: "LatinAbove.mark" 132 150 basechar 0
LayerCount: 2
Fore
SplineSet
45 0 m 1
 211 780 l 1
 282 780 l 1
 128 55 l 1
 482 55 l 1
 470 0 l 1
 45 0 l 1
EndSplineSet
PickledDataWithLists: "(dp0
Vcom.fontlab.hintData
p1
(dp2
Vvhints
p3
(lp4
(dp5
Vposition
p6
L126L
sVwidth
p7
L10L
sa(dp8
g6
L131L
sg7
L10L
sa(dp9
g6
L144L
sg7
L10L
sa(dp10
g6
L224L
sg7
L10L
sa(dp11
g6
L242L
sg7
L10L
sa(dp12
g6
L624L
sg7
L10L
sasVhhints
p13
(lp14
(dp15
g6
L-23L
sg7
L10L
sa(dp16
g6
L-9L
sg7
L10L
sa(dp17
g6
L45L
sg7
L10L
sa(dp18
g6
L59L
sg7
L10L
sa(dp19
g6
L794L
sg7
L10L
sass."
Colour: ff00
EndChar

StartChar: M
Encoding: 77 77 49
GlifName: M_
Width: 880
VWidth: 0
Flags: HMW
AnchorPoint: "LatinBelow.mark" 380 0 basechar 0
AnchorPoint: "LatinAbove.mark" 412 150 basechar 0
LayerCount: 2
Fore
SplineSet
715 0 m 1
 646 0 l 1
 784 647 l 1
 440 195 l 1
 402 195 l 1
 252 647 l 1
 114 0 l 1
 45 0 l 1
 209 773 l 1
 270 780 l 1
 437 267 l 1
 822 780 l 1
 879 773 l 1
 715 0 l 1
EndSplineSet
PickledDataWithLists: "(dp0
Vcom.fontlab.hintData
p1
(dp2
Vvhints
p3
(lp4
(dp5
Vposition
p6
L66L
sVwidth
p7
L10L
sa(dp8
g6
L102L
sg7
L10L
sa(dp9
g6
L197L
sg7
L10L
sa(dp10
g6
L691L
sg7
L10L
sa(dp11
g6
L785L
sg7
L10L
sa(dp12
g6
L824L
sg7
L10L
sasVhhints
p13
(lp14
(dp15
g6
L-19L
sg7
L10L
sa(dp16
g6
L-9L
sg7
L10L
sa(dp17
g6
L137L
sg7
L10L
sa(dp18
g6
L604L
sg7
L20L
sa(dp19
g6
L783L
sg7
L10L
sa(dp20
g6
L795L
sg7
L10L
sass."
Colour: ff00
EndChar

StartChar: N
Encoding: 78 78 50
GlifName: N_
Width: 790
VWidth: 0
Flags: HMW
AnchorPoint: "LatinBelow.mark" 335 0 basechar 0
AnchorPoint: "LatinAbove.mark" 367 150 basechar 0
LayerCount: 2
Fore
SplineSet
45 0 m 1
 209 773 l 1
 272 780 l 1
 580 113 l 1
 722 780 l 1
 791 780 l 1
 625 0 l 1
 564 0 l 1
 256 667 l 1
 114 0 l 1
 45 0 l 1
EndSplineSet
PickledDataWithLists: "(dp0
Vcom.fontlab.hintData
p1
(dp2
Vvhints
p3
(lp4
(dp5
Vposition
p6
L97L
sVwidth
p7
L10L
sa(dp8
g6
L111L
sg7
L10L
sa(dp9
g6
L209L
sg7
L10L
sa(dp10
g6
L601L
sg7
L10L
sa(dp11
g6
L613L
sg7
L10L
sa(dp12
g6
L699L
sg7
L10L
sa(dp13
g6
L711L
sg7
L10L
sasVhhints
p14
(lp15
(dp16
g6
L-14L
sg7
L10L
sa(dp17
g6
L-8L
sg7
L10L
sa(dp18
g6
L794L
sg7
L10L
sass."
Colour: ff00
EndChar

StartChar: O
Encoding: 79 79 51
GlifName: O_
Width: 820
VWidth: 0
Flags: HMW
AnchorPoint: "LatinOgonek.mark" 420 0 basechar 0
AnchorPoint: "LatinBelow.mark" 350 0 basechar 0
AnchorPoint: "LatinAbove.mark" 382 150 basechar 0
LayerCount: 2
Fore
SplineSet
94 372 m 2
 102 408 l 2
 143 599 265 797 519 797 c 0
 718 797 786 675 786 530 c 0
 786 490 781 449 772 408 c 2
 764 372 l 2
 723 181 600 -17 346 -17 c 0
 147 -17 80 105 80 249 c 0
 80 289 85 331 94 372 c 2
358 37 m 0
 543 37 651 183 691 372 c 2
 699 408 l 2
 708 449 712 488 712 524 c 0
 712 653 653 743 508 743 c 0
 323 743 215 597 175 408 c 2
 167 372 l 2
 158 331 154 292 154 256 c 0
 154 127 213 37 358 37 c 0
EndSplineSet
PickledDataWithLists: "(dp0
Vcom.fontlab.hintData
p1
(dp2
Vvhints
p3
(lp4
(dp5
Vposition
p6
L66L
sVwidth
p7
L10L
sa(dp8
g6
L164L
sg7
L10L
sa(dp9
g6
L572L
sg7
L10L
sa(dp10
g6
L659L
sg7
L10L
sa(dp11
g6
L690L
sg7
L10L
sa(dp12
g6
L757L
sg7
L10L
sasVhhints
p13
(lp14
(dp15
g6
L-22L
sg7
L10L
sa(dp16
g6
L47L
sg7
L10L
sa(dp17
g6
L742L
sg7
L10L
sa(dp18
g6
L811L
sg7
L10L
sass."
Colour: ff00
EndChar

StartChar: P
Encoding: 80 80 52
GlifName: P_
Width: 710
VWidth: 0
Flags: HMW
AnchorPoint: "LatinBelow.mark" 100 0 basechar 0
AnchorPoint: "LatinAbove.mark" 332 150 basechar 0
LayerCount: 2
Fore
SplineSet
198 394 m 1
 239 392 302 390 366 390 c 0
 503 390 619 442 645 564 c 0
 648 578 649 590 649 602 c 0
 649 696 562 737 440 737 c 0
 376 737 311 735 270 733 c 1
 198 394 l 1
187 343 m 1
 114 0 l 1
 45 0 l 1
 119 347 l 1
 211 780 l 1
 249 783 354 789 457 789 c 0
 612 789 720 728 720 610 c 0
 720 595 718 580 715 564 c 0
 684 416 535 338 361 338 c 0
 298 338 235 341 187 343 c 1
EndSplineSet
PickledDataWithLists: "(dp0
Vcom.fontlab.hintData
p1
(dp2
Vvhints
p3
(lp4
(dp5
Vposition
p6
L26L
sVwidth
p7
L10L
sa(dp8
g6
L36L
sg7
L10L
sa(dp9
g6
L116L
sg7
L10L
sa(dp10
g6
L130L
sg7
L10L
sa(dp11
g6
L228L
sg7
L10L
sa(dp12
g6
L592L
sg7
L10L
sa(dp13
g6
L693L
sg7
L10L
sasVhhints
p14
(lp15
(dp16
g6
L-24L
sg7
L10L
sa(dp17
g6
L302L
sg7
L10L
sa(dp18
g6
L369L
sg7
L10L
sa(dp19
g6
L429L
sg7
L10L
sa(dp20
g6
L634L
sg7
L10L
sa(dp21
g6
L661L
sg7
L10L
sa(dp22
g6
L744L
sg7
L10L
sa(dp23
g6
L813L
sg7
L10L
sass."
Colour: ff00
EndChar

StartChar: Q
Encoding: 81 81 53
GlifName: Q_
Width: 820
VWidth: 0
Flags: HMW
AnchorPoint: "LatinBelow.mark" 350 0 basechar 0
AnchorPoint: "LatinAbove.mark" 382 150 basechar 0
LayerCount: 2
Fore
SplineSet
94 372 m 2
 102 408 l 2
 143 599 265 797 519 797 c 0
 718 797 786 675 786 530 c 0
 786 490 781 449 772 408 c 2
 764 372 l 2
 744 279 706 186 641 113 c 1
 735 23 l 1
 694 -19 l 1
 601 73 l 1
 537 18 453 -17 346 -17 c 0
 147 -17 80 105 80 249 c 0
 80 289 85 331 94 372 c 2
394 276 m 1
 432 314 l 1
 597 155 l 1
 642 213 673 288 691 372 c 2
 699 408 l 2
 708 449 712 488 712 524 c 0
 712 653 653 743 508 743 c 0
 323 743 215 597 175 408 c 2
 167 372 l 2
 158 331 154 292 154 256 c 0
 154 127 213 37 358 37 c 0
 440 37 507 66 559 114 c 1
 394 276 l 1
EndSplineSet
PickledDataWithLists: "(dp0
Vcom.fontlab.hintData
p1
(dp2
Vvhints
p3
(lp4
(dp5
Vposition
p6
L66L
sVwidth
p7
L10L
sa(dp8
g6
L164L
sg7
L10L
sa(dp9
g6
L407L
sg7
L10L
sa(dp10
g6
L491L
sg7
L10L
sa(dp11
g6
L675L
sg7
L10L
sa(dp12
g6
L690L
sg7
L10L
sa(dp13
g6
L760L
sg7
L10L
sa(dp14
g6
L769L
sg7
L10L
sasVhhints
p15
(lp16
(dp17
g6
L-206L
sg7
L10L
sa(dp18
g6
L-17L
sg7
L10L
sa(dp19
g6
L46L
sg7
L10L
sa(dp20
g6
L514L
sg7
L10L
sa(dp21
g6
L576L
sg7
L10L
sa(dp22
g6
L598L
sg7
L10L
sa(dp23
g6
L742L
sg7
L10L
sa(dp24
g6
L811L
sg7
L10L
sass."
Colour: ff00
EndChar

StartChar: R
Encoding: 82 82 54
GlifName: R_
Width: 730
VWidth: 0
Flags: HMW
AnchorPoint: "LatinBelow.mark" 300 0 basechar 0
AnchorPoint: "LatinAbove.mark" 332 150 basechar 0
LayerCount: 2
Fore
SplineSet
198 394 m 1
 239 392 302 390 366 390 c 0
 503 390 619 442 645 564 c 0
 648 578 649 590 649 602 c 0
 649 696 562 737 440 737 c 0
 376 737 311 735 270 733 c 1
 198 394 l 1
341 338 m 1
 285 338 230 341 187 343 c 1
 114 0 l 1
 45 0 l 1
 119 347 l 1
 211 780 l 1
 249 783 354 789 457 789 c 0
 612 789 720 728 720 610 c 0
 720 595 718 580 715 564 c 0
 687 432 565 356 417 341 c 1
 626 4 l 1
 625 0 l 1
 544 0 l 1
 341 338 l 1
EndSplineSet
PickledDataWithLists: "(dp0
Vcom.fontlab.hintData
p1
(dp2
Vvhints
p3
(lp4
(dp5
Vposition
p6
L26L
sVwidth
p7
L10L
sa(dp8
g6
L116L
sg7
L10L
sa(dp9
g6
L126L
sg7
L10L
sa(dp10
g6
L228L
sg7
L10L
sa(dp11
g6
L605L
sg7
L10L
sa(dp12
g6
L705L
sg7
L10L
sa(dp13
g6
L734L
sg7
L10L
sasVhhints
p14
(lp15
(dp16
g6
L-29L
sg7
L10L
sa(dp17
g6
L-24L
sg7
L10L
sa(dp18
g6
L332L
sg7
L10L
sa(dp19
g6
L401L
sg7
L10L
sa(dp20
g6
L430L
sg7
L10L
sa(dp21
g6
L634L
sg7
L10L
sa(dp22
g6
L661L
sg7
L10L
sa(dp23
g6
L745L
sg7
L10L
sa(dp24
g6
L812L
sg7
L10L
sass."
Colour: ff00
EndChar

StartChar: S
Encoding: 83 83 55
GlifName: S_
Width: 710
VWidth: 0
Flags: HMW
AnchorPoint: "LatinCedilla.mark" 320 0 basechar 0
AnchorPoint: "LatinBelow.mark" 295 0 basechar 0
AnchorPoint: "LatinAbove.mark" 327 150 basechar 0
LayerCount: 2
Fore
SplineSet
47 175 m 1
 118 184 l 1
 118 182 118 181 118 179 c 0
 118 115 170 36 304 36 c 0
 446 36 533 99 553 194 c 0
 555 206 557 217 557 227 c 0
 557 293 507 323 464 336 c 0
 409 352 328 381 273 403 c 0
 218 425 151 469 151 551 c 0
 151 562 152 575 155 588 c 0
 181 710 305 797 465 797 c 0
 627 797 689 692 689 614 c 0
 689 612 689 611 689 609 c 1
 618 600 l 1
 618 601 618 603 618 604 c 0
 618 668 570 744 454 744 c 0
 332 744 245 684 225 591 c 0
 223 582 222 573 222 565 c 0
 222 507 270 478 316 460 c 0
 370 439 448 411 501 395 c 0
 562 376 627 329 627 240 c 0
 627 226 625 212 622 196 c 0
 596 73 472 -17 292 -17 c 0
 111 -17 47 92 47 171 c 0
 47 172 47 174 47 175 c 1
EndSplineSet
PickledDataWithLists: "(dp0
Vcom.fontlab.hintData
p1
(dp2
Vvhints
p3
(lp4
(dp5
Vposition
p6
L60L
sVwidth
p7
L10L
sa(dp8
g6
L68L
sg7
L10L
sa(dp9
g6
L159L
sg7
L10L
sa(dp10
g6
L494L
sg7
L10L
sa(dp11
g6
L555L
sg7
L10L
sa(dp12
g6
L594L
sg7
L10L
sa(dp13
g6
L654L
sg7
L10L
sasVhhints
p14
(lp15
(dp16
g6
L-22L
sg7
L10L
sa(dp17
g6
L46L
sg7
L10L
sa(dp18
g6
L192L
sg7
L10L
sa(dp19
g6
L584L
sg7
L10L
sa(dp20
g6
L744L
sg7
L10L
sa(dp21
g6
L812L
sg7
L10L
sass."
Colour: ff00
EndChar

StartChar: T
Encoding: 84 84 56
GlifName: T_
Width: 620
VWidth: 0
Flags: HMW
AnchorPoint: "LatinCedilla.mark" 260 0 basechar 0
AnchorPoint: "LatinBelow.mark" 250 0 basechar 0
AnchorPoint: "LatinAbove.mark" 282 150 basechar 0
LayerCount: 2
Fore
SplineSet
139 726 m 1
 151 780 l 1
 681 780 l 1
 669 726 l 1
 439 726 l 1
 285 0 l 1
 215 0 l 1
 369 726 l 1
 139 726 l 1
EndSplineSet
PickledDataWithLists: "(dp0
Vcom.fontlab.hintData
p1
(dp2
Vvhints
p3
(lp4
(dp5
Vposition
p6
L25L
sVwidth
p7
L10L
sa(dp8
g6
L301L
sg7
L10L
sa(dp9
g6
L306L
sg7
L10L
sa(dp10
g6
L407L
sg7
L10L
sa(dp11
g6
L674L
sg7
L10L
sasVhhints
p12
(lp13
(dp14
g6
L-19L
sg7
L10L
sa(dp15
g6
L722L
sg7
L10L
sa(dp16
g6
L731L
sg7
L10L
sa(dp17
g6
L790L
sg7
L10L
sa(dp18
g6
L800L
sg7
L10L
sass."
Colour: ff00
EndChar

StartChar: U
Encoding: 85 85 57
GlifName: U_
Width: 770
VWidth: 0
Flags: HMW
AnchorPoint: "LatinOgonek.mark" 420 0 basechar 0
AnchorPoint: "LatinBelow.mark" 325 0 basechar 0
AnchorPoint: "LatinAbove.mark" 357 150 basechar 0
LayerCount: 2
Fore
SplineSet
84 232 m 2
 201 780 l 1
 272 780 l 1
 155 232 l 2
 152 215 150 200 150 185 c 0
 150 90 220 37 333 37 c 0
 463 37 567 108 593 232 c 2
 710 780 l 1
 781 780 l 1
 664 232 l 2
 633 86 496 -17 321 -17 c 0
 168 -17 78 61 78 178 c 0
 78 195 80 213 84 232 c 2
EndSplineSet
PickledDataWithLists: "(dp0
Vcom.fontlab.hintData
p1
(dp2
Vvhints
p3
(lp4
(dp5
Vposition
p6
L96L
sVwidth
p7
L10L
sa(dp8
g6
L107L
sg7
L10L
sa(dp9
g6
L194L
sg7
L10L
sa(dp10
g6
L205L
sg7
L10L
sa(dp11
g6
L603L
sg7
L10L
sa(dp12
g6
L616L
sg7
L10L
sa(dp13
g6
L704L
sg7
L10L
sa(dp14
g6
L714L
sg7
L10L
sasVhhints
p15
(lp16
(dp17
g6
L-24L
sg7
L10L
sa(dp18
g6
L44L
sg7
L10L
sa(dp19
g6
L789L
sg7
L10L
sass."
EndChar

StartChar: V
Encoding: 86 86 58
GlifName: V_
Width: 750
VWidth: 0
Flags: HMW
AnchorPoint: "LatinBelow.mark" 315 0 basechar 0
AnchorPoint: "LatinAbove.mark" 347 150 basechar 0
LayerCount: 2
Fore
SplineSet
138 769 m 1
 140 774 l 1
 224 780 l 1
 333 84 l 1
 738 780 l 1
 820 774 l 1
 818 769 l 1
 346 0 l 1
 284 0 l 1
 138 769 l 1
EndSplineSet
PickledDataWithLists: "(dp0
Vcom.fontlab.hintData
p1
(dp2
Vvhints
p3
(lp4
(dp5
Vposition
p6
L41L
sVwidth
p7
L10L
sa(dp8
g6
L759L
sg7
L10L
sasVhhints
p9
(lp10
(dp11
g6
L-21L
sg7
L10L
sa(dp12
g6
L781L
sg7
L10L
sa(dp13
g6
L794L
sg7
L10L
sass."
EndChar

StartChar: W
Encoding: 87 87 59
GlifName: W_
Width: 1060
VWidth: 0
Flags: HMW
AnchorPoint: "LatinBelow.mark" 470 0 basechar 0
AnchorPoint: "LatinAbove.mark" 502 150 basechar 0
LayerCount: 2
Fore
SplineSet
1123 769 m 1
 728 0 l 1
 665 0 l 1
 610 659 l 1
 275 0 l 1
 212 0 l 1
 143 769 l 1
 144 773 l 1
 224 780 l 1
 268 96 l 1
 602 760 l 1
 662 760 l 1
 712 96 l 1
 1048 780 l 1
 1124 773 l 1
 1123 769 l 1
EndSplineSet
PickledDataWithLists: "(dp0
Vcom.fontlab.hintData
p1
(dp2
Vvhints
p3
(lp4
(dp5
Vposition
p6
L46L
sVwidth
p7
L10L
sa(dp8
g6
L1045L
sg7
L10L
sasVhhints
p9
(lp10
(dp11
g6
L-10L
sg7
L10L
sa(dp12
g6
L762L
sg7
L10L
sa(dp13
g6
L790L
sg7
L10L
sass."
Colour: ff00
EndChar

StartChar: X
Encoding: 88 88 60
GlifName: X_
Width: 740
VWidth: 0
Flags: HMW
AnchorPoint: "LatinBelow.mark" 310 0 basechar 0
AnchorPoint: "LatinAbove.mark" 342 150 basechar 0
LayerCount: 2
Fore
SplineSet
173 768 m 1
 174 773 l 1
 253 780 l 1
 408 459 l 1
 699 780 l 1
 774 773 l 1
 773 768 l 1
 438 415 l 1
 661 5 l 1
 660 0 l 1
 578 0 l 1
 387 361 l 1
 42 0 l 1
 -40 0 l 1
 -39 5 l 1
 358 415 l 1
 173 768 l 1
EndSplineSet
PickledDataWithLists: "(dp0
Vcom.fontlab.hintData
p1
(dp2
Vvhints
p3
(lp4
(dp5
Vposition
p6
L31L
sVwidth
p7
L10L
sa(dp8
g6
L91L
sg7
L10L
sa(dp9
g6
L687L
sg7
L10L
sa(dp10
g6
L734L
sg7
L10L
sasVhhints
p11
(lp12
(dp13
g6
L-9L
sg7
L10L
sa(dp14
g6
L4L
sg7
L10L
sa(dp15
g6
L789L
sg7
L10L
sass."
Colour: ff00
EndChar

StartChar: Y
Encoding: 89 89 61
GlifName: Y_
Width: 670
VWidth: 0
Flags: HMW
AnchorPoint: "LatinBelow.mark" 275 0 basechar 0
AnchorPoint: "LatinAbove.mark" 307 150 basechar 0
LayerCount: 2
Fore
SplineSet
128 769 m 1
 130 774 l 1
 210 780 l 1
 354 373 l 1
 672 780 l 1
 750 774 l 1
 748 769 l 1
 375 304 l 1
 310 0 l 1
 240 0 l 1
 305 304 l 1
 128 769 l 1
EndSplineSet
PickledDataWithLists: "(dp0
Vcom.fontlab.hintData
p1
(dp2
Vvhints
p3
(lp4
(dp5
Vposition
p6
L35L
sVwidth
p7
L10L
sa(dp8
g6
L310L
sg7
L10L
sa(dp9
g6
L408L
sg7
L10L
sa(dp10
g6
L414L
sg7
L10L
sa(dp11
g6
L675L
sg7
L10L
sasVhhints
p12
(lp13
(dp14
g6
L-20L
sg7
L10L
sa(dp15
g6
L789L
sg7
L10L
sa(dp16
g6
L800L
sg7
L10L
sass."
EndChar

StartChar: Z
Encoding: 90 90 62
GlifName: Z_
Width: 670
VWidth: 0
Flags: HMW
AnchorPoint: "LatinBelow.mark" 275 0 basechar 0
AnchorPoint: "LatinAbove.mark" 307 150 basechar 0
LayerCount: 2
Fore
SplineSet
-1 41 m 1
 609 724 l 1
 166 724 l 1
 178 780 l 1
 710 780 l 1
 707 739 l 1
 97 56 l 1
 572 56 l 1
 560 0 l 1
 -5 0 l 1
 -1 41 l 1
EndSplineSet
PickledDataWithLists: "(dp0
Vcom.fontlab.hintData
p1
(dp2
Vvhints
p3
(lp4
(dp5
Vposition
p6
L46L
sVwidth
p7
L10L
sa(dp8
g6
L66L
sg7
L10L
sa(dp9
g6
L679L
sg7
L10L
sa(dp10
g6
L699L
sg7
L10L
sasVhhints
p11
(lp12
(dp13
g6
L-13L
sg7
L10L
sa(dp14
g6
L64L
sg7
L10L
sa(dp15
g6
L75L
sg7
L10L
sa(dp16
g6
L709L
sg7
L10L
sa(dp17
g6
L779L
sg7
L10L
sa(dp18
g6
L785L
sg7
L10L
sa(dp19
g6
L790L
sg7
L10L
sass."
Colour: ff00
EndChar

StartChar: bracketleft
Encoding: 91 91 63
GlifName: bracketleft
Width: 435
VWidth: 0
Flags: HMW
LayerCount: 2
Fore
SplineSet
49 -120 m 1
 266 900 l 1
 461 900 l 1
 452 856 l 1
 315 856 l 1
 117 -76 l 1
 252 -76 l 1
 242 -120 l 1
 49 -120 l 1
EndSplineSet
PickledDataWithLists: "(dp0
Vcom.fontlab.hintData
p1
(dp2
Vvhints
p3
(lp4
(dp5
Vposition
p6
L71L
sVwidth
p7
L10L
sa(dp8
g6
L92L
sg7
L10L
sa(dp9
g6
L161L
sg7
L10L
sa(dp10
g6
L289L
sg7
L10L
sasVhhints
p11
(lp12
(dp13
g6
L-91L
sg7
L10L
sa(dp14
g6
L-44L
sg7
L10L
sa(dp15
g6
L830L
sg7
L10L
sa(dp16
g6
L877L
sg7
L10L
sass."
EndChar

StartChar: backslash
Encoding: 92 92 64
GlifName: backslash
Width: 510
VWidth: 0
Flags: HMW
LayerCount: 2
Fore
SplineSet
390 0 m 1
 330 0 l 1
 165 776 l 1
 166 780 l 1
 227 780 l 1
 391 4 l 1
 390 0 l 1
EndSplineSet
PickledDataWithLists: "(dp0
Vcom.fontlab.hintData
p1
(dp2
Vvhints
p3
(lp4
(dp5
Vposition
p6
L40L
sVwidth
p7
L10L
sa(dp8
g6
L430L
sg7
L10L
sasVhhints
p9
(lp10
(dp11
g6
L-29L
sg7
L10L
sa(dp12
g6
L819L
sg7
L10L
sass."
EndChar

StartChar: bracketright
Encoding: 93 93 65
GlifName: bracketright
Width: 435
VWidth: 0
Flags: HMW
LayerCount: 2
Fore
SplineSet
431 900 m 1
 214 -120 l 1
 19 -120 l 1
 29 -76 l 1
 166 -76 l 1
 364 856 l 1
 229 856 l 1
 238 900 l 1
 431 900 l 1
EndSplineSet
PickledDataWithLists: "(dp0
Vcom.fontlab.hintData
p1
(dp2
Vvhints
p3
(lp4
(dp5
Vposition
p6
L61L
sVwidth
p7
L10L
sa(dp8
g6
L189L
sg7
L10L
sa(dp9
g6
L258L
sg7
L10L
sa(dp10
g6
L279L
sg7
L10L
sasVhhints
p11
(lp12
(dp13
g6
L-90L
sg7
L10L
sa(dp14
g6
L-42L
sg7
L10L
sa(dp15
g6
L829L
sg7
L10L
sa(dp16
g6
L879L
sg7
L10L
sass."
EndChar

StartChar: asciicircum
Encoding: 94 94 66
GlifName: asciicircum
Width: 630
VWidth: 0
Flags: HMW
LayerCount: 2
Fore
SplineSet
109 582 m 1
 426 877 l 1
 456 877 l 1
 649 582 l 1
 608 557 l 1
 426 805 l 1
 138 557 l 1
 109 582 l 1
EndSplineSet
PickledDataWithLists: "(dp0
Vcom.fontlab.hintData
p1
(dp2
Vvhints
p3
(lp4
(dp5
Vposition
p6
L23L
sVwidth
p7
L10L
sasVhhints
p8
(lp9
(dp10
g6
L532L
sg7
L10L
sa(dp11
g6
L839L
sg7
L10L
sass."
EndChar

StartChar: underscore
Encoding: 95 95 67
GlifName: underscore
Width: 600
VWidth: 0
Flags: HMW
LayerCount: 2
Fore
SplineSet
-60 0 m 25
 540 0 l 25
 529 -52 l 25
 -71 -52 l 25
 -60 0 l 25
EndSplineSet
PickledDataWithLists: "(dp0
Vcom.fontlab.hintData
p1
(dp2
Vvhints
p3
(lp4
(dp5
Vposition
p6
L30L
sVwidth
p7
L10L
sa(dp8
g6
L559L
sg7
L10L
sasVhhints
p9
(lp10
(dp11
g6
L-69L
sg7
L10L
sa(dp12
g6
L-6L
sg7
L10L
sa(dp13
g6
L1L
sg7
L10L
sass."
EndChar

StartChar: grave
Encoding: 96 96 68
GlifName: grave
Width: 390
VWidth: 0
Flags: HMW
LayerCount: 2
Fore
SplineSet
133 837 m 1
 193 875 l 1
 409 582 l 1
 368 557 l 1
 133 837 l 1
EndSplineSet
PickledDataWithLists: "(dp0
Vcom.fontlab.hintData
p1
(dp2
Vvhints
p3
(lp4
(dp5
Vposition
p6
L20L
sVwidth
p7
L10L
sasVhhints
p8
(lp9
(dp10
g6
L541L
sg7
L10L
sa(dp11
g6
L838L
sg7
L10L
sass."
EndChar

StartChar: a
Encoding: 97 97 69
GlifName: a
Width: 625
VWidth: 0
Flags: HMW
AnchorPoint: "LatinOgonek.mark" 455 0 basechar 0
AnchorPoint: "LatinBelow.mark" 270 0 basechar 0
AnchorPoint: "LatinAbove.mark" 250 0 basechar 0
LayerCount: 2
Fore
SplineSet
46 171 m 0
 63 249 139 316 257 316 c 0
 338 316 413 309 464 302 c 1
 490 425 l 2
 493 438 494 450 494 461 c 0
 494 531 442 567 361 567 c 0
 269 567 203 513 174 433 c 1
 108 438 l 1
 141 531 233 617 371 617 c 0
 490 617 560 558 560 467 c 0
 560 454 558 440 555 425 c 2
 493 132 l 2
 490 117 488 103 488 92 c 0
 488 55 506 38 547 33 c 1
 520 -12 l 1
 477 -7 431 14 431 81 c 0
 431 88 431 95 432 103 c 1
 385 43 314 -12 214 -12 c 0
 107 -12 41 39 41 128 c 0
 41 142 43 156 46 171 c 0
458 259 m 1
 413 265 341 275 251 275 c 0
 182 275 125 236 111 171 c 0
 108 158 107 147 107 136 c 0
 107 66 160 31 230 31 c 0
 343 31 412 126 446 204 c 1
 458 259 l 1
EndSplineSet
PickledDataWithLists: "(dp0
Vcom.fontlab.hintData
p1
(dp2
Vvhints
p3
(lp4
(dp5
Vposition
p6
L60L
sVwidth
p7
L10L
sa(dp8
g6
L149L
sg7
L10L
sa(dp9
g6
L441L
sg7
L10L
sa(dp10
g6
L529L
sg7
L10L
sa(dp11
g6
L649L
sg7
L10L
sasVhhints
p12
(lp13
(dp14
g6
L-21L
sg7
L10L
sa(dp15
g6
L-11L
sg7
L10L
sa(dp16
g6
L41L
sg7
L10L
sa(dp17
g6
L362L
sg7
L10L
sa(dp18
g6
L432L
sg7
L10L
sa(dp19
g6
L549L
sg7
L10L
sa(dp20
g6
L611L
sg7
L10L
sass."
Substitution2: "Latin.ss20 subtable" uni0251
Substitution2: "Latin.ss19 subtable" uni0251
Colour: ff00
EndChar

StartChar: b
Encoding: 98 98 70
GlifName: b
Width: 675
VWidth: 0
Flags: HMW
AnchorPoint: "LatinBelow.mark" 300 0 basechar 0
AnchorPoint: "LatinAbove.mark" 113 180 basechar 0
LayerCount: 2
Fore
SplineSet
612 313 m 2
 606 287 l 2
 575 142 479 -12 294 -12 c 0
 196 -12 149 50 128 118 c 1
 97 0 l 1
 40 0 l 1
 212 810 l 1
 277 810 l 1
 209 489 l 1
 260 554 333 612 427 612 c 0
 572 612 622 517 622 406 c 0
 622 376 619 344 612 313 c 2
187 385 m 1
 151 215 l 1
 154 134 190 38 298 38 c 0
 426 38 508 141 539 287 c 2
 545 313 l 2
 552 344 555 374 555 401 c 0
 555 499 509 562 409 562 c 0
 301 562 224 466 187 385 c 1
EndSplineSet
PickledDataWithLists: "(dp0
Vcom.fontlab.hintData
p1
(dp2
Vvhints
p3
(lp4
(dp5
Vposition
p6
L81L
sVwidth
p7
L10L
sa(dp8
g6
L91L
sg7
L10L
sa(dp9
g6
L179L
sg7
L10L
sa(dp10
g6
L211L
sg7
L10L
sa(dp11
g6
L504L
sg7
L10L
sa(dp12
g6
L593L
sg7
L10L
sasVhhints
p13
(lp14
(dp15
g6
L-21L
sg7
L10L
sa(dp16
g6
L41L
sg7
L10L
sa(dp17
g6
L524L
sg7
L10L
sa(dp18
g6
L546L
sg7
L10L
sa(dp19
g6
L607L
sg7
L10L
sa(dp20
g6
L836L
sg7
L10L
sass."
Colour: ff00
EndChar

StartChar: c
Encoding: 99 99 71
GlifName: c
Width: 605
VWidth: 0
Flags: HMW
AnchorPoint: "LatinCedilla.mark" 270 0 basechar 0
AnchorPoint: "LatinBelow.mark" 270 0 basechar 0
AnchorPoint: "LatinAbove.mark" 270 0 basechar 0
LayerCount: 2
Fore
SplineSet
71 287 m 2
 77 313 l 2
 108 460 202 617 402 617 c 0
 545 617 592 526 592 463 c 0
 592 461 592 459 592 457 c 1
 524 451 l 1
 524 452 524 452 524 453 c 0
 524 502 488 567 392 567 c 0
 259 567 176 459 145 313 c 2
 139 287 l 2
 132 255 129 226 129 198 c 0
 129 99 174 33 278 33 c 0
 375 33 441 100 460 149 c 1
 525 143 l 1
 502 80 414 -17 267 -17 c 0
 111 -17 60 79 60 191 c 0
 60 222 64 255 71 287 c 2
EndSplineSet
PickledDataWithLists: "(dp0
Vcom.fontlab.hintData
p1
(dp2
Vvhints
p3
(lp4
(dp5
Vposition
p6
L58L
sVwidth
p7
L10L
sa(dp8
g6
L152L
sg7
L10L
sa(dp9
g6
L433L
sg7
L10L
sa(dp10
g6
L527L
sg7
L10L
sa(dp11
g6
L552L
sg7
L10L
sasVhhints
p12
(lp13
(dp14
g6
L-22L
sg7
L10L
sa(dp15
g6
L44L
sg7
L10L
sa(dp16
g6
L133L
sg7
L10L
sa(dp17
g6
L433L
sg7
L10L
sa(dp18
g6
L548L
sg7
L10L
sa(dp19
g6
L614L
sg7
L10L
sass."
Colour: ff00
EndChar

StartChar: d
Encoding: 100 100 72
GlifName: d
Width: 680
VWidth: 0
Flags: HMW
AnchorPoint: "LatinBelow.mark" 300 0 basechar 0
AnchorPoint: "LatinAbove.mark" 503 180 basechar 0
LayerCount: 2
Fore
SplineSet
71 287 m 2
 77 313 l 2
 108 458 203 612 388 612 c 0
 484 612 531 552 553 486 c 1
 622 810 l 1
 687 810 l 1
 543 132 l 2
 540 117 538 103 538 92 c 0
 538 55 556 38 597 33 c 1
 570 -12 l 1
 527 -7 480 14 480 81 c 0
 480 93 482 106 485 121 c 1
 481 120 l 1
 430 51 354 -12 255 -12 c 0
 110 -12 60 83 60 193 c 0
 60 224 64 255 71 287 c 2
532 385 m 1
 529 466 492 562 384 562 c 0
 256 562 175 459 144 313 c 2
 138 287 l 2
 131 255 128 225 128 198 c 0
 128 101 173 38 273 38 c 0
 381 38 459 134 496 215 c 1
 532 385 l 1
EndSplineSet
PickledDataWithLists: "(dp0
Vcom.fontlab.hintData
p1
(dp2
Vvhints
p3
(lp4
(dp5
Vposition
p6
L61L
sVwidth
p7
L10L
sa(dp8
g6
L149L
sg7
L10L
sa(dp9
g6
L476L
sg7
L10L
sa(dp10
g6
L564L
sg7
L10L
sa(dp11
g6
L679L
sg7
L10L
sasVhhints
p12
(lp13
(dp14
g6
L-21L
sg7
L10L
sa(dp15
g6
L41L
sg7
L10L
sa(dp16
g6
L544L
sg7
L10L
sa(dp17
g6
L606L
sg7
L10L
sa(dp18
g6
L836L
sg7
L10L
sass."
Colour: ff00
EndChar

StartChar: e
Encoding: 101 101 73
GlifName: e
Width: 640
VWidth: 0
Flags: HMW
AnchorPoint: "LatinOgonek.mark" 350 0 basechar 0
AnchorPoint: "LatinBelow.mark" 270 0 basechar 0
AnchorPoint: "LatinAbove.mark" 270 0 basechar 0
LayerCount: 2
Fore
SplineSet
71 286 m 2
 77 314 l 2
 108 460 203 617 398 617 c 0
 531 617 594 536 594 429 c 0
 594 408 592 386 587 364 c 0
 582 341 575 316 565 293 c 1
 137 293 l 1
 136 286 l 2
 129 254 125 223 125 195 c 0
 125 97 170 32 274 32 c 0
 374 32 438 99 457 148 c 1
 521 142 l 1
 496 78 408 -17 263 -17 c 0
 110 -17 60 78 60 189 c 0
 60 221 64 254 71 286 c 2
148 337 m 1
 518 337 l 1
 521 346 522 355 524 364 c 0
 529 386 531 406 531 425 c 0
 531 516 478 569 388 569 c 0
 262 569 182 470 148 337 c 1
EndSplineSet
PickledDataWithLists: "(dp0
Vcom.fontlab.hintData
p1
(dp2
Vvhints
p3
(lp4
(dp5
Vposition
p6
L45L
sVwidth
p7
L10L
sa(dp8
g6
L71L
sg7
L10L
sa(dp9
g6
L159L
sg7
L10L
sa(dp10
g6
L471L
sg7
L10L
sa(dp11
g6
L559L
sg7
L10L
sa(dp12
g6
L570L
sg7
L10L
sasVhhints
p13
(lp14
(dp15
g6
L-20L
sg7
L10L
sa(dp16
g6
L42L
sg7
L10L
sa(dp17
g6
L131L
sg7
L10L
sa(dp18
g6
L552L
sg7
L10L
sa(dp19
g6
L613L
sg7
L10L
sass."
Colour: ff00
EndChar

StartChar: f
Encoding: 102 102 74
GlifName: f
Width: 400
VWidth: 0
Flags: HMW
AnchorPoint: "LatinBelow.mark" 120 0 basechar 0
AnchorPoint: "LatinAbove.mark" 248 180 basechar 0
LayerCount: 2
Fore
SplineSet
98 556 m 1
 108 600 l 1
 208 600 l 1
 226 688 l 2
 239 748 292 827 399 827 c 0
 474 827 510 795 522 785 c 1
 483 748 l 1
 472 757 446 779 393 779 c 0
 337 779 301 737 291 688 c 2
 273 600 l 1
 438 600 l 1
 428 556 l 1
 265 556 l 1
 147 0 l 1
 80 0 l 1
 198 556 l 1
 98 556 l 1
EndSplineSet
PickledDataWithLists: "(dp0
Vcom.fontlab.hintData
p1
(dp2
Vvhints
p3
(lp4
(dp5
Vposition
p6
L20L
sVwidth
p7
L10L
sa(dp8
g6
L132L
sg7
L10L
sa(dp9
g6
L166L
sg7
L10L
sa(dp10
g6
L219L
sg7
L9L
sa(dp11
g6
L255L
sg7
L10L
sa(dp12
g6
L399L
sg7
L10L
sa(dp13
g6
L469L
sg7
L10L
sasVhhints
p14
(lp15
(dp16
g6
L-20L
sg7
L10L
sa(dp17
g6
L521L
sg7
L10L
sa(dp18
g6
L586L
sg7
L10L
sa(dp19
g6
L591L
sg7
L10L
sa(dp20
g6
L759L
sg7
L10L
sa(dp21
g6
L803L
sg7
L10L
sa(dp22
g6
L864L
sg7
L10L
sass."
Colour: ff00
EndChar

StartChar: h
Encoding: 104 104 76
GlifName: h
Width: 665
VWidth: 0
Flags: HMW
AnchorPoint: "LatinBelow.mark" 300 0 basechar 0
AnchorPoint: "LatinAbove.mark" 113 180 basechar 0
LayerCount: 2
Fore
SplineSet
40 0 m 1
 212 810 l 1
 277 810 l 1
 193 414 l 1
 254 512 353 612 478 612 c 0
 574 612 617 557 617 479 c 0
 617 462 615 444 611 426 c 2
 520 0 l 1
 453 0 l 1
 543 424 l 2
 547 440 548 455 548 468 c 0
 548 529 511 558 452 558 c 0
 330 558 214 418 172 305 c 1
 107 0 l 1
 40 0 l 1
EndSplineSet
PickledDataWithLists: "(dp0
Vcom.fontlab.hintData
p1
(dp2
Vvhints
p3
(lp4
(dp5
Vposition
p6
L65L
sVwidth
p7
L10L
sa(dp8
g6
L106L
sg7
L10L
sa(dp9
g6
L187L
sg7
L10L
sa(dp10
g6
L491L
sg7
L10L
sa(dp11
g6
L496L
sg7
L10L
sa(dp12
g6
L579L
sg7
L10L
sa(dp13
g6
L584L
sg7
L10L
sasVhhints
p14
(lp15
(dp16
g6
L-14L
sg7
L10L
sa(dp17
g6
L549L
sg7
L10L
sa(dp18
g6
L611L
sg7
L10L
sa(dp19
g6
L836L
sg7
L10L
sass."
Colour: ff00
EndChar

StartChar: i
Encoding: 105 105 77
GlifName: i
Width: 300
VWidth: 0
GlyphClass: 3
Flags: HMW
AnchorPoint: "LatinOgonek.mark" 95 0 basechar 0
AnchorPoint: "LatinBelow.mark" 90 0 basechar 0
AnchorPoint: "LatinAbove.mark" 128 180 basechar 0
LayerCount: 2
Fore
SplineSet
56 0 m 1
 184 600 l 1
 252 600 l 1
 124 0 l 1
 56 0 l 1
269 841 m 0
 301 841 323 823 323 794 c 0
 323 790 322 785 321 780 c 0
 313 743 280 719 243 719 c 0
 211 719 189 737 189 766 c 0
 189 770 190 775 191 780 c 0
 199 817 232 841 269 841 c 0
EndSplineSet
PickledDataWithLists: "(dp0
Vcom.fontlab.hintData
p1
(dp2
Vvhints
p3
(lp4
(dp5
Vposition
p6
L86L
sVwidth
p7
L10L
sa(dp8
g6
L116L
sg7
L10L
sa(dp9
g6
L204L
sg7
L10L
sa(dp10
g6
L234L
sg7
L10L
sa(dp11
g6
L244L
sg7
L10L
sasVhhints
p12
(lp13
(dp14
g6
L-21L
sg7
L10L
sa(dp15
g6
L595L
sg7
L10L
sa(dp16
g6
L725L
sg7
L10L
sa(dp17
g6
L826L
sg7
L20L
sa(dp18
g6
L852L
sg7
L10L
sass."
Substitution2: "Latin.ij.dotless subtable" dotlessi
Ligature2: "Latin.ij subtable" dotlessi uni0307
EndChar

StartChar: j
Encoding: 106 106 78
GlifName: j
Width: 310
VWidth: 0
GlyphClass: 3
Flags: HMW
AnchorPoint: "LatinBelow.mark" 52 -180 basechar 0
AnchorPoint: "LatinAbove.mark" 128 180 basechar 0
LayerCount: 2
Fore
SplineSet
-93 -178 m 1
 -17 -151 44 -109 62 -24 c 2
 195 600 l 1
 261 600 l 1
 127 -27 l 2
 105 -132 16 -191 -81 -222 c 1
 -93 -178 l 1
279 841 m 0
 311 841 333 823 333 794 c 0
 333 790 332 785 331 780 c 0
 323 743 290 719 253 719 c 0
 221 719 199 737 199 766 c 0
 199 770 200 775 201 780 c 0
 209 817 242 841 279 841 c 0
EndSplineSet
PickledDataWithLists: "(dp0
Vcom.fontlab.hintData
p1
(dp2
Vvhints
p3
(lp4
(dp5
Vposition
p6
L31L
sVwidth
p7
L10L
sa(dp8
g6
L86L
sg7
L10L
sa(dp9
g6
L126L
sg7
L10L
sa(dp10
g6
L146L
sg7
L10L
sa(dp11
g6
L234L
sg7
L10L
sa(dp12
g6
L244L
sg7
L10L
sasVhhints
p13
(lp14
(dp15
g6
L-246L
sg7
L10L
sa(dp16
g6
L596L
sg7
L10L
sa(dp17
g6
L725L
sg7
L10L
sa(dp18
g6
L826L
sg7
L20L
sa(dp19
g6
L852L
sg7
L10L
sass."
Substitution2: "Latin.ij.dotless subtable" uni0237
Ligature2: "Latin.ij subtable" uni0237 uni200D uni0307
Ligature2: "Latin.ij subtable" uni0237 uni0307
Ligature2: "Latin.ij subtable" dotlessi uni200D uni0307
EndChar

StartChar: k
Encoding: 107 107 79
GlifName: k
Width: 605
VWidth: 0
Flags: HMW
AnchorPoint: "LatinBelow.mark" 300 0 basechar 0
AnchorPoint: "LatinAbove.mark" 113 180 basechar 0
LayerCount: 2
Fore
SplineSet
50 0 m 1
 222 810 l 1
 286 810 l 1
 174 280 l 1
 541 600 l 1
 611 595 l 1
 611 592 l 1
 322 347 l 1
 526 3 l 1
 525 0 l 1
 448 0 l 1
 271 304 l 1
 158 208 l 1
 114 0 l 1
 50 0 l 1
EndSplineSet
PickledDataWithLists: "(dp0
Vcom.fontlab.hintData
p1
(dp2
Vvhints
p3
(lp4
(dp5
Vposition
p6
L75L
sVwidth
p7
L10L
sa(dp8
g6
L105L
sg7
L10L
sa(dp9
g6
L194L
sg7
L10L
sa(dp10
g6
L539L
sg7
L10L
sa(dp11
g6
L580L
sg7
L10L
sasVhhints
p12
(lp13
(dp14
g6
L-11L
sg7
L10L
sa(dp15
g6
L596L
sg7
L10L
sa(dp16
g6
L836L
sg7
L10L
sass."
Colour: ff00
EndChar

StartChar: l
Encoding: 108 108 80
GlifName: l
Width: 315
VWidth: 0
Flags: HMW
AnchorPoint: "LatinBelow.mark" 130 0 basechar 0
AnchorPoint: "LatinAbove.mark" 118 180 basechar 0
LayerCount: 2
Fore
SplineSet
75 117 m 2
 222 810 l 1
 289 810 l 1
 143 122 l 2
 141 114 140 107 140 100 c 0
 140 54 182 39 242 34 c 1
 218 -12 l 1
 151 -7 72 12 72 89 c 0
 72 98 73 107 75 117 c 2
EndSplineSet
PickledDataWithLists: "(dp0
Vcom.fontlab.hintData
p1
(dp2
Vvhints
p3
(lp4
(dp5
Vposition
p6
L106L
sVwidth
p7
L10L
sa(dp8
g6
L111L
sg7
L10L
sa(dp9
g6
L194L
sg7
L10L
sa(dp10
g6
L199L
sg7
L10L
sa(dp11
g6
L315L
sg7
L10L
sasVhhints
p12
(lp13
(dp14
g6
L-23L
sg7
L10L
sa(dp15
g6
L830L
sg7
L10L
sass."
EndChar

StartChar: m
Encoding: 109 109 81
GlifName: m
Width: 945
VWidth: 0
Flags: HMW
AnchorPoint: "LatinBelow.mark" 420 0 basechar 0
AnchorPoint: "LatinAbove.mark" 420 0 basechar 0
LayerCount: 2
Fore
SplineSet
157 597 m 1
 218 603 l 1
 199 447 l 1
 247 528 320 604 421 604 c 0
 508 604 549 551 549 477 c 0
 549 468 548 459 547 449 c 1
 595 530 667 604 768 604 c 0
 856 604 896 551 896 477 c 0
 896 461 894 443 890 425 c 2
 800 0 l 1
 733 0 l 1
 823 423 l 2
 826 439 828 453 828 466 c 0
 828 524 794 551 742 551 c 0
 637 551 556 425 521 322 c 1
 453 0 l 1
 387 0 l 1
 477 423 l 2
 480 439 482 453 482 466 c 0
 482 525 448 551 395 551 c 0
 290 551 210 425 175 322 c 1
 107 0 l 1
 40 0 l 1
 129 420 l 1
 157 597 l 1
EndSplineSet
PickledDataWithLists: "(dp0
Vcom.fontlab.hintData
p1
(dp2
Vvhints
p3
(lp4
(dp5
Vposition
p6
L76L
sVwidth
p7
L10L
sa(dp8
g6
L96L
sg7
L10L
sa(dp9
g6
L167L
sg7
L10L
sa(dp10
g6
L436L
sg7
L10L
sa(dp11
g6
L441L
sg7
L10L
sa(dp12
g6
L776L
sg7
L10L
sa(dp13
g6
L781L
sg7
L10L
sa(dp14
g6
L864L
sg7
L10L
sa(dp15
g6
L869L
sg7
L10L
sasVhhints
p16
(lp17
(dp18
g6
L-19L
sg7
L10L
sa(dp19
g6
L-10L
sg7
L10L
sa(dp20
g6
L549L
sg7
L10L
sa(dp21
g6
L606L
sg7
L10L
sa(dp22
g6
L611L
sg7
L10L
sass."
Colour: ff00
EndChar

StartChar: n
Encoding: 110 110 82
GlifName: n
Width: 655
VWidth: 0
Flags: HMW
AnchorPoint: "LatinBelow.mark" 300 0 basechar 0
AnchorPoint: "LatinAbove.mark" 270 0 basechar 0
LayerCount: 2
Fore
SplineSet
40 0 m 1
 129 420 l 1
 157 597 l 1
 218 603 l 1
 196 421 l 1
 256 517 353 612 472 612 c 0
 565 612 607 556 607 479 c 0
 607 462 605 445 601 426 c 2
 510 0 l 1
 443 0 l 1
 533 424 l 2
 537 440 538 455 538 468 c 0
 538 529 502 558 446 558 c 0
 327 558 213 418 172 305 c 1
 107 0 l 1
 40 0 l 1
EndSplineSet
PickledDataWithLists: "(dp0
Vcom.fontlab.hintData
p1
(dp2
Vvhints
p3
(lp4
(dp5
Vposition
p6
L55L
sVwidth
p7
L10L
sa(dp8
g6
L96L
sg7
L10L
sa(dp9
g6
L481L
sg7
L10L
sa(dp10
g6
L486L
sg7
L10L
sa(dp11
g6
L569L
sg7
L10L
sa(dp12
g6
L574L
sg7
L10L
sasVhhints
p13
(lp14
(dp15
g6
L-15L
sg7
L10L
sa(dp16
g6
L-10L
sg7
L10L
sa(dp17
g6
L549L
sg7
L10L
sa(dp18
g6
L606L
sg7
L10L
sa(dp19
g6
L611L
sg7
L10L
sass."
Substitution2: "Latin.sups subtable" n.sups
Substitution2: "Latin.sups subtable" n.sups
Colour: ff00
EndChar

StartChar: o
Encoding: 111 111 83
GlifName: o
Width: 660
VWidth: 0
Flags: HMW
AnchorPoint: "LatinOgonek.mark" 340 0 basechar 0
AnchorPoint: "LatinBelow.mark" 270 0 basechar 0
AnchorPoint: "LatinAbove.mark" 270 0 basechar 0
LayerCount: 2
Fore
SplineSet
71 286 m 2
 77 314 l 2
 108 460 201 617 401 617 c 0
 557 617 608 521 608 410 c 0
 608 379 604 346 597 314 c 2
 591 286 l 2
 560 140 466 -17 266 -17 c 0
 110 -17 60 78 60 189 c 0
 60 221 64 254 71 286 c 2
277 33 m 0
 411 33 493 140 524 286 c 2
 530 314 l 2
 537 346 540 376 540 404 c 0
 540 502 496 567 391 567 c 0
 257 567 175 460 144 314 c 2
 138 286 l 2
 131 254 128 224 128 196 c 0
 128 98 172 33 277 33 c 0
EndSplineSet
PickledDataWithLists: "(dp0
Vcom.fontlab.hintData
p1
(dp2
Vvhints
p3
(lp4
(dp5
Vposition
p6
L61L
sVwidth
p7
L10L
sa(dp8
g6
L149L
sg7
L10L
sa(dp9
g6
L441L
sg7
L10L
sa(dp10
g6
L506L
sg7
L10L
sa(dp11
g6
L594L
sg7
L10L
sasVhhints
p12
(lp13
(dp14
g6
L-21L
sg7
L10L
sa(dp15
g6
L42L
sg7
L9L
sa(dp16
g6
L552L
sg7
L10L
sa(dp17
g6
L614L
sg7
L10L
sass."
Colour: ff00
EndChar

StartChar: p
Encoding: 112 112 84
GlifName: p
Width: 675
VWidth: 0
Flags: HMW
AnchorPoint: "LatinBelow.mark" 52 -180 basechar 0
AnchorPoint: "LatinAbove.mark" 270 0 basechar 0
LayerCount: 2
Fore
SplineSet
612 313 m 2
 606 287 l 2
 575 142 479 -12 294 -12 c 0
 200 -12 153 46 131 111 c 1
 62 -210 l 1
 -5 -210 l 1
 129 420 l 1
 157 597 l 1
 218 603 l 1
 203 482 l 1
 253 550 330 612 427 612 c 0
 572 612 622 517 622 406 c 0
 622 376 619 344 612 313 c 2
151 207 m 1
 156 127 193 38 298 38 c 0
 426 38 508 141 539 287 c 2
 545 313 l 2
 552 344 555 374 555 401 c 0
 555 499 509 562 409 562 c 0
 304 562 230 473 191 393 c 1
 151 207 l 1
EndSplineSet
PickledDataWithLists: "(dp0
Vcom.fontlab.hintData
p1
(dp2
Vvhints
p3
(lp4
(dp5
Vposition
p6
L41L
sVwidth
p7
L10L
sa(dp8
g6
L101L
sg7
L10L
sa(dp9
g6
L108L
sg7
L10L
sa(dp10
g6
L193L
sg7
L10L
sa(dp11
g6
L523L
sg7
L10L
sa(dp12
g6
L612L
sg7
L10L
sasVhhints
p13
(lp14
(dp15
g6
L-246L
sg7
L10L
sa(dp16
g6
L-16L
sg7
L10L
sa(dp17
g6
L46L
sg7
L10L
sa(dp18
g6
L549L
sg7
L10L
sa(dp19
g6
L610L
sg7
L10L
sass."
Colour: ff00
EndChar

StartChar: q
Encoding: 113 113 85
GlifName: q
Width: 675
VWidth: 0
Flags: HMW
AnchorPoint: "LatinBelow.mark" 424 -240 basechar 0
AnchorPoint: "LatinAbove.mark" 300 0 basechar 0
LayerCount: 2
Fore
SplineSet
71 287 m 2
 77 313 l 2
 108 458 203 612 388 612 c 0
 486 612 533 550 554 482 c 1
 586 600 l 1
 643 600 l 1
 470 -210 l 1
 405 -210 l 1
 474 111 l 1
 423 46 349 -12 255 -12 c 0
 110 -12 60 83 60 193 c 0
 60 224 64 255 71 287 c 2
496 215 m 1
 532 385 l 1
 529 466 492 562 384 562 c 0
 256 562 175 459 144 313 c 2
 138 287 l 2
 131 255 128 225 128 198 c 0
 128 101 173 38 273 38 c 0
 381 38 459 134 496 215 c 1
EndSplineSet
PickledDataWithLists: "(dp0
Vcom.fontlab.hintData
p1
(dp2
Vvhints
p3
(lp4
(dp5
Vposition
p6
L59L
sVwidth
p7
L10L
sa(dp8
g6
L149L
sg7
L10L
sa(dp9
g6
L444L
sg7
L10L
sa(dp10
g6
L459L
sg7
L10L
sa(dp11
g6
L471L
sg7
L10L
sa(dp12
g6
L547L
sg7
L10L
sa(dp13
g6
L559L
sg7
L10L
sa(dp14
g6
L649L
sg7
L10L
sasVhhints
p15
(lp16
(dp17
g6
L-261L
sg7
L10L
sa(dp18
g6
L-184L
sg7
L10L
sa(dp19
g6
L-17L
sg7
L10L
sa(dp20
g6
L44L
sg7
L10L
sa(dp21
g6
L66L
sg7
L10L
sa(dp22
g6
L549L
sg7
L10L
sa(dp23
g6
L611L
sg7
L10L
sass."
Colour: ff00
EndChar

StartChar: r
Encoding: 114 114 86
GlifName: r
Width: 435
VWidth: 0
Flags: HMW
AnchorPoint: "LatinBelow.mark" 110 0 basechar 0
AnchorPoint: "LatinAbove.mark" 180 0 basechar 0
LayerCount: 2
Fore
SplineSet
152 596 m 1
 210 603 l 1
 209 442 l 1
 250 528 318 612 420 612 c 0
 447 612 470 607 487 598 c 1
 449 542 l 1
 435 549 419 553 398 553 c 0
 299 553 232 439 199 338 c 1
 127 0 l 1
 60 0 l 1
 149 420 l 1
 152 596 l 1
EndSplineSet
PickledDataWithLists: "(dp0
Vcom.fontlab.hintData
p1
(dp2
Vvhints
p3
(lp4
(dp5
Vposition
p6
L20L
sVwidth
p7
L10L
sa(dp8
g6
L171L
sg7
L10L
sa(dp9
g6
L261L
sg7
L10L
sa(dp10
g6
L479L
sg7
L10L
sasVhhints
p11
(lp12
(dp13
g6
L-13L
sg7
L10L
sa(dp14
g6
L524L
sg7
L10L
sa(dp15
g6
L549L
sg7
L10L
sa(dp16
g6
L596L
sg7
L10L
sa(dp17
g6
L611L
sg7
L10L
sass."
Colour: ff00
EndChar

StartChar: s
Encoding: 115 115 87
GlifName: s
Width: 570
VWidth: 0
Flags: HMW
AnchorPoint: "LatinCedilla.mark" 250 0 basechar 0
AnchorPoint: "LatinBelow.mark" 225 0 basechar 0
AnchorPoint: "LatinAbove.mark" 225 0 basechar 0
LayerCount: 2
Fore
SplineSet
28 134 m 1
 95 142 l 1
 95 140 95 139 95 137 c 0
 95 88 135 32 234 32 c 0
 337 32 403 78 418 149 c 0
 420 157 421 165 421 172 c 0
 421 221 382 246 351 256 c 0
 309 270 248 291 206 307 c 0
 162 324 109 357 109 423 c 0
 109 432 110 442 112 452 c 0
 132 547 229 617 356 617 c 0
 486 617 534 535 534 473 c 0
 534 472 534 470 534 469 c 1
 467 461 l 1
 467 462 467 462 467 463 c 0
 467 512 435 568 346 568 c 0
 256 568 192 524 177 454 c 0
 176 447 175 441 175 435 c 0
 175 391 211 367 244 356 c 0
 285 341 348 320 387 307 c 0
 435 291 486 257 486 187 c 0
 486 176 485 164 482 151 c 0
 461 54 361 -17 221 -17 c 0
 78 -17 28 67 28 130 c 0
 28 131 28 133 28 134 c 1
EndSplineSet
PickledDataWithLists: "(dp0
Vcom.fontlab.hintData
p1
(dp2
Vvhints
p3
(lp4
(dp5
Vposition
p6
L60L
sVwidth
p7
L10L
sa(dp8
g6
L139L
sg7
L10L
sa(dp9
g6
L381L
sg7
L10L
sa(dp10
g6
L431L
sg7
L10L
sa(dp11
g6
L470L
sg7
L10L
sa(dp12
g6
L516L
sg7
L10L
sasVhhints
p13
(lp14
(dp15
g6
L-20L
sg7
L10L
sa(dp16
g6
L42L
sg7
L10L
sa(dp17
g6
L151L
sg7
L10L
sa(dp18
g6
L434L
sg7
L10L
sa(dp19
g6
L554L
sg7
L10L
sa(dp20
g6
L616L
sg7
L10L
sass."
Colour: ff00
EndChar

StartChar: t
Encoding: 116 116 88
GlifName: t
Width: 415
VWidth: 0
Flags: HMW
AnchorPoint: "LatinCedilla.mark" 210 0 basechar 0
AnchorPoint: "LatinBelow.mark" 220 0 basechar 0
AnchorPoint: "LatinAbove.mark" 146 120 basechar 0
LayerCount: 2
Fore
SplineSet
98 556 m 1
 108 600 l 1
 210 600 l 1
 237 730 l 1
 302 735 l 1
 274 600 l 1
 438 600 l 1
 428 556 l 1
 265 556 l 1
 173 123 l 2
 170 108 168 96 168 86 c 0
 168 48 188 37 224 37 c 0
 271 37 320 54 338 65 c 1
 344 20 l 1
 316 4 262 -12 206 -12 c 0
 140 -12 100 14 100 76 c 0
 100 88 101 101 104 115 c 2
 198 556 l 1
 98 556 l 1
EndSplineSet
PickledDataWithLists: "(dp0
Vcom.fontlab.hintData
p1
(dp2
Vvhints
p3
(lp4
(dp5
Vposition
p6
L20L
sVwidth
p7
L10L
sa(dp8
g6
L131L
sg7
L10L
sa(dp9
g6
L136L
sg7
L10L
sa(dp10
g6
L141L
sg7
L10L
sa(dp11
g6
L219L
sg7
L10L
sa(dp12
g6
L225L
sg7
L10L
sa(dp13
g6
L399L
sg7
L10L
sa(dp14
g6
L439L
sg7
L10L
sasVhhints
p15
(lp16
(dp17
g6
L-18L
sg7
L10L
sa(dp18
g6
L41L
sg7
L10L
sa(dp19
g6
L86L
sg7
L10L
sa(dp20
g6
L524L
sg7
L10L
sa(dp21
g6
L586L
sg7
L10L
sa(dp22
g6
L741L
sg7
L10L
sass."
Colour: ff00
EndChar

StartChar: u
Encoding: 117 117 89
GlifName: u
Width: 620
VWidth: 0
Flags: HMW
AnchorPoint: "LatinOgonek.mark" 320 0 basechar 0
AnchorPoint: "LatinBelow.mark" 250 0 basechar 0
AnchorPoint: "LatinAbove.mark" 250 0 basechar 0
LayerCount: 2
Fore
SplineSet
58 181 m 2
 148 600 l 1
 215 600 l 1
 125 181 l 2
 122 168 121 156 121 145 c 0
 121 73 174 33 257 33 c 0
 353 33 431 86 451 181 c 2
 541 600 l 1
 608 600 l 1
 518 181 l 2
 494 66 386 -17 246 -17 c 0
 124 -17 53 46 53 139 c 0
 53 153 55 166 58 181 c 2
EndSplineSet
PickledDataWithLists: "(dp0
Vcom.fontlab.hintData
p1
(dp2
Vvhints
p3
(lp4
(dp5
Vposition
p6
L81L
sVwidth
p7
L10L
sa(dp8
g6
L86L
sg7
L10L
sa(dp9
g6
L174L
sg7
L10L
sa(dp10
g6
L471L
sg7
L10L
sa(dp11
g6
L649L
sg7
L10L
sasVhhints
p12
(lp13
(dp14
g6
L-21L
sg7
L10L
sa(dp15
g6
L-16L
sg7
L10L
sa(dp16
g6
L41L
sg7
L10L
sa(dp17
g6
L601L
sg7
L10L
sass."
EndChar

StartChar: v
Encoding: 118 118 90
GlifName: v
Width: 600
VWidth: 0
Flags: HMW
AnchorPoint: "LatinBelow.mark" 240 0 basechar 0
AnchorPoint: "LatinAbove.mark" 240 0 basechar 0
LayerCount: 2
Fore
SplineSet
87 588 m 1
 88 593 l 1
 188 600 l 1
 261 100 l 1
 548 600 l 1
 644 593 l 1
 643 588 l 1
 276 0 l 1
 204 0 l 1
 87 588 l 1
EndSplineSet
PickledDataWithLists: "(dp0
Vcom.fontlab.hintData
p1
(dp2
Vvhints
p3
(lp4
(dp5
Vposition
p6
L35L
sVwidth
p7
L10L
sa(dp8
g6
L584L
sg7
L10L
sasVhhints
p9
(lp10
(dp11
g6
L-18L
sg7
L10L
sa(dp12
g6
L581L
sg7
L10L
sa(dp13
g6
L591L
sg7
L10L
sass."
Colour: ff00
EndChar

StartChar: w
Encoding: 119 119 91
GlifName: w
Width: 830
VWidth: 0
Flags: HMW
AnchorPoint: "LatinBelow.mark" 355 0 basechar 0
AnchorPoint: "LatinAbove.mark" 355 0 basechar 0
LayerCount: 2
Fore
SplineSet
860 590 m 1
 557 0 l 1
 499 0 l 1
 459 490 l 1
 211 0 l 1
 153 0 l 1
 100 590 l 1
 101 594 l 1
 174 600 l 1
 206 93 l 1
 451 585 l 1
 507 585 l 1
 544 93 l 1
 792 600 l 1
 861 594 l 1
 860 590 l 1
EndSplineSet
PickledDataWithLists: "(dp0
Vcom.fontlab.hintData
p1
(dp2
Vvhints
p3
(lp4
(dp5
Vposition
p6
L41L
sVwidth
p7
L10L
sa(dp8
g6
L790L
sg7
L10L
sasVhhints
p9
(lp10
(dp11
g6
L-11L
sg7
L10L
sa(dp12
g6
L568L
sg7
L10L
sa(dp13
g6
L590L
sg7
L10L
sass."
Colour: ff00
EndChar

StartChar: x
Encoding: 120 120 92
GlifName: x
Width: 600
VWidth: 0
Flags: HMW
AnchorPoint: "LatinBelow.mark" 240 0 basechar 0
AnchorPoint: "LatinAbove.mark" 240 0 basechar 0
LayerCount: 2
Fore
SplineSet
131 591 m 1
 131 595 l 1
 204 600 l 1
 318 366 l 1
 532 600 l 1
 601 595 l 1
 601 591 l 1
 346 325 l 1
 516 3 l 1
 515 0 l 1
 441 0 l 1
 298 274 l 1
 39 0 l 1
 -35 0 l 1
 -34 3 l 1
 272 325 l 1
 131 591 l 1
EndSplineSet
PickledDataWithLists: "(dp0
Vcom.fontlab.hintData
p1
(dp2
Vvhints
p3
(lp4
(dp5
Vposition
p6
L26L
sVwidth
p7
L10L
sa(dp8
g6
L71L
sg7
L10L
sa(dp9
g6
L524L
sg7
L10L
sa(dp10
g6
L559L
sg7
L10L
sasVhhints
p11
(lp12
(dp13
g6
L-6L
sg7
L10L
sa(dp14
g6
L5L
sg7
L10L
sa(dp15
g6
L591L
sg7
L10L
sass."
Colour: ff00
EndChar

StartChar: y
Encoding: 121 121 93
GlifName: y
Width: 600
VWidth: 0
Flags: HMW
AnchorPoint: "LatinBelow.mark" 202 -180 basechar 0
AnchorPoint: "LatinAbove.mark" 240 0 basechar 0
LayerCount: 2
Fore
SplineSet
96 591 m 1
 96 595 l 1
 170 600 l 1
 256 74 l 1
 566 600 l 1
 636 595 l 1
 636 591 l 1
 249 -34 l 2
 199 -110 127 -227 31 -227 c 0
 -16 -227 -41 -204 -59 -185 c 1
 -16 -143 l 1
 -2 -161 12 -180 40 -180 c 0
 91 -180 144 -101 196 -21 c 2
 212 3 l 1
 96 591 l 1
EndSplineSet
PickledDataWithLists: "(dp0
Vcom.fontlab.hintData
p1
(dp2
Vvhints
p3
(lp4
(dp5
Vposition
p6
L56L
sVwidth
p7
L10L
sa(dp8
g6
L130L
sg7
L10L
sasVhhints
p9
(lp10
(dp11
g6
L-257L
sg7
L10L
sa(dp12
g6
L-195L
sg7
L10L
sa(dp13
g6
L-164L
sg7
L10L
sa(dp14
g6
L4L
sg7
L10L
sa(dp15
g6
L584L
sg7
L10L
sa(dp16
g6
L595L
sg7
L10L
sass."
Colour: ff00
EndChar

StartChar: z
Encoding: 122 122 94
GlifName: z
Width: 530
VWidth: 0
Flags: HMW
AnchorPoint: "LatinBelow.mark" 205 0 basechar 0
AnchorPoint: "LatinAbove.mark" 205 0 basechar 0
LayerCount: 2
Fore
SplineSet
-7 36 m 1
 446 551 l 1
 120 551 l 1
 131 600 l 1
 541 600 l 1
 538 564 l 1
 84 49 l 1
 435 49 l 1
 425 0 l 1
 -11 0 l 1
 -7 36 l 1
EndSplineSet
PickledDataWithLists: "(dp0
Vcom.fontlab.hintData
p1
(dp2
Vvhints
p3
(lp4
(dp5
Vposition
p6
L46L
sVwidth
p7
L10L
sa(dp8
g6
L61L
sg7
L10L
sa(dp9
g6
L531L
sg7
L10L
sa(dp10
g6
L544L
sg7
L10L
sasVhhints
p11
(lp12
(dp13
g6
L-17L
sg7
L10L
sa(dp14
g6
L51L
sg7
L10L
sa(dp15
g6
L59L
sg7
L10L
sa(dp16
g6
L525L
sg7
L15L
sa(dp17
g6
L587L
sg7
L10L
sa(dp18
g6
L592L
sg7
L10L
sass."
Colour: ff00
EndChar

StartChar: braceleft
Encoding: 123 123 95
GlifName: braceleft
Width: 390
VWidth: 0
Flags: HMW
LayerCount: 2
Fore
SplineSet
80 376 m 1
 83 390 l 1
 86 404 l 1
 128 409 194 450 212 537 c 0
 221 578 211 681 224 740 c 0
 245 840 309 900 391 900 c 2
 431 900 l 1
 423 863 l 1
 390 863 l 2
 348 863 305 835 284 737 c 0
 273 684 280 581 270 532 c 0
 254 457 203 410 154 390 c 1
 187 374 214 339 214 286 c 0
 214 274 213 262 210 248 c 0
 200 199 147 96 136 43 c 0
 131 22 129 4 129 -11 c 0
 129 -65 156 -83 189 -83 c 2
 222 -83 l 1
 214 -120 l 1
 174 -120 l 2
 107 -120 70 -80 70 -11 c 0
 70 5 72 22 76 40 c 0
 89 99 141 202 150 243 c 0
 153 256 154 268 154 279 c 0
 154 342 114 372 80 376 c 1
EndSplineSet
PickledDataWithLists: "(dp0
Vcom.fontlab.hintData
p1
(dp2
Vvhints
p3
(lp4
(dp5
Vposition
p6
L22L
sVwidth
p7
L10L
sa(dp8
g6
L112L
sg7
L10L
sa(dp9
g6
L128L
sg7
L10L
sa(dp10
g6
L182L
sg7
L10L
sa(dp11
g6
L197L
sg7
L10L
sa(dp12
g6
L205L
sg7
L10L
sa(dp13
g6
L289L
sg7
L10L
sasVhhints
p14
(lp15
(dp16
g6
L-89L
sg7
L10L
sa(dp17
g6
L-41L
sg7
L10L
sa(dp18
g6
L830L
sg7
L10L
sa(dp19
g6
L879L
sg7
L10L
sass."
EndChar

StartChar: bar
Encoding: 124 124 96
GlifName: bar
Width: 360
VWidth: 0
Flags: HMW
LayerCount: 2
Fore
SplineSet
64 -120 m 1
 281 900 l 1
 341 900 l 1
 124 -120 l 1
 64 -120 l 1
EndSplineSet
PickledDataWithLists: "(dp0
Vcom.fontlab.hintData
p1
(dp2
Vvhints
p3
(lp4
(dp5
Vposition
p6
L131L
sVwidth
p7
L10L
sa(dp8
g6
L209L
sg7
L10L
sa(dp9
g6
L216L
sg7
L10L
sasVhhints
p10
(lp11
(dp12
g6
L-92L
sg7
L10L
sa(dp13
g6
L882L
sg7
L10L
sass."
EndChar

StartChar: braceright
Encoding: 125 125 97
GlifName: braceright
Width: 390
VWidth: 0
Flags: HMW
LayerCount: 2
Fore
SplineSet
356 404 m 1
 353 390 l 1
 350 376 l 1
 308 371 242 330 224 243 c 0
 215 202 225 99 212 40 c 0
 191 -60 126 -120 44 -120 c 2
 4 -120 l 1
 12 -83 l 1
 45 -83 l 2
 87 -83 131 -55 152 43 c 0
 163 96 156 199 166 248 c 0
 182 323 233 370 282 390 c 1
 249 406 222 441 222 494 c 0
 222 506 223 518 226 532 c 0
 236 581 289 684 300 737 c 0
 304 758 307 776 307 791 c 0
 307 846 279 863 246 863 c 2
 213 863 l 1
 221 900 l 1
 261 900 l 2
 328 900 366 860 366 791 c 0
 366 776 364 758 360 740 c 0
 347 681 295 578 286 537 c 0
 283 524 282 512 282 501 c 0
 282 438 322 408 356 404 c 1
EndSplineSet
PickledDataWithLists: "(dp0
Vcom.fontlab.hintData
p1
(dp2
Vvhints
p3
(lp4
(dp5
Vposition
p6
L61L
sVwidth
p7
L10L
sa(dp8
g6
L145L
sg7
L10L
sa(dp9
g6
L153L
sg7
L10L
sa(dp10
g6
L166L
sg7
L10L
sa(dp11
g6
L216L
sg7
L10L
sa(dp12
g6
L222L
sg7
L10L
sa(dp13
g6
L237L
sg7
L10L
sa(dp14
g6
L328L
sg7
L10L
sasVhhints
p15
(lp16
(dp17
g6
L-89L
sg7
L10L
sa(dp18
g6
L-41L
sg7
L10L
sa(dp19
g6
L831L
sg7
L10L
sa(dp20
g6
L879L
sg7
L10L
sass."
EndChar

StartChar: asciitilde
Encoding: 126 126 98
GlifName: asciitilde
Width: 600
VWidth: 0
Flags: HMW
LayerCount: 2
Fore
SplineSet
71 334 m 1
 104 391 159 473 240 473 c 0
 295 473 323 437 346 408 c 0
 370 378 389 356 418 356 c 0
 464 356 509 414 533 460 c 1
 575 446 l 1
 544 389 487 307 406 307 c 0
 351 307 323 343 300 372 c 0
 276 402 257 424 228 424 c 0
 181 424 138 366 113 320 c 1
 71 334 l 1
EndSplineSet
PickledDataWithLists: "(dp0
Vcom.fontlab.hintData
p1
(dp2
Vvhints
p3
(lp4
(dp5
Vposition
p6
L51L
sVwidth
p7
L10L
sa(dp8
g6
L539L
sg7
L10L
sasVhhints
p9
(lp10
(dp11
g6
L249L
sg7
L10L
sa(dp12
g6
L260L
sg7
L10L
sa(dp13
g6
L311L
sg7
L10L
sa(dp14
g6
L359L
sg7
L10L
sa(dp15
g6
L411L
sg7
L10L
sa(dp16
g6
L421L
sg7
L10L
sass."
EndChar

StartChar: copyright
Encoding: 169 169 100
GlifName: copyright
Width: 1020
VWidth: 0
Flags: HMW
LayerCount: 2
Fore
SplineSet
372 411 m 2
 392 505 454 607 586 607 c 0
 680 607 712 548 712 508 c 0
 712 507 712 505 712 504 c 1
 662 499 l 1
 662 529 639 571 578 571 c 0
 494 571 442 505 422 411 c 2
 419 395 l 2
 415 374 412 355 412 338 c 0
 412 276 441 235 507 235 c 0
 568 235 609 277 621 307 c 1
 669 302 l 1
 653 262 596 199 499 199 c 0
 396 199 362 262 362 334 c 0
 362 354 365 375 369 395 c 2
 372 411 l 2
450 1 m 0
 236 1 114 127 114 309 c 0
 114 340 118 371 125 405 c 0
 174 637 372 809 622 809 c 0
 836 809 958 683 958 501 c 0
 958 470 954 439 947 405 c 0
 898 173 700 1 450 1 c 0
458 39 m 0
 682 39 859 189 905 405 c 0
 912 437 915 467 915 496 c 0
 915 662 805 771 614 771 c 0
 390 771 213 621 167 405 c 0
 160 373 157 343 157 314 c 0
 157 148 267 39 458 39 c 0
EndSplineSet
PickledDataWithLists: "(dp0
Vcom.fontlab.hintData
p1
(dp2
Vvhints
p3
(lp4
(dp5
Vposition
p6
L83L
sVwidth
p7
L10L
sa(dp8
g6
L147L
sg7
L10L
sa(dp9
g6
L315L
sg7
L10L
sa(dp10
g6
L395L
sg7
L10L
sa(dp11
g6
L565L
sg7
L10L
sa(dp12
g6
L645L
sg7
L10L
sa(dp13
g6
L661L
sg7
L10L
sa(dp14
g6
L798L
sg7
L10L
sa(dp15
g6
L863L
sg7
L10L
sa(dp16
g6
L927L
sg7
L10L
sasVhhints
p17
(lp18
(dp19
g6
L-27L
sg7
L10L
sa(dp20
g6
L17L
sg7
L10L
sa(dp21
g6
L170L
sg7
L10L
sa(dp22
g6
L224L
sg7
L10L
sa(dp23
g6
L283L
sg7
L10L
sa(dp24
g6
L472L
sg7
L10L
sa(dp25
g6
L549L
sg7
L10L
sa(dp26
g6
L603L
sg7
L10L
sa(dp27
g6
L773L
sg7
L10L
sa(dp28
g6
L817L
sg7
L10L
sass."
EndChar

StartChar: registered
Encoding: 174 174 101
GlifName: registered
Width: 870
VWidth: 0
Flags: HMW
LayerCount: 2
Fore
SplineSet
433 274 m 0
 260 274 161 376 161 522 c 0
 161 547 164 573 170 600 c 0
 210 787 369 926 572 926 c 0
 746 926 845 824 845 678 c 0
 845 653 842 627 836 600 c 0
 796 413 636 274 433 274 c 0
440 304 m 0
 619 304 763 425 800 600 c 0
 805 626 808 650 808 673 c 0
 808 808 718 896 565 896 c 0
 386 896 243 775 206 600 c 0
 201 574 198 550 198 527 c 0
 198 392 287 304 440 304 c 0
479 565 m 1
 456 565 434 565 416 566 c 1
 381 400 l 1
 334 400 l 1
 370 569 l 1
 417 790 l 1
 431 791 488 794 544 794 c 0
 624 794 680 762 680 703 c 0
 680 696 679 688 677 680 c 0
 663 616 605 576 531 567 c 1
 631 402 l 1
 631 400 l 1
 577 400 l 1
 479 565 l 1
424 601 m 1
 442 600 469 599 497 599 c 0
 561 599 617 622 629 680 c 0
 630 686 631 693 631 698 c 0
 631 743 589 760 532 760 c 0
 504 760 475 759 457 758 c 1
 424 601 l 1
EndSplineSet
PickledDataWithLists: "(dp0
Vcom.fontlab.hintData
p1
(dp2
Vvhints
p3
(lp4
(dp5
Vposition
p6
L90L
sVwidth
p7
L10L
sa(dp8
g6
L140L
sg7
L10L
sa(dp9
g6
L263L
sg7
L10L
sa(dp10
g6
L301L
sg7
L10L
sa(dp11
g6
L303L
sg7
L10L
sa(dp12
g6
L363L
sg7
L10L
sa(dp13
g6
L480L
sg7
L10L
sa(dp14
g6
L544L
sg7
L10L
sa(dp15
g6
L557L
sg7
L10L
sa(dp16
g6
L628L
sg7
L10L
sa(dp17
g6
L677L
sg7
L10L
sa(dp18
g6
L727L
sg7
L10L
sasVhhints
p19
(lp20
(dp21
g6
L319L
sg7
L10L
sa(dp22
g6
L351L
sg7
L10L
sa(dp23
g6
L469L
sg7
L10L
sa(dp24
g6
L596L
sg7
L20L
sa(dp25
g6
L644L
sg7
L10L
sa(dp26
g6
L654L
sg7
L10L
sa(dp27
g6
L725L
sg7
L11L
sa(dp28
g6
L757L
sg7
L10L
sa(dp29
g6
L799L
sg7
L10L
sa(dp30
g6
L919L
sg7
L10L
sa(dp31
g6
L951L
sg7
L10L
sass."
EndChar

StartChar: guillemotleft
Encoding: 171 171 102
GlifName: guillemotleft
Width: 780
VWidth: 0
Flags: HMW
LayerCount: 2
Fore
SplineSet
103 345 m 1
 110 375 l 1
 459 630 l 1
 476 595 l 1
 179 360 l 1
 377 125 l 1
 344 90 l 1
 103 345 l 1
383 345 m 1
 390 375 l 1
 739 630 l 1
 756 595 l 1
 459 360 l 1
 657 125 l 1
 624 90 l 1
 383 345 l 1
EndSplineSet
PickledDataWithLists: "(dp0
Vcom.fontlab.hintData
p1
(dp2
Vvhints
p3
(lp4
(dp5
Vposition
p6
L66L
sVwidth
p7
L10L
sa(dp8
g6
L336L
sg7
L10L
sa(dp9
g6
L356L
sg7
L10L
sa(dp10
g6
L368L
sg7
L10L
sa(dp11
g6
L626L
sg7
L10L
sa(dp12
g6
L638L
sg7
L10L
sasVhhints
p13
(lp14
(dp15
g6
L65L
sg7
L10L
sa(dp16
g6
L605L
sg7
L10L
sass."
EndChar

StartChar: guillemotright
Encoding: 187 187 103
GlifName: guillemotright
Width: 780
VWidth: 0
Flags: HMW
LayerCount: 2
Fore
SplineSet
710 375 m 1
 703 345 l 1
 354 90 l 1
 337 125 l 1
 635 360 l 1
 436 595 l 1
 469 630 l 1
 710 375 l 1
430 375 m 1
 423 345 l 1
 74 90 l 1
 57 125 l 1
 355 360 l 1
 156 595 l 1
 189 630 l 1
 430 375 l 1
EndSplineSet
PickledDataWithLists: "(dp0
Vcom.fontlab.hintData
p1
(dp2
Vvhints
p3
(lp4
(dp5
Vposition
p6
L72L
sVwidth
p7
L10L
sa(dp8
g6
L84L
sg7
L10L
sa(dp9
g6
L342L
sg7
L10L
sa(dp10
g6
L354L
sg7
L10L
sa(dp11
g6
L374L
sg7
L10L
sa(dp12
g6
L644L
sg7
L10L
sasVhhints
p13
(lp14
(dp15
g6
L64L
sg7
L10L
sa(dp16
g6
L605L
sg7
L10L
sass."
EndChar

StartChar: uni2010
Encoding: 8208 8208 111
GlifName: uni2010
Width: 600
VWidth: 0
Flags: HMW
LayerCount: 2
Fore
SplineSet
127 386 m 1
 517 386 l 1
 506 334 l 1
 116 334 l 1
 127 386 l 1
EndSplineSet
PickledDataWithLists: "(dp0
Vcom.fontlab.hintData
p1
(dp2
Vvhints
p3
(lp4
(dp5
Vposition
p6
L75L
sVwidth
p7
L10L
sa(dp8
g6
L514L
sg7
L10L
sasVhhints
p9
(lp10
(dp11
g6
L301L
sg7
L10L
sa(dp12
g6
L363L
sg7
L10L
sa(dp13
g6
L371L
sg7
L10L
sass."
EndChar

StartChar: uni2011
Encoding: 8209 8209 112
GlifName: uni2011
Width: 600
VWidth: 0
Flags: HMW
LayerCount: 2
Fore
SplineSet
127 386 m 1
 517 386 l 1
 506 334 l 1
 116 334 l 1
 127 386 l 1
EndSplineSet
PickledDataWithLists: "(dp0
Vcom.fontlab.hintData
p1
(dp2
Vvhints
p3
(lp4
(dp5
Vposition
p6
L75L
sVwidth
p7
L10L
sa(dp8
g6
L514L
sg7
L10L
sasVhhints
p9
(lp10
(dp11
g6
L301L
sg7
L10L
sa(dp12
g6
L363L
sg7
L10L
sa(dp13
g6
L371L
sg7
L10L
sass."
EndChar

StartChar: figuredash
Encoding: 8210 8210 113
GlifName: figuredash
Width: 660
VWidth: 0
Flags: HMW
LayerCount: 2
Fore
SplineSet
127 386 m 1
 577 386 l 1
 566 334 l 1
 116 334 l 1
 127 386 l 1
EndSplineSet
PickledDataWithLists: "(dp0
Vcom.fontlab.hintData
p1
(dp2
Vvhints
p3
(lp4
(dp5
Vposition
p6
L105L
sVwidth
p7
L10L
sa(dp8
g6
L604L
sg7
L10L
sasVhhints
p9
(lp10
(dp11
g6
L301L
sg7
L10L
sa(dp12
g6
L364L
sg7
L10L
sa(dp13
g6
L371L
sg7
L10L
sass."
EndChar

StartChar: uni2015
Encoding: 8213 8213 114
GlifName: uni2015
Width: 1200
VWidth: 0
Flags: HMW
LayerCount: 2
Fore
SplineSet
127 386 m 1
 1117 386 l 1
 1106 334 l 1
 116 334 l 1
 127 386 l 1
EndSplineSet
PickledDataWithLists: "(dp0
Vcom.fontlab.hintData
p1
(dp2
Vvhints
p3
(lp4
(dp5
Vposition
p6
L90L
sVwidth
p7
L10L
sa(dp8
g6
L1099L
sg7
L10L
sasVhhints
p9
(lp10
(dp11
g6
L299L
sg7
L10L
sa(dp12
g6
L304L
sg7
L10L
sa(dp13
g6
L309L
sg7
L10L
sa(dp14
g6
L361L
sg7
L10L
sa(dp15
g6
L366L
sg7
L10L
sa(dp16
g6
L371L
sg7
L10L
sass."
EndChar

StartChar: endash
Encoding: 8211 8211 115
GlifName: endash
Width: 660
VWidth: 0
Flags: HMW
LayerCount: 2
Fore
SplineSet
127 386 m 1
 577 386 l 1
 566 334 l 1
 116 334 l 1
 127 386 l 1
EndSplineSet
PickledDataWithLists: "(dp0
Vcom.fontlab.hintData
p1
(dp2
Vvhints
p3
(lp4
(dp5
Vposition
p6
L75L
sVwidth
p7
L10L
sa(dp8
g6
L574L
sg7
L10L
sasVhhints
p9
(lp10
(dp11
g6
L301L
sg7
L10L
sa(dp12
g6
L364L
sg7
L10L
sa(dp13
g6
L371L
sg7
L10L
sass."
EndChar

StartChar: emdash
Encoding: 8212 8212 116
GlifName: emdash
Width: 1200
VWidth: 0
Flags: HMW
LayerCount: 2
Fore
SplineSet
127 386 m 1
 1117 386 l 1
 1106 334 l 1
 116 334 l 1
 127 386 l 1
EndSplineSet
PickledDataWithLists: "(dp0
Vcom.fontlab.hintData
p1
(dp2
Vvhints
p3
(lp4
(dp5
Vposition
p6
L90L
sVwidth
p7
L10L
sa(dp8
g6
L1099L
sg7
L10L
sasVhhints
p9
(lp10
(dp11
g6
L299L
sg7
L10L
sa(dp12
g6
L304L
sg7
L10L
sa(dp13
g6
L309L
sg7
L10L
sa(dp14
g6
L361L
sg7
L10L
sa(dp15
g6
L366L
sg7
L10L
sa(dp16
g6
L371L
sg7
L10L
sass."
EndChar

StartChar: quoteleft
Encoding: 8216 8216 117
GlifName: quoteleft
Width: 330
VWidth: 0
Flags: HMW
LayerCount: 2
Fore
SplineSet
309 653 m 128
 301 616 269 589 230 589 c 0
 186 589 168 618 168 657 c 0
 168 668 169 679 172 691 c 0
 193 788 269 857 339 900 c 1
 355 870 l 1
 297 834 243 780 223 704 c 1
 234 709 246 712 258 712 c 0
 289 712 311 695 311 667 c 0
 311 663 310 658 309 653 c 128
EndSplineSet
PickledDataWithLists: "(dp0
Vcom.fontlab.hintData
p1
(dp2
Vvhints
p3
(lp4
(dp5
Vposition
p6
L69L
sVwidth
p7
L10L
sa(dp8
g6
L150L
sg7
L10L
sa(dp9
g6
L255L
sg7
L10L
sasVhhints
p10
(lp11
(dp12
g6
L533L
sg7
L10L
sa(dp13
g6
L602L
sg7
L10L
sa(dp14
g6
L832L
sg7
L10L
sass."
EndChar

StartChar: quoteright
Encoding: 8217 8217 118
GlifName: quoteright
Width: 330
VWidth: 0
Flags: HMW
LayerCount: 2
Fore
SplineSet
209 797 m 128
 217 834 249 861 288 861 c 0
 332 861 350 832 350 793 c 0
 350 782 349 771 346 759 c 0
 325 662 249 593 179 550 c 1
 163 580 l 1
 221 616 276 670 296 746 c 1
 285 741 272 738 260 738 c 0
 229 738 207 755 207 783 c 0
 207 787 208 792 209 797 c 128
EndSplineSet
PickledDataWithLists: "(dp0
Vcom.fontlab.hintData
p1
(dp2
Vvhints
p3
(lp4
(dp5
Vposition
p6
L61L
sVwidth
p7
L10L
sa(dp8
g6
L170L
sg7
L10L
sa(dp9
g6
L251L
sg7
L10L
sasVhhints
p10
(lp11
(dp12
g6
L538L
sg7
L10L
sa(dp13
g6
L768L
sg7
L10L
sa(dp14
g6
L837L
sg7
L10L
sass."
EndChar

StartChar: quotedblleft
Encoding: 8220 8220 119
GlifName: quotedblleft
Width: 570
VWidth: 0
Flags: HMW
LayerCount: 2
Fore
SplineSet
329 653 m 128
 321 616 289 589 250 589 c 0
 206 589 188 618 188 657 c 0
 188 668 189 679 192 691 c 0
 213 788 289 857 359 900 c 1
 375 870 l 1
 317 834 263 780 243 704 c 1
 254 709 266 712 278 712 c 0
 309 712 331 695 331 667 c 0
 331 663 330 658 329 653 c 128
529 653 m 128
 521 616 489 589 450 589 c 0
 406 589 388 618 388 657 c 0
 388 668 389 679 392 691 c 0
 413 788 489 857 559 900 c 1
 575 870 l 1
 517 834 463 780 443 704 c 1
 454 709 466 712 478 712 c 0
 509 712 531 695 531 667 c 0
 531 663 530 658 529 653 c 128
EndSplineSet
PickledDataWithLists: "(dp0
Vcom.fontlab.hintData
p1
(dp2
Vvhints
p3
(lp4
(dp5
Vposition
p6
L69L
sVwidth
p7
L10L
sa(dp8
g6
L150L
sg7
L10L
sa(dp9
g6
L255L
sg7
L10L
sa(dp10
g6
L309L
sg7
L10L
sa(dp11
g6
L390L
sg7
L10L
sa(dp12
g6
L495L
sg7
L10L
sasVhhints
p13
(lp14
(dp15
g6
L533L
sg7
L10L
sa(dp16
g6
L602L
sg7
L10L
sa(dp17
g6
L832L
sg7
L10L
sass."
EndChar

StartChar: quotedblright
Encoding: 8221 8221 120
GlifName: quotedblright
Width: 570
VWidth: 0
Flags: HMW
LayerCount: 2
Fore
SplineSet
229 797 m 128
 237 834 269 861 308 861 c 0
 352 861 370 832 370 793 c 0
 370 782 369 771 366 759 c 0
 345 662 269 593 199 550 c 1
 183 580 l 1
 241 616 296 670 316 746 c 1
 305 741 292 738 280 738 c 0
 249 738 227 755 227 783 c 0
 227 787 228 792 229 797 c 128
429 797 m 128
 437 834 469 861 508 861 c 0
 552 861 570 832 570 793 c 0
 570 782 569 771 566 759 c 0
 545 662 469 593 399 550 c 1
 383 580 l 1
 441 616 496 670 516 746 c 1
 505 741 492 738 480 738 c 0
 449 738 427 755 427 783 c 0
 427 787 428 792 429 797 c 128
EndSplineSet
PickledDataWithLists: "(dp0
Vcom.fontlab.hintData
p1
(dp2
Vvhints
p3
(lp4
(dp5
Vposition
p6
L61L
sVwidth
p7
L10L
sa(dp8
g6
L170L
sg7
L10L
sa(dp9
g6
L251L
sg7
L10L
sa(dp10
g6
L301L
sg7
L10L
sa(dp11
g6
L410L
sg7
L10L
sa(dp12
g6
L491L
sg7
L10L
sasVhhints
p13
(lp14
(dp15
g6
L538L
sg7
L10L
sa(dp16
g6
L768L
sg7
L10L
sa(dp17
g6
L837L
sg7
L10L
sass."
EndChar

StartChar: bullet
Encoding: 8226 8226 121
GlifName: bullet
Width: 660
VWidth: 0
Flags: HMW
LayerCount: 2
Fore
SplineSet
230 360 m 0
 244 427 304 469 370 469 c 0
 427 469 467 437 467 385 c 0
 467 377 466 369 464 360 c 0
 450 293 389 251 323 251 c 0
 266 251 227 283 227 335 c 0
 227 343 228 351 230 360 c 0
EndSplineSet
PickledDataWithLists: "(dp0
Vcom.fontlab.hintData
p1
(dp2
Vvhints
p3
(lp4
(dp5
Vposition
p6
L231L
sVwidth
p7
L10L
sa(dp8
g6
L479L
sg7
L10L
sasVhhints
p9
(lp10
(dp11
g6
L234L
sg7
L10L
sa(dp12
g6
L456L
sg7
L10L
sass."
EndChar

StartChar: ellipsis
Encoding: 8230 8230 122
GlifName: ellipsis
Width: 870
VWidth: 0
GlyphClass: 3
Flags: HMW
LayerCount: 2
Fore
SplineSet
131 120 m 128
 163 120 185 102 185 73 c 0
 185 69 184 64 183 59 c 128
 175 22 142 -2 105 -2 c 128
 73 -2 51 16 51 45 c 0
 51 49 52 54 53 59 c 128
 61 96 94 120 131 120 c 128
401 120 m 128
 433 120 455 102 455 73 c 0
 455 69 454 64 453 59 c 128
 445 22 412 -2 375 -2 c 128
 343 -2 321 16 321 45 c 0
 321 49 322 54 323 59 c 128
 331 96 364 120 401 120 c 128
671 120 m 128
 703 120 725 102 725 73 c 0
 725 69 724 64 723 59 c 128
 715 22 682 -2 645 -2 c 128
 613 -2 591 16 591 45 c 0
 591 49 592 54 593 59 c 128
 601 96 634 120 671 120 c 128
EndSplineSet
PickledDataWithLists: "(dp0
Vcom.fontlab.hintData
p1
(dp2
Vvhints
p3
(lp4
(dp5
Vposition
p6
L60L
sVwidth
p7
L10L
sa(dp8
g6
L200L
sg7
L10L
sa(dp9
g6
L285L
sg7
L10L
sa(dp10
g6
L425L
sg7
L10L
sa(dp11
g6
L510L
sg7
L10L
sa(dp12
g6
L650L
sg7
L10L
sasVhhints
p13
(lp14
(dp15
g6
L2L
sg7
L10L
sa(dp16
g6
L115L
sg7
L10L
sass."
Ligature2: "Latin.liga subtable" period uni200D period uni200D period
Ligature2: "Latin.liga subtable" period period period
EndChar

StartChar: Euro
Encoding: 8364 8364 124
GlifName: E_uro
Width: 660
VWidth: 0
Flags: HMW
LayerCount: 2
Fore
SplineSet
64 444 m 1
 73 486 l 1
 143 486 l 1
 193 648 295 797 475 797 c 0
 621 797 663 685 663 609 c 0
 663 605 663 600 663 596 c 1
 595 589 l 1
 595 593 595 598 595 602 c 0
 595 669 559 746 465 746 c 0
 347 746 259 640 210 486 c 1
 513 486 l 1
 504 444 l 1
 198 444 l 1
 194 432 193 420 190 407 c 2
 182 373 l 2
 179 360 177 348 175 336 c 1
 481 336 l 1
 472 294 l 1
 169 294 l 1
 167 273 165 252 165 233 c 0
 165 113 211 34 313 34 c 0
 413 34 486 122 511 191 c 1
 575 184 l 1
 548 109 457 -17 302 -17 c 0
 148 -17 98 92 98 225 c 0
 98 247 99 271 102 294 c 1
 32 294 l 1
 41 336 l 1
 108 336 l 1
 110 348 112 361 115 373 c 2
 123 407 l 2
 126 419 127 432 131 444 c 1
 64 444 l 1
EndSplineSet
PickledDataWithLists: "(dp0
Vcom.fontlab.hintData
p1
(dp2
Vvhints
p3
(lp4
(dp5
Vposition
p6
L21L
sVwidth
p7
L10L
sa(dp8
g6
L115L
sg7
L10L
sa(dp9
g6
L203L
sg7
L10L
sa(dp10
g6
L484L
sg7
L10L
sa(dp11
g6
L659L
sg7
L10L
sasVhhints
p12
(lp13
(dp14
g6
L-15L
sg7
L10L
sa(dp15
g6
L48L
sg7
L9L
sa(dp16
g6
L165L
sg7
L10L
sa(dp17
g6
L268L
sg7
L10L
sa(dp18
g6
L323L
sg7
L10L
sa(dp19
g6
L448L
sg7
L10L
sa(dp20
g6
L453L
sg7
L10L
sa(dp21
g6
L503L
sg7
L10L
sa(dp22
g6
L590L
sg7
L10L
sa(dp23
g6
L745L
sg7
L10L
sa(dp24
g6
L806L
sg7
L10L
sass."
EndChar

StartChar: trademark
Encoding: 8482 8482 125
GlifName: trademark
Width: 765
VWidth: 0
Flags: HMW
LayerCount: 2
Fore
SplineSet
145 864 m 1
 152 900 l 1
 425 900 l 1
 418 864 l 1
 306 864 l 1
 230 510 l 1
 182 510 l 1
 258 864 l 1
 145 864 l 1
760 510 m 1
 712 510 l 1
 776 810 l 1
 621 608 l 1
 597 608 l 1
 528 810 l 1
 464 510 l 1
 416 510 l 1
 498 896 l 1
 539 900 l 1
 620 657 l 1
 803 900 l 1
 842 896 l 1
 760 510 l 1
EndSplineSet
PickledDataWithLists: "(dp0
Vcom.fontlab.hintData
p1
(dp2
Vvhints
p3
(lp4
(dp5
Vposition
p6
L39L
sVwidth
p7
L10L
sa(dp8
g6
L180L
sg7
L10L
sa(dp9
g6
L251L
sg7
L10L
sa(dp10
g6
L383L
sg7
L10L
sa(dp11
g6
L421L
sg7
L10L
sa(dp12
g6
L440L
sg7
L10L
sa(dp13
g6
L504L
sg7
L10L
sa(dp14
g6
L735L
sg7
L10L
sa(dp15
g6
L800L
sg7
L10L
sa(dp16
g6
L819L
sg7
L10L
sasVhhints
p17
(lp18
(dp19
g6
L381L
sg7
L10L
sa(dp20
g6
L390L
sg7
L10L
sa(dp21
g6
L395L
sg7
L10L
sa(dp22
g6
L473L
sg7
L10L
sa(dp23
g6
L745L
sg7
L10L
sa(dp24
g6
L751L
sg7
L10L
sa(dp25
g6
L803L
sg7
L10L
sass."
EndChar

StartChar: uni25CC
Encoding: 9676 9676 126
GlifName: uni25C_C_
Width: 720
VWidth: 0
GlyphClass: 2
Flags: HMW
AnchorPoint: "LatinCedilla.mark" 320 0 basechar 0
AnchorPoint: "LatinBelow.mark" 300 0 basechar 0
AnchorPoint: "LatinAbove.mark" 300 0 basechar 0
LayerCount: 2
Fore
SplineSet
333 15 m 0
 329 -2 314 -15 297 -15 c 0
 282 -15 272 -6 272 8 c 0
 272 10 272 13 273 15 c 0
 277 32 293 45 310 45 c 0
 324 45 334 35 334 22 c 0
 334 20 334 18 333 15 c 0
454 585 m 0
 450 568 435 555 418 555 c 0
 403 555 393 564 393 578 c 0
 393 580 393 583 394 585 c 0
 398 602 414 615 431 615 c 0
 445 615 455 605 455 592 c 0
 455 590 455 588 454 585 c 0
655 330 m 0
 670 330 680 321 680 307 c 0
 680 305 680 302 679 300 c 0
 675 283 659 270 642 270 c 0
 628 270 618 280 618 293 c 0
 618 295 618 297 619 300 c 0
 623 317 638 330 655 330 c 0
85 330 m 0
 100 330 110 321 110 307 c 0
 110 305 110 302 109 300 c 0
 105 283 89 270 72 270 c 0
 58 270 48 280 48 293 c 0
 48 295 48 297 49 300 c 0
 53 317 68 330 85 330 c 0
130 439 m 0
 145 439 155 430 155 416 c 0
 155 414 155 411 154 409 c 0
 150 392 135 379 118 379 c 0
 103 379 93 388 93 402 c 0
 93 404 93 407 94 409 c 0
 98 426 113 439 130 439 c 0
84 221 m 0
 99 221 109 212 109 198 c 0
 109 196 109 193 108 191 c 0
 104 174 88 161 71 161 c 0
 57 161 47 171 47 184 c 0
 47 186 47 188 48 191 c 0
 52 208 67 221 84 221 c 0
656 439 m 0
 671 439 681 430 681 416 c 0
 681 414 681 411 680 409 c 0
 676 392 661 379 644 379 c 0
 629 379 619 388 619 402 c 0
 619 404 619 407 620 409 c 0
 624 426 639 439 656 439 c 0
610 221 m 0
 625 221 635 212 635 198 c 0
 635 196 635 193 634 191 c 0
 630 174 614 161 597 161 c 0
 583 161 573 171 573 184 c 0
 573 186 573 188 574 191 c 0
 578 208 593 221 610 221 c 0
211 531 m 0
 225 531 235 521 235 508 c 0
 235 506 235 504 234 501 c 0
 230 484 215 471 198 471 c 0
 183 471 173 480 173 494 c 0
 173 496 173 499 174 501 c 0
 178 518 194 531 211 531 c 0
614 531 m 0
 628 531 638 521 638 508 c 0
 638 506 638 504 637 501 c 0
 633 484 618 471 601 471 c 0
 586 471 576 480 576 494 c 0
 576 496 576 499 577 501 c 0
 581 518 597 531 614 531 c 0
125 128 m 0
 140 128 150 119 150 105 c 0
 150 103 150 100 149 98 c 0
 145 81 129 68 112 68 c 0
 98 68 88 78 88 91 c 0
 88 93 88 95 89 98 c 0
 93 115 108 128 125 128 c 0
528 128 m 0
 543 128 553 119 553 105 c 0
 553 103 553 100 552 98 c 0
 548 81 532 68 515 68 c 0
 501 68 491 78 491 91 c 0
 491 93 491 95 492 98 c 0
 496 115 511 128 528 128 c 0
423 67 m 0
 438 67 448 58 448 44 c 0
 448 42 448 39 447 37 c 0
 443 20 427 7 410 7 c 0
 396 7 386 17 386 30 c 0
 386 32 386 34 387 37 c 0
 391 54 406 67 423 67 c 0
205 67 m 0
 220 67 230 58 230 44 c 0
 230 42 230 39 229 37 c 0
 225 20 209 7 192 7 c 0
 178 7 168 17 168 30 c 0
 168 32 168 34 169 37 c 0
 173 54 188 67 205 67 c 0
535 593 m 0
 550 593 560 584 560 570 c 0
 560 568 560 565 559 563 c 0
 555 546 539 533 522 533 c 0
 508 533 498 543 498 556 c 0
 498 558 498 560 499 563 c 0
 503 580 518 593 535 593 c 0
317 593 m 0
 332 593 342 584 342 570 c 0
 342 568 342 565 341 563 c 0
 337 546 321 533 304 533 c 0
 290 533 280 543 280 556 c 0
 280 558 280 560 281 563 c 0
 285 580 300 593 317 593 c 0
EndSplineSet
PickledDataWithLists: "(dp0
Vcom.fontlab.hintData
p1
(dp2
Vvhints
p3
(lp4
(dp5
Vposition
p6
L40L
sVwidth
p7
L10L
sa(dp8
g6
L76L
sg7
L10L
sa(dp9
g6
L90L
sg7
L10L
sa(dp10
g6
L132L
sg7
L10L
sa(dp11
g6
L180L
sg7
L10L
sa(dp12
g6
L238L
sg7
L10L
sa(dp13
g6
L325L
sg7
L10L
sa(dp14
g6
L385L
sg7
L10L
sa(dp15
g6
L472L
sg7
L10L
sa(dp16
g6
L528L
sg7
L10L
sa(dp17
g6
L581L
sg7
L10L
sa(dp18
g6
L620L
sg7
L10L
sa(dp19
g6
L631L
sg7
L10L
sa(dp20
g6
L670L
sg7
L10L
sasVhhints
p21
(lp22
(dp23
g6
L-20L
sg7
L10L
sa(dp24
g6
L16L
sg7
L10L
sa(dp25
g6
L30L
sg7
L10L
sa(dp26
g6
L69L
sg7
L10L
sa(dp27
g6
L122L
sg7
L10L
sa(dp28
g6
L178L
sg7
L10L
sa(dp29
g6
L265L
sg7
L10L
sa(dp30
g6
L325L
sg7
L10L
sa(dp31
g6
L410L
sg7
L10L
sa(dp32
g6
L468L
sg7
L10L
sa(dp33
g6
L518L
sg7
L10L
sa(dp34
g6
L560L
sg7
L10L
sa(dp35
g6
L574L
sg7
L10L
sa(dp36
g6
L610L
sg7
L10L
sass."
Colour: ff00
EndChar

StartChar: uni0E01
Encoding: 3585 3585 127
GlifName: uni0E_01
Width: 655
VWidth: 0
GlyphClass: 2
Flags: HMW
LayerCount: 2
Fore
SplineSet
56 0 m 25
 120 299 l 2
 132 355 165 388 214 400 c 1
 95 422 l 1
 131 525 234 617 386 617 c 0
 518 617 597 553 597 453 c 0
 597 439 595 423 592 407 c 2
 505 0 l 1
 442 0 l 1
 529 407 l 2
 532 421 533 434 533 446 c 0
 533 526 473 568 376 568 c 0
 275 568 203 517 167 441 c 1
 318 412 l 1
 304 382 l 1
 300 383 284 384 275 384 c 0
 229 384 196 359 184 304 c 2
 119 0 l 25
 56 0 l 25
EndSplineSet
PickledDataWithLists: "(dp0
Vcom.fontlab.hintData
p1
(dp2
Vvhints
p3
(lp4
(dp5
Vposition
p6
L91L
sVwidth
p7
L10L
sa(dp8
g6
L105L
sg7
L10L
sa(dp9
g6
L179L
sg7
L10L
sa(dp10
g6
L193L
sg7
L10L
sa(dp11
g6
L467L
sg7
L10L
sa(dp12
g6
L476L
sg7
L10L
sa(dp13
g6
L559L
sg7
L10L
sa(dp14
g6
L564L
sg7
L10L
sasVhhints
p15
(lp16
(dp17
g6
L-16L
sg7
L10L
sa(dp18
g6
L4L
sg7
L10L
sa(dp19
g6
L544L
sg7
L10L
sa(dp20
g6
L606L
sg7
L10L
sass."
EndChar

StartChar: uni0E02
Encoding: 3586 3586 128
GlifName: uni0E_02
Width: 635
VWidth: 0
GlyphClass: 2
Flags: HMW
LayerCount: 2
Fore
SplineSet
183 537 m 0
 148 537 119 512 112 478 c 0
 111 473 111 468 111 464 c 0
 111 437 128 419 158 419 c 0
 193 419 223 444 230 478 c 0
 231 483 231 488 231 492 c 0
 231 519 213 537 183 537 c 0
72 478 m 0
 87 549 160 611 265 611 c 0
 354 611 405 569 405 504 c 0
 405 494 403 484 401 473 c 0
 369 323 196 299 165 151 c 0
 163 141 162 132 162 124 c 0
 162 66 209 32 282 32 c 0
 365 32 434 79 453 170 c 2
 545 600 l 1
 608 600 l 1
 516 170 l 2
 493 62 397 -17 271 -17 c 0
 161 -17 97 36 97 114 c 0
 97 125 99 136 101 147 c 0
 138 323 323 342 352 477 c 0
 354 485 355 494 355 501 c 0
 355 549 318 576 252 576 c 0
 235 576 219 574 203 570 c 1
 246 566 272 538 272 499 c 0
 272 492 272 485 270 478 c 0
 259 424 209 385 151 385 c 0
 101 385 70 415 70 458 c 0
 70 465 71 471 72 478 c 0
EndSplineSet
PickledDataWithLists: "(dp0
Vcom.fontlab.hintData
p1
(dp2
Vvhints
p3
(lp4
(dp5
Vposition
p6
L14L
sVwidth
p7
L10L
sa(dp8
g6
L547L
sg7
L10L
sasVhhints
p9
(lp10
(dp11
g6
L-19L
sg7
L10L
sa(dp12
g6
L432L
sg7
L10L
sa(dp13
g6
L584L
sg7
L10L
sa(dp14
g6
L594L
sg7
L10L
sass."
EndChar

StartChar: uni0E03
Encoding: 3587 3587 129
GlifName: uni0E_03
Width: 635
VWidth: 0
GlyphClass: 2
Flags: HMW
LayerCount: 2
Fore
SplineSet
101 147 m 0
 138 323 328 348 358 490 c 0
 360 499 361 507 362 515 c 1
 326 457 266 410 180 410 c 0
 106 410 76 443 76 489 c 0
 76 497 77 505 79 514 c 0
 90 568 140 607 198 607 c 0
 248 607 279 577 279 534 c 0
 279 527 278 521 277 514 c 0
 271 486 256 462 233 445 c 1
 299 466 349 531 370 598 c 1
 397 602 l 1
 404 581 410 560 410 533 c 0
 410 519 408 503 404 484 c 0
 372 334 197 299 166 151 c 0
 164 141 163 133 163 124 c 0
 163 66 209 32 282 32 c 0
 365 32 434 79 453 170 c 2
 545 600 l 1
 608 600 l 1
 516 170 l 2
 493 62 397 -17 271 -17 c 0
 161 -17 97 36 97 114 c 0
 97 125 99 136 101 147 c 0
191 573 m 0
 156 573 126 548 119 514 c 0
 118 509 118 504 118 500 c 0
 118 473 136 455 166 455 c 0
 201 455 230 480 237 514 c 0
 238 519 238 524 238 528 c 0
 238 555 221 573 191 573 c 0
EndSplineSet
PickledDataWithLists: "(dp0
Vcom.fontlab.hintData
p1
(dp2
Vvhints
p3
(lp4
(dp5
Vposition
p6
L11L
sVwidth
p7
L10L
sa(dp8
g6
L224L
sg7
L10L
sa(dp9
g6
L230L
sg7
L10L
sa(dp10
g6
L297L
sg7
L10L
sasVhhints
p11
(lp12
(dp13
g6
L-24L
sg7
L10L
sa(dp14
g6
L400L
sg7
L10L
sa(dp15
g6
L584L
sg7
L10L
sa(dp16
g6
L603L
sg7
L10L
sass."
EndChar

StartChar: uni0E04
Encoding: 3588 3588 130
GlifName: uni0E_04
Width: 665
VWidth: 0
GlyphClass: 2
Flags: HMW
LayerCount: 2
Fore
SplineSet
351 382 m 0
 316 382 287 357 280 323 c 0
 279 318 279 313 279 309 c 0
 279 282 296 264 326 264 c 0
 361 264 391 289 398 323 c 0
 399 328 399 333 399 337 c 0
 399 364 381 382 351 382 c 0
358 416 m 0
 409 416 440 386 440 343 c 0
 440 337 439 330 438 323 c 0
 427 269 377 230 319 230 c 0
 273 230 242 255 238 292 c 1
 203 248 166 186 140 110 c 1
 110 0 l 1
 40 0 l 1
 40 0 66 75 76 122 c 0
 99 229 79 251 112 407 c 0
 139 532 253 617 401 617 c 0
 530 617 607 552 607 453 c 0
 607 438 605 423 602 407 c 2
 515 0 l 1
 452 0 l 1
 475 110 l 2
 481 137 527 343 541 407 c 0
 544 421 545 435 545 447 c 0
 545 526 486 568 391 568 c 0
 281 568 195 512 173 407 c 0
 149 294 148 244 143 198 c 1
 181 278 233 351 282 389 c 0
 304 406 329 416 358 416 c 0
EndSplineSet
PickledDataWithLists: "(dp0
Vcom.fontlab.hintData
p1
(dp2
Vvhints
p3
(lp4
(dp5
Vposition
p6
L59L
sVwidth
p7
L10L
sa(dp8
g6
L142L
sg7
L10L
sa(dp9
g6
L381L
sg7
L10L
sa(dp10
g6
L439L
sg7
L10L
sa(dp11
g6
L508L
sg7
L10L
sa(dp12
g6
L590L
sg7
L10L
sasVhhints
p13
(lp14
(dp15
g6
L-19L
sg7
L10L
sa(dp16
g6
L-4L
sg7
L10L
sa(dp17
g6
L363L
sg7
L10L
sa(dp18
g6
L551L
sg7
L10L
sa(dp19
g6
L608L
sg7
L10L
sass."
EndChar

StartChar: uni0E05
Encoding: 3589 3589 131
GlifName: uni0E_05
Width: 665
VWidth: 0
GlyphClass: 2
Flags: HMW
LayerCount: 2
Fore
SplineSet
351 382 m 0
 316 382 287 357 280 323 c 0
 279 318 279 313 279 309 c 0
 279 282 296 264 326 264 c 0
 361 264 391 289 398 323 c 0
 399 328 399 333 399 337 c 0
 399 364 381 382 351 382 c 0
358 416 m 0
 409 416 440 386 440 343 c 0
 440 337 439 330 438 323 c 0
 427 269 377 230 319 230 c 0
 273 230 242 255 238 292 c 1
 203 248 166 186 140 110 c 1
 110 0 l 1
 40 0 l 1
 40 0 66 75 76 122 c 0
 99 229 79 251 112 407 c 0
 130 493 187 611 309 611 c 1
 382 527 l 1
 491 611 l 1
 583 611 609 545 609 475 c 0
 609 452 606 428 602 407 c 2
 515 0 l 1
 452 0 l 1
 475 110 l 2
 481 137 527 343 541 407 c 0
 546 431 549 453 549 472 c 0
 549 526 529 560 489 565 c 1
 382 486 l 1
 373 486 l 1
 364 486 l 1
 291 565 l 1
 235 558 190 497 171 407 c 0
 147 293 147 243 143 197 c 1
 181 278 233 351 282 389 c 0
 304 406 329 416 358 416 c 0
EndSplineSet
PickledDataWithLists: "(dp0
Vcom.fontlab.hintData
p1
(dp2
Vvhints
p3
(lp4
(dp5
Vposition
p6
L60L
sVwidth
p7
L10L
sa(dp8
g6
L142L
sg7
L10L
sa(dp9
g6
L444L
sg7
L10L
sa(dp10
g6
L508L
sg7
L10L
sa(dp11
g6
L590L
sg7
L10L
sasVhhints
p12
(lp13
(dp14
g6
L-18L
sg7
L10L
sa(dp15
g6
L-4L
sg7
L10L
sa(dp16
g6
L363L
sg7
L10L
sa(dp17
g6
L469L
sg7
L10L
sa(dp18
g6
L549L
sg7
L10L
sa(dp19
g6
L606L
sg7
L10L
sass."
EndChar

StartChar: uni0E06
Encoding: 3590 3590 132
GlifName: uni0E_06
Width: 650
VWidth: 0
GlyphClass: 2
Flags: HMW
LayerCount: 2
Fore
SplineSet
130 145 m 0
 95 145 65 120 58 86 c 0
 57 81 57 76 57 72 c 0
 57 45 75 27 105 27 c 0
 140 27 169 52 176 86 c 0
 177 91 177 96 177 100 c 0
 177 127 160 145 130 145 c 0
201 573 m 0
 166 573 136 548 129 514 c 0
 128 509 128 504 128 500 c 0
 128 473 146 455 176 455 c 0
 211 455 240 480 247 514 c 0
 248 519 248 524 248 528 c 0
 248 555 231 573 201 573 c 0
208 607 m 0
 258 607 289 577 289 534 c 0
 289 527 288 521 287 514 c 0
 281 486 266 462 243 445 c 1
 309 466 359 531 380 598 c 1
 407 602 l 1
 414 581 420 560 420 532 c 0
 420 518 418 502 414 483 c 0
 384 342 227 304 183 177 c 1
 309 172 392 116 442 59 c 1
 447 87 453 121 459 150 c 2
 555 600 l 1
 618 600 l 1
 490 0 l 1
 432 0 l 1
 394 61 318 121 214 135 c 1
 217 127 219 118 219 109 c 0
 219 101 218 94 216 86 c 0
 205 32 156 -7 98 -7 c 0
 47 -7 16 23 16 66 c 0
 16 72 17 79 18 86 c 0
 28 135 70 171 120 178 c 1
 172 325 340 358 368 490 c 0
 370 499 372 508 372 515 c 1
 336 457 276 410 190 410 c 0
 116 410 86 443 86 489 c 0
 86 497 87 505 89 514 c 0
 100 568 150 607 208 607 c 0
EndSplineSet
PickledDataWithLists: "(dp0
Vcom.fontlab.hintData
p1
(dp2
Vvhints
p3
(lp4
(dp5
Vposition
p6
L11L
sVwidth
p7
L10L
sa(dp8
g6
L35L
sg7
L10L
sa(dp9
g6
L110L
sg7
L10L
sa(dp10
g6
L239L
sg7
L10L
sa(dp11
g6
L251L
sg7
L10L
sa(dp12
g6
L317L
sg7
L10L
sa(dp13
g6
L325L
sg7
L10L
sa(dp14
g6
L486L
sg7
L10L
sa(dp15
g6
L494L
sg7
L10L
sa(dp16
g6
L566L
sg7
L10L
sa(dp17
g6
L576L
sg7
L10L
sasVhhints
p18
(lp19
(dp20
g6
L-27L
sg7
L10L
sa(dp21
g6
L223L
sg7
L10L
sa(dp22
g6
L277L
sg7
L10L
sa(dp23
g6
L403L
sg7
L10L
sa(dp24
g6
L598L
sg7
L10L
sa(dp25
g6
L608L
sg7
L10L
sass."
EndChar

StartChar: uni0E07
Encoding: 3591 3591 133
GlifName: uni0E_07
Width: 525
VWidth: 0
GlyphClass: 2
Flags: HMW
AnchorPoint: "ThaiAbove.mark" 485 0 basechar 0
LayerCount: 2
Fore
SplineSet
368 573 m 0
 333 573 303 548 296 514 c 0
 295 509 295 504 295 500 c 0
 295 473 313 455 343 455 c 0
 378 455 407 480 414 514 c 0
 415 519 415 524 415 528 c 0
 415 555 398 573 368 573 c 0
37 337 m 1
 84 374 l 1
 328 52 l 1
 328 69 328 99 335 130 c 2
 374 315 l 2
 388 381 403 404 416 450 c 1
 394 432 366 421 335 421 c 0
 285 421 254 451 254 494 c 0
 254 501 255 507 256 514 c 0
 267 568 317 607 375 607 c 0
 444 607 480 572 480 511 c 0
 480 498 478 484 475 469 c 0
 463 411 450 380 435 310 c 2
 369 0 l 1
 302 0 l 1
 37 337 l 1
EndSplineSet
PickledDataWithLists: "(dp0
Vcom.fontlab.hintData
p1
(dp2
Vvhints
p3
(lp4
(dp5
Vposition
p6
L41L
sVwidth
p7
L10L
sa(dp8
g6
L151L
sg7
L10L
sa(dp9
g6
L381L
sg7
L10L
sa(dp10
g6
L469L
sg7
L10L
sasVhhints
p11
(lp12
(dp13
g6
L-26L
sg7
L10L
sa(dp14
g6
L355L
sg7
L10L
sa(dp15
g6
L504L
sg7
L10L
sa(dp16
g6
L549L
sg7
L10L
sa(dp17
g6
L611L
sg7
L10L
sass."
EndChar

StartChar: uni0E08
Encoding: 3592 3592 134
GlifName: uni0E_08
Width: 590
VWidth: 0
GlyphClass: 2
Flags: HMW
AnchorPoint: "ThaiBelow.mark" 500 0 basechar 0
LayerCount: 2
Fore
SplineSet
78 437 m 1
 110 532 206 617 346 617 c 0
 467 617 539 557 539 465 c 0
 539 452 538 438 535 424 c 0
 502 269 427 199 404 90 c 2
 385 0 l 1
 316 0 l 1
 320 31 323 61 323 90 c 0
 323 153 312 209 294 249 c 1
 277 205 232 174 181 174 c 0
 131 174 100 204 100 247 c 0
 100 254 101 260 102 267 c 0
 113 321 163 360 221 360 c 0
 328 360 359 239 359 118 c 0
 359 116 359 114 359 112 c 1
 384 225 442 282 472 424 c 0
 475 437 476 449 476 460 c 0
 476 531 422 568 336 568 c 0
 238 568 169 514 141 433 c 1
 78 437 l 1
188 208 m 0
 223 208 253 233 260 267 c 0
 261 272 261 277 261 281 c 0
 261 308 243 326 213 326 c 0
 178 326 149 301 142 267 c 0
 141 262 141 257 141 253 c 0
 141 226 158 208 188 208 c 0
EndSplineSet
PickledDataWithLists: "(dp0
Vcom.fontlab.hintData
p1
(dp2
Vvhints
p3
(lp4
(dp5
Vposition
p6
L31L
sVwidth
p7
L10L
sa(dp8
g6
L101L
sg7
L10L
sa(dp9
g6
L444L
sg7
L10L
sa(dp10
g6
L529L
sg7
L10L
sasVhhints
p11
(lp12
(dp13
g6
L-11L
sg7
L10L
sa(dp14
g6
L229L
sg7
L10L
sa(dp15
g6
L307L
sg7
L10L
sa(dp16
g6
L429L
sg7
L10L
sa(dp17
g6
L552L
sg7
L9L
sa(dp18
g6
L614L
sg7
L10L
sass."
EndChar

StartChar: uni0E09
Encoding: 3593 3593 135
GlifName: uni0E_09
Width: 645
VWidth: 0
GlyphClass: 2
Flags: HMW
LayerCount: 2
Fore
SplineSet
101 0 m 1
 126 116 l 2
 131 141 141 160 153 176 c 1
 146 175 139 174 132 174 c 0
 82 174 51 204 51 247 c 0
 51 254 52 260 53 267 c 0
 64 321 114 360 172 360 c 0
 222 360 253 330 253 287 c 0
 253 280 252 274 251 267 c 0
 239 211 202 189 190 133 c 2
 175 61 l 2
 175 60 174 58 174 57 c 1
 243 116 335 177 439 181 c 1
 453 192 465 203 469 220 c 2
 510 416 l 2
 513 430 514 442 514 454 c 0
 514 529 458 568 366 568 c 0
 261 568 188 509 158 424 c 1
 96 430 l 1
 130 529 230 617 376 617 c 0
 502 617 578 556 578 460 c 0
 578 446 576 431 573 416 c 2
 534 230 l 2
 529 206 511 190 489 177 c 1
 526 170 549 144 549 107 c 0
 549 100 549 93 547 86 c 0
 536 32 487 -7 429 -7 c 0
 378 -7 347 23 347 66 c 0
 347 72 348 79 349 86 c 0
 353 103 361 119 371 132 c 1
 292 110 214 54 159 0 c 1
 101 0 l 1
461 145 m 0
 426 145 396 120 389 86 c 0
 388 81 388 76 388 72 c 0
 388 45 406 27 436 27 c 0
 471 27 500 52 507 86 c 0
 508 91 508 96 508 100 c 0
 508 127 491 145 461 145 c 0
164 326 m 0
 129 326 100 301 93 267 c 0
 92 262 92 257 92 253 c 0
 92 226 109 208 139 208 c 0
 174 208 204 233 211 267 c 0
 212 272 212 277 212 281 c 0
 212 308 194 326 164 326 c 0
EndSplineSet
PickledDataWithLists: "(dp0
Vcom.fontlab.hintData
p1
(dp2
Vvhints
p3
(lp4
(dp5
Vposition
p6
L33L
sVwidth
p7
L10L
sa(dp8
g6
L87L
sg7
L10L
sa(dp9
g6
L156L
sg7
L10L
sa(dp10
g6
L410L
sg7
L10L
sa(dp11
g6
L426L
sg7
L10L
sa(dp12
g6
L480L
sg7
L10L
sa(dp13
g6
L498L
sg7
L10L
sa(dp14
g6
L570L
sg7
L10L
sa(dp15
g6
L640L
sg7
L10L
sasVhhints
p16
(lp17
(dp18
g6
L-19L
sg7
L10L
sa(dp19
g6
L29L
sg7
L10L
sa(dp20
g6
L231L
sg7
L10L
sa(dp21
g6
L279L
sg7
L10L
sa(dp22
g6
L318L
sg7
L10L
sa(dp23
g6
L431L
sg7
L10L
sa(dp24
g6
L557L
sg7
L10L
sa(dp25
g6
L616L
sg7
L10L
sass."
EndChar

StartChar: uni0E0A
Encoding: 3594 3594 136
GlifName: uni0E_0A_
Width: 640
VWidth: 0
GlyphClass: 2
Flags: HMW
LayerCount: 2
Fore
SplineSet
183 537 m 0
 148 537 119 512 112 478 c 0
 111 473 111 468 111 464 c 0
 111 437 128 419 158 419 c 0
 193 419 223 444 230 478 c 0
 231 483 231 488 231 492 c 0
 231 519 213 537 183 537 c 0
401 474 m 1
 497 482 575 537 599 621 c 1
 661 616 l 1
 638 538 560 477 471 456 c 1
 520 444 559 421 559 378 c 0
 559 372 558 366 557 360 c 2
 516 170 l 2
 493 62 397 -17 271 -17 c 0
 161 -17 97 36 97 114 c 0
 97 125 99 136 101 147 c 0
 138 323 323 342 352 477 c 0
 354 485 355 494 355 501 c 0
 355 549 318 576 252 576 c 0
 235 576 219 574 203 570 c 1
 246 566 272 538 272 499 c 0
 272 492 272 485 270 478 c 0
 259 424 209 385 151 385 c 0
 101 385 70 415 70 458 c 0
 70 465 71 471 72 478 c 0
 87 549 160 611 265 611 c 0
 354 611 404 569 404 503 c 0
 404 494 403 484 401 474 c 1
389 437 m 1
 340 318 194 286 165 151 c 0
 163 141 162 132 162 124 c 0
 162 66 209 32 282 32 c 0
 365 32 434 79 453 170 c 2
 494 360 l 2
 495 365 496 369 496 374 c 0
 496 409 465 433 389 437 c 1
EndSplineSet
PickledDataWithLists: "(dp0
Vcom.fontlab.hintData
p1
(dp2
Vvhints
p3
(lp4
(dp5
Vposition
p6
L44L
sVwidth
p7
L10L
sa(dp8
g6
L186L
sg7
L10L
sa(dp9
g6
L197L
sg7
L10L
sa(dp10
g6
L268L
sg7
L10L
sa(dp11
g6
L279L
sg7
L10L
sa(dp12
g6
L473L
sg7
L10L
sa(dp13
g6
L555L
sg7
L10L
sa(dp14
g6
L586L
sg7
L10L
sasVhhints
p15
(lp16
(dp17
g6
L-29L
sg7
L10L
sa(dp18
g6
L29L
sg7
L10L
sa(dp19
g6
L437L
sg7
L10L
sa(dp20
g6
L599L
sg7
L10L
sa(dp21
g6
L644L
sg7
L10L
sass."
EndChar

StartChar: uni0E0B
Encoding: 3595 3595 137
GlifName: uni0E_0B_
Width: 640
VWidth: 0
GlyphClass: 2
Flags: HMW
LayerCount: 2
Fore
SplineSet
101 147 m 0
 138 323 328 348 358 490 c 0
 360 499 361 507 362 515 c 1
 326 457 266 410 180 410 c 0
 106 410 76 443 76 489 c 0
 76 497 77 505 79 514 c 0
 90 568 140 607 198 607 c 0
 248 607 279 577 279 534 c 0
 279 527 278 521 277 514 c 0
 271 486 256 462 233 445 c 1
 299 466 349 531 370 598 c 1
 397 602 l 1
 404 581 410 560 410 533 c 0
 410 519 408 503 404 484 c 0
 403 481 403 477 402 474 c 1
 498 482 575 537 599 621 c 1
 661 616 l 1
 638 538 560 477 471 456 c 1
 520 444 559 421 559 378 c 0
 559 372 558 366 557 360 c 2
 516 170 l 2
 493 62 397 -17 271 -17 c 0
 161 -17 97 36 97 114 c 0
 97 125 99 136 101 147 c 0
191 573 m 0
 156 573 126 548 119 514 c 0
 118 509 118 504 118 500 c 0
 118 473 136 455 166 455 c 0
 201 455 230 480 237 514 c 0
 238 519 238 524 238 528 c 0
 238 555 221 573 191 573 c 0
494 360 m 2
 495 365 496 369 496 374 c 0
 496 409 465 433 388 437 c 1
 334 325 194 282 166 151 c 0
 164 141 163 133 163 124 c 0
 163 66 209 32 282 32 c 0
 365 32 434 79 453 170 c 2
 494 360 l 2
EndSplineSet
PickledDataWithLists: "(dp0
Vcom.fontlab.hintData
p1
(dp2
Vvhints
p3
(lp4
(dp5
Vposition
p6
L11L
sVwidth
p7
L10L
sa(dp8
g6
L199L
sg7
L10L
sa(dp9
g6
L226L
sg7
L10L
sa(dp10
g6
L278L
sg7
L10L
sa(dp11
g6
L296L
sg7
L10L
sa(dp12
g6
L474L
sg7
L10L
sa(dp13
g6
L556L
sg7
L10L
sa(dp14
g6
L586L
sg7
L10L
sasVhhints
p15
(lp16
(dp17
g6
L-24L
sg7
L10L
sa(dp18
g6
L34L
sg7
L10L
sa(dp19
g6
L398L
sg7
L10L
sa(dp20
g6
L603L
sg7
L10L
sa(dp21
g6
L608L
sg7
L10L
sa(dp22
g6
L644L
sg7
L10L
sass."
EndChar

StartChar: uni0E0C
Encoding: 3596 3596 138
GlifName: uni0E_0C_
Width: 950
VWidth: 0
GlyphClass: 2
Flags: HMW
LayerCount: 2
Fore
SplineSet
171 145 m 0
 136 145 106 120 99 86 c 0
 98 81 98 76 98 72 c 0
 98 45 116 27 146 27 c 0
 181 27 210 52 217 86 c 0
 218 91 218 96 218 100 c 0
 218 127 201 145 171 145 c 0
178 179 m 0
 228 179 259 149 259 106 c 0
 259 99 258 93 257 86 c 0
 246 32 197 -7 139 -7 c 0
 88 -7 57 23 57 66 c 0
 57 72 58 79 59 86 c 0
 69 131 91 166 100 210 c 2
 119 299 l 2
 131 355 164 388 213 400 c 1
 94 422 l 1
 130 525 233 617 385 617 c 0
 517 617 596 553 596 453 c 0
 596 439 594 423 591 407 c 2
 551 220 l 2
 548 207 547 196 547 186 c 0
 547 181 548 177 548 172 c 1
 642 164 703 114 742 59 c 1
 747 87 753 121 759 150 c 2
 855 600 l 1
 918 600 l 1
 790 0 l 1
 732 0 l 1
 697 62 639 120 552 131 c 1
 552 128 552 125 552 122 c 0
 552 112 551 100 548 86 c 0
 537 32 488 -7 430 -7 c 0
 379 -7 348 23 348 66 c 0
 348 72 349 79 350 86 c 0
 361 140 411 179 469 179 c 0
 478 179 485 178 493 176 c 1
 490 185 488 196 488 208 c 0
 488 218 489 228 492 240 c 2
 528 407 l 2
 531 421 532 434 532 446 c 0
 532 526 472 568 375 568 c 0
 274 568 202 517 166 441 c 1
 317 412 l 1
 303 382 l 1
 299 383 283 384 274 384 c 0
 228 384 195 359 183 304 c 2
 169 240 l 2
 163 214 154 191 144 174 c 1
 155 177 166 179 178 179 c 0
462 145 m 0
 427 145 397 120 390 86 c 0
 389 81 389 76 389 72 c 0
 389 45 407 27 437 27 c 0
 472 27 501 52 508 86 c 0
 509 91 509 96 509 100 c 0
 509 127 492 145 462 145 c 0
EndSplineSet
PickledDataWithLists: "(dp0
Vcom.fontlab.hintData
p1
(dp2
Vvhints
p3
(lp4
(dp5
Vposition
p6
L84L
sVwidth
p7
L10L
sa(dp8
g6
L93L
sg7
L10L
sa(dp9
g6
L114L
sg7
L10L
sa(dp10
g6
L166L
sg7
L10L
sa(dp11
g6
L196L
sg7
L10L
sa(dp12
g6
L343L
sg7
L10L
sa(dp13
g6
L414L
sg7
L10L
sa(dp14
g6
L502L
sg7
L10L
sa(dp15
g6
L507L
sg7
L10L
sa(dp16
g6
L576L
sg7
L10L
sa(dp17
g6
L780L
sg7
L10L
sa(dp18
g6
L789L
sg7
L10L
sa(dp19
g6
L861L
sg7
L10L
sa(dp20
g6
L871L
sg7
L10L
sasVhhints
p21
(lp22
(dp23
g6
L-26L
sg7
L10L
sa(dp24
g6
L-17L
sg7
L10L
sa(dp25
g6
L41L
sg7
L10L
sa(dp26
g6
L234L
sg7
L10L
sa(dp27
g6
L286L
sg7
L10L
sa(dp28
g6
L546L
sg7
L10L
sa(dp29
g6
L593L
sg7
L10L
sa(dp30
g6
L604L
sg7
L10L
sass."
EndChar

StartChar: uni0E0D
Encoding: 3597 3597 139
GlifName: uni0E_0D_
Width: 950
VWidth: 0
GlyphClass: 2
Flags: HMW
LayerCount: 2
Fore
SplineSet
170 143 m 0
 135 143 106 118 99 84 c 0
 98 79 98 74 98 70 c 0
 98 43 115 25 145 25 c 0
 180 25 210 50 217 84 c 0
 218 89 218 94 218 98 c 0
 218 125 200 143 170 143 c 0
178 177 m 0
 228 177 259 147 259 104 c 0
 259 97 258 91 257 84 c 0
 246 30 196 -9 138 -9 c 0
 88 -9 57 21 57 64 c 0
 57 71 58 77 59 84 c 0
 69 129 90 164 99 208 c 2
 118 297 l 2
 130 353 164 386 213 398 c 1
 93 420 l 1
 129 523 233 615 385 615 c 0
 517 615 595 550 595 451 c 0
 595 436 593 421 590 405 c 2
 534 142 l 2
 532 131 530 120 530 111 c 0
 530 57 568 30 624 30 c 0
 690 30 746 68 762 142 c 2
 859 598 l 1
 922 598 l 1
 825 142 l 2
 805 50 722 -19 614 -19 c 0
 521 -19 467 33 467 106 c 0
 467 118 468 129 471 142 c 2
 527 405 l 2
 530 419 531 432 531 444 c 0
 531 524 471 566 374 566 c 0
 273 566 201 515 165 439 c 1
 316 410 l 1
 303 380 l 1
 299 381 282 382 273 382 c 0
 227 382 194 357 182 302 c 2
 169 238 l 2
 163 212 154 189 144 172 c 1
 155 175 166 177 178 177 c 0
501 -105 m 0
 474 -105 452 -124 446 -150 c 0
 445 -154 445 -158 445 -161 c 0
 445 -181 459 -195 482 -195 c 0
 509 -195 530 -176 536 -150 c 0
 537 -146 537 -143 537 -139 c 0
 537 -119 524 -105 501 -105 c 0
507 -75 m 0
 548 -75 573 -98 573 -133 c 0
 573 -138 572 -144 571 -150 c 0
 565 -180 544 -204 517 -216 c 1
 526 -216 536 -216 545 -216 c 2
 575 -216 l 2
 643 -216 704 -181 724 -88 c 1
 773 -93 l 1
 752 -192 671 -250 575 -250 c 2
 525 -250 l 2
 451 -250 408 -222 408 -172 c 0
 408 -165 409 -158 411 -150 c 0
 420 -106 460 -75 507 -75 c 0
EndSplineSet
PickledDataWithLists: "(dp0
Vcom.fontlab.hintData
p1
(dp2
Vvhints
p3
(lp4
(dp5
Vposition
p6
L81L
sVwidth
p7
L10L
sa(dp8
g6
L101L
sg7
L10L
sa(dp9
g6
L169L
sg7
L10L
sa(dp10
g6
L189L
sg7
L10L
sa(dp11
g6
L315L
sg7
L10L
sa(dp12
g6
L471L
sg7
L10L
sa(dp13
g6
L476L
sg7
L10L
sa(dp14
g6
L513L
sg7
L10L
sa(dp15
g6
L559L
sg7
L10L
sa(dp16
g6
L564L
sg7
L10L
sa(dp17
g6
L591L
sg7
L10L
sa(dp18
g6
L771L
sg7
L10L
sa(dp19
g6
L781L
sg7
L10L
sa(dp20
g6
L859L
sg7
L10L
sa(dp21
g6
L869L
sg7
L10L
sa(dp22
g6
L879L
sg7
L10L
sasVhhints
p23
(lp24
(dp25
g6
L-252L
sg7
L10L
sa(dp26
g6
L-197L
sg7
L10L
sa(dp27
g6
L-98L
sg7
L10L
sa(dp28
g6
L-19L
sg7
L10L
sa(dp29
g6
L43L
sg7
L10L
sa(dp30
g6
L56L
sg7
L10L
sa(dp31
g6
L544L
sg7
L10L
sa(dp32
g6
L595L
sg7
L10L
sa(dp33
g6
L606L
sg7
L10L
sass."
Substitution2: "ThaiRC.rd subtable" uni0E0D.rd
Colour: ff00ff
EndChar

StartChar: uni0E0D.rd
Encoding: 63642 63642 140
GlifName: uni0E_0D_.rd
Width: 950
VWidth: 0
GlyphClass: 2
Flags: HMW
LayerCount: 2
Fore
SplineSet
170 143 m 0
 135 143 106 118 99 84 c 0
 98 79 98 74 98 70 c 0
 98 43 115 25 145 25 c 0
 180 25 210 50 217 84 c 0
 218 89 218 94 218 98 c 0
 218 125 200 143 170 143 c 0
178 177 m 0
 228 177 259 147 259 104 c 0
 259 97 258 91 257 84 c 0
 246 30 196 -9 138 -9 c 0
 88 -9 57 21 57 64 c 0
 57 71 58 77 59 84 c 0
 69 129 90 164 99 208 c 2
 118 297 l 2
 130 353 164 386 213 398 c 1
 93 420 l 1
 129 523 233 615 385 615 c 0
 517 615 595 550 595 451 c 0
 595 436 593 421 590 405 c 2
 534 142 l 2
 532 131 530 120 530 111 c 0
 530 57 568 30 624 30 c 0
 690 30 746 68 762 142 c 2
 859 598 l 1
 922 598 l 1
 825 142 l 2
 805 50 722 -19 614 -19 c 0
 521 -19 467 33 467 106 c 0
 467 118 468 129 471 142 c 2
 527 405 l 2
 530 419 531 432 531 444 c 0
 531 524 471 566 374 566 c 0
 273 566 201 515 165 439 c 1
 316 410 l 1
 303 380 l 1
 299 381 282 382 273 382 c 0
 227 382 194 357 182 302 c 2
 169 238 l 2
 163 212 154 189 144 172 c 1
 155 175 166 177 178 177 c 0
EndSplineSet
PickledDataWithLists: "(dp0
Vcom.fontlab.hintData
p1
(dp2
Vvhints
p3
(lp4
(dp5
Vposition
p6
L81L
sVwidth
p7
L10L
sa(dp8
g6
L101L
sg7
L10L
sa(dp9
g6
L169L
sg7
L10L
sa(dp10
g6
L189L
sg7
L10L
sa(dp11
g6
L315L
sg7
L10L
sa(dp12
g6
L471L
sg7
L10L
sa(dp13
g6
L476L
sg7
L10L
sa(dp14
g6
L559L
sg7
L10L
sa(dp15
g6
L564L
sg7
L10L
sa(dp16
g6
L771L
sg7
L10L
sa(dp17
g6
L781L
sg7
L10L
sa(dp18
g6
L859L
sg7
L10L
sa(dp19
g6
L869L
sg7
L10L
sasVhhints
p20
(lp21
(dp22
g6
L-19L
sg7
L10L
sa(dp23
g6
L43L
sg7
L10L
sa(dp24
g6
L56L
sg7
L10L
sa(dp25
g6
L544L
sg7
L10L
sa(dp26
g6
L595L
sg7
L10L
sa(dp27
g6
L606L
sg7
L10L
sass."
EndChar

StartChar: uni0E0E
Encoding: 3598 3598 141
GlifName: uni0E_0E_
Width: 665
VWidth: 0
GlyphClass: 2
Flags: HMW
LayerCount: 2
Fore
SplineSet
113 145 m 0
 78 145 48 120 41 86 c 0
 40 81 40 76 40 72 c 0
 40 45 58 27 88 27 c 0
 123 27 152 52 159 86 c 0
 160 91 160 96 160 100 c 0
 160 127 143 145 113 145 c 0
415 -190 m 1
 419 -165 424 -131 434 -85 c 2
 539 407 l 2
 542 421 543 434 543 446 c 0
 543 526 483 568 386 568 c 0
 286 568 213 517 177 442 c 1
 358 412 l 1
 344 382 l 1
 340 383 324 384 315 384 c 0
 269 384 236 359 224 304 c 2
 204 210 l 2
 202 198 201 187 201 176 c 0
 201 158 203 141 203 123 c 0
 203 111 202 99 199 86 c 0
 188 32 139 -7 81 -7 c 0
 30 -7 -1 23 -1 66 c 0
 -1 72 0 79 1 86 c 0
 12 140 62 179 120 179 c 0
 129 179 137 178 145 176 c 1
 144 184 143 193 143 203 c 0
 143 214 144 226 147 240 c 2
 160 299 l 2
 172 354 205 387 253 400 c 1
 105 422 l 1
 141 525 244 617 396 617 c 0
 528 617 607 553 607 453 c 0
 607 439 605 423 602 407 c 2
 497 -85 l 1
 465 -235 l 1
 408 -235 l 1
 358 -195 290 -147 225 -122 c 1
 227 -127 228 -133 228 -140 c 0
 228 -146 227 -153 226 -159 c 0
 216 -205 172 -244 115 -244 c 0
 68 -244 38 -220 38 -179 c 0
 38 -173 39 -166 40 -159 c 0
 51 -106 98 -74 153 -74 c 0
 241 -74 342 -135 415 -190 c 1
181 -109 m 1
 169 -107 158 -106 147 -106 c 0
 117 -106 87 -124 80 -159 c 0
 79 -163 79 -167 79 -171 c 0
 79 -197 99 -212 124 -212 c 0
 157 -212 185 -191 192 -159 c 0
 193 -153 194 -147 194 -142 c 0
 194 -128 189 -117 181 -109 c 1
EndSplineSet
PickledDataWithLists: "(dp0
Vcom.fontlab.hintData
p1
(dp2
Vvhints
p3
(lp4
(dp5
Vposition
p6
L26L
sVwidth
p7
L10L
sa(dp8
g6
L81L
sg7
L10L
sa(dp9
g6
L126L
sg7
L10L
sa(dp10
g6
L219L
sg7
L10L
sa(dp11
g6
L470L
sg7
L10L
sa(dp12
g6
L476L
sg7
L10L
sa(dp13
g6
L556L
sg7
L10L
sa(dp14
g6
L564L
sg7
L10L
sasVhhints
p15
(lp16
(dp17
g6
L-242L
sg7
L10L
sa(dp18
g6
L-235L
sg7
L10L
sa(dp19
g6
L-137L
sg7
L10L
sa(dp20
g6
L-87L
sg7
L10L
sa(dp21
g6
L-16L
sg7
L10L
sa(dp22
g6
L66L
sg7
L10L
sa(dp23
g6
L544L
sg7
L10L
sa(dp24
g6
L606L
sg7
L10L
sass."
EndChar

StartChar: uni0E0F
Encoding: 3599 3599 142
GlifName: uni0E_0F_
Width: 665
VWidth: 0
GlyphClass: 2
Flags: HMW
LayerCount: 2
Fore
SplineSet
65 -159 m 0
 64 -163 64 -167 64 -171 c 0
 64 -198 85 -212 111 -212 c 0
 123 -212 134 -211 146 -208 c 1
 160 -197 172 -181 177 -159 c 0
 178 -155 178 -151 178 -147 c 0
 178 -122 160 -106 131 -106 c 0
 102 -106 72 -125 65 -159 c 0
408 -235 m 1
 295 -129 l 1
 279 -152 254 -178 224 -200 c 0
 189 -225 145 -244 102 -244 c 0
 54 -244 23 -219 23 -178 c 0
 23 -172 24 -166 25 -159 c 0
 36 -107 82 -74 136 -74 c 0
 185 -74 213 -103 213 -141 c 0
 213 -147 212 -153 211 -159 c 0
 210 -166 207 -173 204 -179 c 1
 205 -178 206 -178 207 -177 c 0
 243 -151 271 -109 284 -85 c 1
 305 -85 l 1
 414 -191 l 1
 418 -166 424 -131 434 -85 c 2
 539 407 l 2
 542 421 543 434 543 446 c 0
 543 526 483 568 386 568 c 0
 286 568 213 517 177 442 c 1
 358 412 l 1
 344 382 l 1
 340 383 324 384 315 384 c 0
 269 384 236 359 224 304 c 2
 204 210 l 2
 202 198 201 187 201 176 c 0
 201 158 203 141 203 123 c 0
 203 111 202 99 199 86 c 0
 188 32 139 -7 81 -7 c 0
 30 -7 -1 23 -1 66 c 0
 -1 72 0 79 1 86 c 0
 12 140 62 179 120 179 c 0
 129 179 137 178 145 176 c 1
 144 184 143 193 143 203 c 0
 143 214 144 226 147 240 c 2
 160 299 l 2
 172 354 205 387 253 400 c 1
 105 422 l 1
 141 525 244 617 396 617 c 0
 528 617 607 553 607 453 c 0
 607 439 605 423 602 407 c 2
 497 -85 l 1
 465 -235 l 1
 408 -235 l 1
113 145 m 0
 78 145 48 120 41 86 c 0
 40 81 40 76 40 72 c 0
 40 45 58 27 88 27 c 0
 123 27 152 52 159 86 c 0
 160 91 160 96 160 100 c 0
 160 127 143 145 113 145 c 0
EndSplineSet
PickledDataWithLists: "(dp0
Vcom.fontlab.hintData
p1
(dp2
Vvhints
p3
(lp4
(dp5
Vposition
p6
L26L
sVwidth
p7
L10L
sa(dp8
g6
L81L
sg7
L10L
sa(dp9
g6
L97L
sg7
L10L
sa(dp10
g6
L131L
sg7
L10L
sa(dp11
g6
L166L
sg7
L10L
sa(dp12
g6
L179L
sg7
L10L
sa(dp13
g6
L221L
sg7
L10L
sa(dp14
g6
L470L
sg7
L10L
sa(dp15
g6
L476L
sg7
L10L
sa(dp16
g6
L553L
sg7
L10L
sa(dp17
g6
L564L
sg7
L10L
sasVhhints
p18
(lp19
(dp20
g6
L-240L
sg7
L10L
sa(dp21
g6
L-234L
sg7
L10L
sa(dp22
g6
L-191L
sg7
L10L
sa(dp23
g6
L-88L
sg7
L10L
sa(dp24
g6
L-83L
sg7
L10L
sa(dp25
g6
L-16L
sg7
L10L
sa(dp26
g6
L66L
sg7
L10L
sa(dp27
g6
L544L
sg7
L10L
sa(dp28
g6
L606L
sg7
L10L
sass."
EndChar

StartChar: uni0E10
Encoding: 3600 3600 143
GlifName: uni0E_10
Width: 555
VWidth: 0
GlyphClass: 2
Flags: HMW
AnchorPoint: "ThaiTone.mark" 475 0 basechar 0
AnchorPoint: "ThaiAbove.mark" 515 0 basechar 0
LayerCount: 2
Fore
SplineSet
167 296 m 0
 132 296 102 271 95 237 c 0
 94 232 94 227 94 223 c 0
 94 196 112 178 142 178 c 0
 177 178 206 203 213 237 c 0
 214 242 214 247 214 251 c 0
 214 278 197 296 167 296 c 0
174 330 m 0
 284 330 316 206 316 93 c 0
 316 91 316 90 316 88 c 1
 334 160 383 234 399 308 c 0
 400 314 401 319 401 324 c 0
 401 388 310 417 94 417 c 1
 97 432 l 2
 121 545 217 617 332 617 c 0
 420 617 464 577 484 546 c 1
 493 559 l 1
 536 611 l 1
 583 601 l 1
 582 598 l 1
 487 500 l 1
 465 500 l 1
 454 524 421 573 332 573 c 0
 257 573 187 535 162 450 c 1
 358 446 464 417 464 337 c 0
 464 330 464 323 462 315 c 0
 444 229 375 141 358 60 c 2
 345 0 l 1
 277 0 l 1
 280 24 282 48 282 72 c 0
 282 131 272 187 251 227 c 1
 236 178 189 144 135 144 c 0
 84 144 53 174 53 217 c 0
 53 223 54 230 55 237 c 0
 66 291 116 330 174 330 c 0
21 -159 m 0
 20 -163 20 -167 20 -171 c 0
 20 -198 41 -212 67 -212 c 0
 79 -212 90 -211 102 -208 c 1
 116 -197 128 -181 133 -159 c 0
 134 -155 134 -151 134 -147 c 0
 134 -122 116 -106 87 -106 c 0
 58 -106 28 -125 21 -159 c 0
160 -179 m 1
 161 -178 162 -178 163 -177 c 0
 199 -151 227 -109 240 -85 c 1
 261 -85 l 1
 340 -186 l 1
 344 -162 351 -128 360 -85 c 1
 410 -85 l 1
 378 -235 l 1
 334 -235 l 1
 249 -131 l 1
 233 -153 208 -179 180 -200 c 0
 145 -225 101 -244 58 -244 c 0
 10 -244 -21 -219 -21 -178 c 0
 -21 -172 -20 -166 -19 -159 c 0
 -8 -107 38 -74 92 -74 c 0
 141 -74 169 -103 169 -141 c 0
 169 -147 168 -153 167 -159 c 0
 166 -166 163 -173 160 -179 c 1
EndSplineSet
PickledDataWithLists: "(dp0
Vcom.fontlab.hintData
p1
(dp2
Vvhints
p3
(lp4
(dp5
Vposition
p6
L30L
sVwidth
p7
L10L
sa(dp8
g6
L80L
sg7
L10L
sa(dp9
g6
L89L
sg7
L10L
sa(dp10
g6
L110L
sg7
L10L
sa(dp11
g6
L149L
sg7
L10L
sa(dp12
g6
L160L
sg7
L10L
sa(dp13
g6
L434L
sg7
L10L
sa(dp14
g6
L504L
sg7
L10L
sa(dp15
g6
L510L
sg7
L10L
sa(dp16
g6
L516L
sg7
L10L
sa(dp17
g6
L569L
sg7
L10L
sasVhhints
p18
(lp19
(dp20
g6
L-237L
sg7
L10L
sa(dp21
g6
L-229L
sg7
L10L
sa(dp22
g6
L-189L
sg7
L10L
sa(dp23
g6
L-92L
sg7
L10L
sa(dp24
g6
L-87L
sg7
L10L
sa(dp25
g6
L-72L
sg7
L10L
sa(dp26
g6
L-9L
sg7
L10L
sa(dp27
g6
L197L
sg7
L10L
sa(dp28
g6
L215L
sg7
L10L
sa(dp29
g6
L272L
sg7
L10L
sa(dp30
g6
L366L
sg7
L10L
sa(dp31
g6
L420L
sg7
L10L
sa(dp32
g6
L558L
sg7
L10L
sa(dp33
g6
L612L
sg7
L10L
sa(dp34
g6
L652L
sg7
L10L
sass."
Substitution2: "ThaiRC.rd subtable" uni0E10.rd
Colour: ff00ff
EndChar

StartChar: uni0E10.rd
Encoding: 63646 63646 144
GlifName: uni0E_10.rd
Width: 555
VWidth: 0
GlyphClass: 2
Flags: HMW
AnchorPoint: "ThaiBelow.mark" 450 0 basechar 0
AnchorPoint: "ThaiTone.mark" 475 0 basechar 0
AnchorPoint: "ThaiAbove.mark" 515 0 basechar 0
LayerCount: 2
Fore
SplineSet
167 296 m 0
 132 296 102 271 95 237 c 0
 94 232 94 227 94 223 c 0
 94 196 112 178 142 178 c 0
 177 178 206 203 213 237 c 0
 214 242 214 247 214 251 c 0
 214 278 197 296 167 296 c 0
174 330 m 0
 284 330 316 206 316 93 c 0
 316 91 316 90 316 88 c 1
 334 160 383 234 399 308 c 0
 400 314 401 319 401 324 c 0
 401 388 310 417 94 417 c 1
 97 432 l 2
 121 545 217 617 332 617 c 0
 420 617 464 577 484 546 c 1
 493 559 l 1
 536 611 l 1
 583 601 l 1
 582 598 l 1
 487 500 l 1
 465 500 l 1
 454 524 421 573 332 573 c 0
 257 573 187 535 162 450 c 1
 358 446 464 417 464 337 c 0
 464 330 464 323 462 315 c 0
 444 229 375 141 358 60 c 2
 345 0 l 1
 277 0 l 1
 280 24 282 48 282 72 c 0
 282 131 272 187 251 227 c 1
 236 178 189 144 135 144 c 0
 84 144 53 174 53 217 c 0
 53 223 54 230 55 237 c 0
 66 291 116 330 174 330 c 0
EndSplineSet
PickledDataWithLists: "(dp0
Vcom.fontlab.hintData
p1
(dp2
Vvhints
p3
(lp4
(dp5
Vposition
p6
L30L
sVwidth
p7
L10L
sa(dp8
g6
L89L
sg7
L10L
sa(dp9
g6
L110L
sg7
L10L
sa(dp10
g6
L430L
sg7
L10L
sa(dp11
g6
L510L
sg7
L10L
sa(dp12
g6
L569L
sg7
L10L
sasVhhints
p13
(lp14
(dp15
g6
L-9L
sg7
L10L
sa(dp16
g6
L197L
sg7
L10L
sa(dp17
g6
L215L
sg7
L10L
sa(dp18
g6
L272L
sg7
L10L
sa(dp19
g6
L366L
sg7
L10L
sa(dp20
g6
L420L
sg7
L10L
sa(dp21
g6
L558L
sg7
L10L
sa(dp22
g6
L612L
sg7
L10L
sa(dp23
g6
L652L
sg7
L10L
sass."
EndChar

StartChar: uni0E11
Encoding: 3601 3601 145
GlifName: uni0E_11
Width: 665
VWidth: 0
GlyphClass: 2
Flags: HMW
LayerCount: 2
Fore
SplineSet
198 607 m 0
 248 607 279 577 279 534 c 0
 279 527 278 521 277 514 c 0
 271 486 256 462 233 445 c 1
 299 466 349 531 370 598 c 1
 397 602 l 1
 403 581 409 561 409 535 c 0
 409 525 408 513 406 500 c 1
 452 554 512 607 559 607 c 0
 607 607 621 576 621 540 c 0
 621 525 618 508 615 493 c 2
 510 0 l 1
 446 0 l 1
 549 484 l 2
 552 498 554 511 554 521 c 0
 554 542 547 553 528 554 c 1
 492 550 423 477 385 430 c 1
 332 322 208 279 181 150 c 2
 149 0 l 1
 85 0 l 1
 116 146 l 2
 153 322 328 348 358 490 c 0
 360 499 362 508 362 515 c 1
 326 457 266 410 180 410 c 0
 106 410 76 443 76 489 c 0
 76 497 77 505 79 514 c 0
 90 568 140 607 198 607 c 0
191 573 m 0
 156 573 126 548 119 514 c 0
 118 509 118 504 118 500 c 0
 118 473 136 455 166 455 c 0
 201 455 230 480 237 514 c 0
 238 519 238 524 238 528 c 0
 238 555 221 573 191 573 c 0
EndSplineSet
PickledDataWithLists: "(dp0
Vcom.fontlab.hintData
p1
(dp2
Vvhints
p3
(lp4
(dp5
Vposition
p6
L11L
sVwidth
p7
L10L
sa(dp8
g6
L161L
sg7
L10L
sa(dp9
g6
L235L
sg7
L10L
sa(dp10
g6
L283L
sg7
L10L
sa(dp11
g6
L524L
sg7
L10L
sa(dp12
g6
L529L
sg7
L10L
sa(dp13
g6
L606L
sg7
L10L
sa(dp14
g6
L608L
sg7
L10L
sasVhhints
p15
(lp16
(dp17
g6
L-15L
sg7
L10L
sa(dp18
g6
L-8L
sg7
L10L
sa(dp19
g6
L398L
sg7
L10L
sa(dp20
g6
L602L
sg7
L10L
sa(dp21
g6
L611L
sg7
L10L
sass."
EndChar

StartChar: uni0E12
Encoding: 3602 3602 146
GlifName: uni0E_12
Width: 960
VWidth: 0
GlyphClass: 2
Flags: HMW
LayerCount: 2
Fore
SplineSet
351 382 m 0
 316 382 287 357 280 323 c 0
 279 318 279 313 279 309 c 0
 279 282 296 264 326 264 c 0
 361 264 391 289 398 323 c 0
 399 328 399 333 399 337 c 0
 399 364 381 382 351 382 c 0
473 145 m 0
 438 145 408 120 401 86 c 0
 400 81 400 76 400 72 c 0
 400 45 418 27 448 27 c 0
 483 27 512 52 519 86 c 0
 520 91 520 96 520 100 c 0
 520 127 503 145 473 145 c 0
309 611 m 1
 382 527 l 1
 491 611 l 1
 583 611 609 545 609 475 c 0
 609 452 606 428 602 407 c 2
 562 220 l 2
 559 207 558 196 558 186 c 0
 558 181 559 177 559 172 c 1
 653 164 714 114 753 59 c 1
 758 87 764 121 770 150 c 2
 866 600 l 1
 929 600 l 1
 801 0 l 1
 743 0 l 1
 708 62 650 120 563 131 c 1
 563 128 563 125 563 122 c 0
 563 112 562 100 559 86 c 0
 548 32 499 -7 441 -7 c 0
 390 -7 359 23 359 66 c 0
 359 72 360 79 361 86 c 0
 372 140 422 179 480 179 c 0
 489 179 497 178 505 176 c 1
 502 184 501 194 501 205 c 0
 501 215 502 227 505 240 c 2
 541 407 l 2
 546 431 549 453 549 472 c 0
 549 526 529 560 489 565 c 1
 382 486 l 1
 373 486 l 1
 364 486 l 1
 291 565 l 1
 235 558 190 497 171 407 c 0
 139 257 155 224 140 153 c 2
 127 93 l 2
 126 88 125 81 124 74 c 1
 191 142 290 177 352 234 c 1
 341 231 331 230 319 230 c 0
 269 230 238 260 238 303 c 0
 238 310 239 316 240 323 c 0
 251 377 300 416 358 416 c 0
 409 416 440 386 440 343 c 0
 440 337 439 330 438 323 c 0
 404 163 175 126 112 0 c 1
 40 0 l 1
 40 0 66 75 76 122 c 0
 99 229 79 251 112 407 c 0
 130 493 187 611 309 611 c 1
EndSplineSet
PickledDataWithLists: "(dp0
Vcom.fontlab.hintData
p1
(dp2
Vvhints
p3
(lp4
(dp5
Vposition
p6
L64L
sVwidth
p7
L10L
sa(dp8
g6
L146L
sg7
L10L
sa(dp9
g6
L322L
sg7
L10L
sa(dp10
g6
L328L
sg7
L10L
sa(dp11
g6
L375L
sg7
L10L
sa(dp12
g6
L445L
sg7
L10L
sa(dp13
g6
L535L
sg7
L10L
sa(dp14
g6
L605L
sg7
L10L
sa(dp15
g6
L781L
sg7
L10L
sa(dp16
g6
L789L
sg7
L10L
sa(dp17
g6
L861L
sg7
L10L
sa(dp18
g6
L871L
sg7
L10L
sasVhhints
p19
(lp20
(dp21
g6
L-19L
sg7
L10L
sa(dp22
g6
L-15L
sg7
L10L
sa(dp23
g6
L37L
sg7
L10L
sa(dp24
g6
L241L
sg7
L10L
sa(dp25
g6
L289L
sg7
L10L
sa(dp26
g6
L412L
sg7
L10L
sa(dp27
g6
L546L
sg7
L10L
sa(dp28
g6
L587L
sg7
L10L
sa(dp29
g6
L593L
sg7
L10L
sa(dp30
g6
L603L
sg7
L10L
sass."
EndChar

StartChar: uni0E13
Encoding: 3603 3603 147
GlifName: uni0E_13
Width: 960
VWidth: 0
GlyphClass: 2
Flags: HMW
LayerCount: 2
Fore
SplineSet
172 145 m 0
 137 145 107 120 100 86 c 0
 99 81 99 76 99 72 c 0
 99 45 117 27 147 27 c 0
 182 27 211 52 218 86 c 0
 219 91 219 96 219 100 c 0
 219 127 202 145 172 145 c 0
179 179 m 0
 229 179 260 149 260 106 c 0
 260 99 259 93 258 86 c 0
 247 32 198 -7 140 -7 c 0
 89 -7 58 23 58 66 c 0
 58 72 59 79 60 86 c 0
 70 131 92 166 101 210 c 2
 120 299 l 2
 132 355 165 388 214 400 c 1
 95 422 l 1
 131 525 234 617 386 617 c 0
 518 617 597 553 597 453 c 0
 597 439 595 423 592 407 c 2
 537 150 l 2
 531 124 524 94 517 68 c 1
 579 128 658 177 748 181 c 1
 762 192 774 203 778 220 c 2
 859 600 l 1
 923 600 l 1
 844 230 l 2
 839 206 821 190 799 177 c 1
 836 169 858 143 858 107 c 0
 858 100 858 93 856 86 c 0
 845 32 796 -7 738 -7 c 0
 687 -7 656 23 656 66 c 0
 656 72 657 79 658 86 c 0
 662 103 669 119 679 132 c 1
 612 110 549 59 500 0 c 1
 442 0 l 1
 529 407 l 2
 532 421 533 434 533 446 c 0
 533 526 473 568 376 568 c 0
 275 568 203 517 167 441 c 1
 318 412 l 1
 304 382 l 1
 300 383 284 384 275 384 c 0
 229 384 196 359 184 304 c 2
 170 240 l 2
 164 214 155 191 145 174 c 1
 156 177 167 179 179 179 c 0
770 145 m 0
 735 145 705 120 698 86 c 0
 697 81 697 76 697 72 c 0
 697 45 715 27 745 27 c 0
 780 27 809 52 816 86 c 0
 817 91 817 96 817 100 c 0
 817 127 800 145 770 145 c 0
EndSplineSet
PickledDataWithLists: "(dp0
Vcom.fontlab.hintData
p1
(dp2
Vvhints
p3
(lp4
(dp5
Vposition
p6
L84L
sVwidth
p7
L10L
sa(dp8
g6
L104L
sg7
L10L
sa(dp9
g6
L166L
sg7
L10L
sa(dp10
g6
L186L
sg7
L10L
sa(dp11
g6
L311L
sg7
L10L
sa(dp12
g6
L454L
sg7
L10L
sa(dp13
g6
L469L
sg7
L10L
sa(dp14
g6
L540L
sg7
L10L
sa(dp15
g6
L551L
sg7
L10L
sa(dp16
g6
L709L
sg7
L10L
sa(dp17
g6
L780L
sg7
L10L
sa(dp18
g6
L816L
sg7
L10L
sa(dp19
g6
L865L
sg7
L10L
sa(dp20
g6
L935L
sg7
L10L
sasVhhints
p21
(lp22
(dp23
g6
L-17L
sg7
L10L
sa(dp24
g6
L29L
sg7
L10L
sa(dp25
g6
L41L
sg7
L10L
sa(dp26
g6
L54L
sg7
L10L
sa(dp27
g6
L241L
sg7
L10L
sa(dp28
g6
L289L
sg7
L10L
sa(dp29
g6
L546L
sg7
L10L
sa(dp30
g6
L594L
sg7
L10L
sa(dp31
g6
L604L
sg7
L10L
sass."
EndChar

StartChar: uni0E14
Encoding: 3604 3604 148
GlifName: uni0E_14
Width: 665
VWidth: 0
GlyphClass: 2
Flags: HMW
LayerCount: 2
Fore
SplineSet
452 0 m 1
 475 110 l 2
 481 137 527 343 541 407 c 0
 544 421 545 435 545 447 c 0
 545 526 486 568 391 568 c 0
 281 568 193 512 171 407 c 0
 139 257 155 224 140 153 c 2
 127 93 l 2
 126 88 125 81 124 74 c 1
 191 142 290 177 352 234 c 1
 341 231 331 230 319 230 c 0
 269 230 238 260 238 303 c 0
 238 310 239 316 240 323 c 0
 251 377 300 416 358 416 c 0
 409 416 440 386 440 343 c 0
 440 337 439 330 438 323 c 0
 404 163 175 126 112 0 c 1
 40 0 l 1
 40 0 66 75 76 122 c 0
 99 229 79 251 112 407 c 0
 139 532 253 617 401 617 c 0
 530 617 607 552 607 453 c 0
 607 438 605 423 602 407 c 2
 515 0 l 1
 452 0 l 1
351 382 m 0
 316 382 287 357 280 323 c 0
 279 318 279 313 279 309 c 0
 279 282 296 264 326 264 c 0
 361 264 391 289 398 323 c 0
 399 328 399 333 399 337 c 0
 399 364 381 382 351 382 c 0
EndSplineSet
PickledDataWithLists: "(dp0
Vcom.fontlab.hintData
p1
(dp2
Vvhints
p3
(lp4
(dp5
Vposition
p6
L60L
sVwidth
p7
L10L
sa(dp8
g6
L149L
sg7
L10L
sa(dp9
g6
L306L
sg7
L10L
sa(dp10
g6
L394L
sg7
L10L
sa(dp11
g6
L495L
sg7
L10L
sa(dp12
g6
L501L
sg7
L10L
sa(dp13
g6
L584L
sg7
L10L
sa(dp14
g6
L589L
sg7
L10L
sasVhhints
p15
(lp16
(dp17
g6
L-23L
sg7
L10L
sa(dp18
g6
L-15L
sg7
L10L
sa(dp19
g6
L40L
sg7
L10L
sa(dp20
g6
L140L
sg7
L10L
sa(dp21
g6
L547L
sg7
L10L
sa(dp22
g6
L609L
sg7
L10L
sass."
EndChar

StartChar: uni0E15
Encoding: 3605 3605 149
GlifName: uni0E_15
Width: 665
VWidth: 0
GlyphClass: 2
Flags: HMW
LayerCount: 2
Fore
SplineSet
452 0 m 1
 475 110 l 2
 481 137 527 343 541 407 c 0
 546 431 549 453 549 472 c 0
 549 526 529 560 489 565 c 1
 382 486 l 1
 373 486 l 1
 364 486 l 1
 291 565 l 1
 235 558 190 497 171 407 c 0
 139 257 155 224 140 153 c 2
 127 93 l 2
 126 88 125 81 124 74 c 1
 191 142 290 177 352 234 c 1
 341 231 331 230 319 230 c 0
 269 230 238 260 238 303 c 0
 238 310 239 316 240 323 c 0
 251 377 300 416 358 416 c 0
 409 416 440 386 440 343 c 0
 440 337 439 330 438 323 c 0
 404 163 175 126 112 0 c 1
 40 0 l 1
 40 0 66 75 76 122 c 0
 99 229 79 251 112 407 c 0
 130 493 187 611 309 611 c 1
 382 527 l 1
 491 611 l 1
 583 611 609 545 609 475 c 0
 609 452 606 428 602 407 c 2
 515 0 l 1
 452 0 l 1
351 382 m 0
 316 382 287 357 280 323 c 0
 279 318 279 313 279 309 c 0
 279 282 296 264 326 264 c 0
 361 264 391 289 398 323 c 0
 399 328 399 333 399 337 c 0
 399 364 381 382 351 382 c 0
EndSplineSet
PickledDataWithLists: "(dp0
Vcom.fontlab.hintData
p1
(dp2
Vvhints
p3
(lp4
(dp5
Vposition
p6
L64L
sVwidth
p7
L10L
sa(dp8
g6
L146L
sg7
L10L
sa(dp9
g6
L309L
sg7
L10L
sa(dp10
g6
L332L
sg7
L10L
sa(dp11
g6
L337L
sg7
L10L
sa(dp12
g6
L391L
sg7
L10L
sa(dp13
g6
L405L
sg7
L10L
sa(dp14
g6
L513L
sg7
L10L
sa(dp15
g6
L597L
sg7
L10L
sa(dp16
g6
L602L
sg7
L10L
sasVhhints
p17
(lp18
(dp19
g6
L-21L
sg7
L10L
sa(dp20
g6
L-13L
sg7
L10L
sa(dp21
g6
L36L
sg7
L10L
sa(dp22
g6
L133L
sg7
L10L
sa(dp23
g6
L412L
sg7
L10L
sa(dp24
g6
L546L
sg7
L10L
sa(dp25
g6
L590L
sg7
L10L
sa(dp26
g6
L603L
sg7
L10L
sass."
EndChar

StartChar: uni0E16
Encoding: 3606 3606 150
GlifName: uni0E_16
Width: 655
VWidth: 0
GlyphClass: 2
Flags: HMW
LayerCount: 2
Fore
SplineSet
172 145 m 0
 137 145 107 120 100 86 c 0
 99 81 99 76 99 72 c 0
 99 45 117 27 147 27 c 0
 182 27 211 52 218 86 c 0
 219 91 219 96 219 100 c 0
 219 127 202 145 172 145 c 0
179 179 m 0
 229 179 260 149 260 106 c 0
 260 99 259 93 258 86 c 0
 247 32 198 -7 140 -7 c 0
 89 -7 58 23 58 66 c 0
 58 72 59 79 60 86 c 0
 70 131 92 166 101 210 c 2
 120 299 l 2
 132 355 165 388 214 400 c 1
 95 422 l 1
 131 525 234 617 386 617 c 0
 518 617 597 553 597 453 c 0
 597 439 595 423 592 407 c 2
 505 0 l 1
 442 0 l 1
 529 407 l 2
 532 421 533 434 533 446 c 0
 533 526 473 568 376 568 c 0
 275 568 203 517 167 441 c 1
 318 412 l 1
 304 382 l 1
 300 383 284 384 275 384 c 0
 229 384 196 359 184 304 c 2
 170 240 l 2
 164 214 155 191 145 174 c 1
 156 177 167 179 179 179 c 0
EndSplineSet
PickledDataWithLists: "(dp0
Vcom.fontlab.hintData
p1
(dp2
Vvhints
p3
(lp4
(dp5
Vposition
p6
L81L
sVwidth
p7
L10L
sa(dp8
g6
L86L
sg7
L10L
sa(dp9
g6
L111L
sg7
L10L
sa(dp10
g6
L169L
sg7
L10L
sa(dp11
g6
L199L
sg7
L10L
sa(dp12
g6
L315L
sg7
L10L
sa(dp13
g6
L465L
sg7
L10L
sa(dp14
g6
L476L
sg7
L10L
sa(dp15
g6
L556L
sg7
L10L
sa(dp16
g6
L564L
sg7
L10L
sasVhhints
p17
(lp18
(dp19
g6
L-19L
sg7
L10L
sa(dp20
g6
L43L
sg7
L10L
sa(dp21
g6
L56L
sg7
L10L
sa(dp22
g6
L544L
sg7
L10L
sa(dp23
g6
L606L
sg7
L10L
sass."
EndChar

StartChar: uni0E17
Encoding: 3607 3607 151
GlifName: uni0E_17
Width: 660
VWidth: 0
GlyphClass: 2
Flags: HMW
LayerCount: 2
Fore
SplineSet
162 455 m 0
 197 455 226 480 233 514 c 0
 234 519 234 524 234 528 c 0
 234 555 217 573 187 573 c 0
 152 573 122 548 115 514 c 0
 114 509 114 504 114 500 c 0
 114 473 132 455 162 455 c 0
154 421 m 0
 104 421 73 451 73 494 c 0
 73 501 74 507 75 514 c 0
 86 568 136 607 194 607 c 0
 244 607 275 577 275 534 c 0
 275 527 274 521 273 514 c 0
 263 469 230 434 221 390 c 2
 186 227 l 1
 266 374 407 607 530 607 c 0
 593 607 613 565 613 523 c 0
 613 512 611 501 609 491 c 2
 505 0 l 1
 441 0 l 1
 543 481 l 2
 545 490 546 499 546 507 c 0
 546 533 536 552 509 553 c 1
 403 537 224 246 165 127 c 1
 138 0 l 1
 75 0 l 1
 152 360 l 2
 157 385 167 406 178 423 c 1
 171 422 162 421 154 421 c 0
EndSplineSet
PickledDataWithLists: "(dp0
Vcom.fontlab.hintData
p1
(dp2
Vvhints
p3
(lp4
(dp5
Vposition
p6
L58L
sVwidth
p7
L10L
sa(dp8
g6
L104L
sg7
L10L
sa(dp9
g6
L479L
sg7
L10L
sa(dp10
g6
L484L
sg7
L10L
sa(dp11
g6
L561L
sg7
L10L
sa(dp12
g6
L566L
sg7
L10L
sasVhhints
p13
(lp14
(dp15
g6
L-13L
sg7
L10L
sa(dp16
g6
L-8L
sg7
L10L
sa(dp17
g6
L546L
sg7
L10L
sa(dp18
g6
L604L
sg7
L10L
sass."
EndChar

StartChar: uni0E18
Encoding: 3608 3608 152
GlifName: uni0E_18
Width: 585
VWidth: 0
GlyphClass: 2
Flags: HMW
AnchorPoint: "ThaiTone.mark" 505 0 basechar 0
LayerCount: 2
Fore
SplineSet
66 170 m 2
 94 300 l 1
 158 300 l 1
 130 170 l 2
 127 157 126 144 126 133 c 0
 126 66 172 31 242 31 c 0
 324 31 394 79 413 170 c 2
 439 292 l 2
 440 298 441 303 441 308 c 0
 441 376 337 414 108 414 c 1
 112 432 l 2
 136 545 232 617 347 617 c 0
 435 617 479 577 499 546 c 1
 508 559 l 1
 551 611 l 1
 598 601 l 1
 597 598 l 1
 502 500 l 1
 480 500 l 1
 469 524 436 573 347 573 c 0
 272 573 201 534 176 448 c 1
 387 443 506 405 506 320 c 0
 506 313 506 306 504 299 c 2
 476 170 l 2
 453 62 357 -17 231 -17 c 0
 122 -17 61 42 61 127 c 0
 61 141 63 155 66 170 c 2
EndSplineSet
PickledDataWithLists: "(dp0
Vcom.fontlab.hintData
p1
(dp2
Vvhints
p3
(lp4
(dp5
Vposition
p6
L64L
sVwidth
p7
L10L
sa(dp8
g6
L109L
sg7
L10L
sa(dp9
g6
L146L
sg7
L10L
sa(dp10
g6
L195L
sg7
L10L
sa(dp11
g6
L430L
sg7
L10L
sa(dp12
g6
L513L
sg7
L10L
sasVhhints
p13
(lp14
(dp15
g6
L-14L
sg7
L10L
sa(dp16
g6
L44L
sg7
L10L
sa(dp17
g6
L294L
sg7
L10L
sa(dp18
g6
L496L
sg7
L10L
sa(dp19
g6
L555L
sg7
L10L
sa(dp20
g6
L612L
sg7
L10L
sass."
EndChar

StartChar: uni0E19
Encoding: 3609 3609 153
GlifName: uni0E_19
Width: 650
VWidth: 0
GlyphClass: 2
Flags: HMW
LayerCount: 2
Fore
SplineSet
75 0 m 1
 152 360 l 2
 158 387 169 408 180 424 c 1
 172 422 163 421 154 421 c 0
 104 421 73 451 73 494 c 0
 73 501 74 507 75 514 c 0
 86 568 136 607 194 607 c 0
 244 607 275 577 275 534 c 0
 275 527 274 521 273 514 c 0
 261 458 231 436 219 380 c 2
 170 150 l 2
 164 121 156 87 149 59 c 1
 223 118 324 178 438 181 c 1
 452 192 464 203 468 220 c 2
 549 600 l 1
 613 600 l 1
 534 230 l 2
 529 206 511 190 489 177 c 1
 526 169 548 143 548 107 c 0
 548 100 548 93 546 86 c 0
 535 32 486 -7 428 -7 c 0
 377 -7 346 23 346 66 c 0
 346 72 347 79 348 86 c 0
 352 105 361 122 373 136 c 1
 282 116 193 56 133 0 c 1
 75 0 l 1
460 145 m 0
 425 145 395 120 388 86 c 0
 387 81 387 76 387 72 c 0
 387 45 405 27 435 27 c 0
 470 27 499 52 506 86 c 0
 507 91 507 96 507 100 c 0
 507 127 490 145 460 145 c 0
162 455 m 0
 197 455 226 480 233 514 c 0
 234 519 234 524 234 528 c 0
 234 555 217 573 187 573 c 0
 152 573 122 548 115 514 c 0
 114 509 114 504 114 500 c 0
 114 473 132 455 162 455 c 0
EndSplineSet
PickledDataWithLists: "(dp0
Vcom.fontlab.hintData
p1
(dp2
Vvhints
p3
(lp4
(dp5
Vposition
p6
L64L
sVwidth
p7
L10L
sa(dp8
g6
L84L
sg7
L10L
sa(dp9
g6
L168L
sg7
L10L
sa(dp10
g6
L387L
sg7
L10L
sa(dp11
g6
L457L
sg7
L10L
sa(dp12
g6
L491L
sg7
L10L
sa(dp13
g6
L550L
sg7
L10L
sa(dp14
g6
L625L
sg7
L10L
sasVhhints
p15
(lp16
(dp17
g6
L-27L
sg7
L10L
sa(dp18
g6
L-20L
sg7
L10L
sa(dp19
g6
L22L
sg7
L10L
sa(dp20
g6
L248L
sg7
L10L
sa(dp21
g6
L307L
sg7
L10L
sa(dp22
g6
L589L
sg7
L10L
sa(dp23
g6
L598L
sg7
L10L
sass."
EndChar

StartChar: uni0E1A
Encoding: 3610 3610 154
GlifName: uni0E_1A_
Width: 700
VWidth: 0
GlyphClass: 2
Flags: HMW
LayerCount: 2
Fore
SplineSet
157 455 m 0
 192 455 221 480 228 514 c 0
 229 519 229 524 229 528 c 0
 229 555 212 573 182 573 c 0
 147 573 117 548 110 514 c 0
 109 509 109 504 109 500 c 0
 109 473 127 455 157 455 c 0
149 421 m 0
 99 421 68 451 68 494 c 0
 68 501 69 507 70 514 c 0
 81 568 131 607 189 607 c 0
 239 607 270 577 270 534 c 0
 270 527 269 521 268 514 c 0
 258 469 225 434 216 390 c 2
 171 181 l 2
 168 168 167 155 167 144 c 0
 167 71 223 32 312 32 c 0
 415 32 494 84 515 181 c 2
 605 600 l 1
 668 600 l 1
 578 181 l 2
 553 64 443 -17 301 -17 c 0
 177 -17 103 44 103 138 c 0
 103 152 105 166 108 181 c 2
 147 360 l 2
 152 385 162 406 173 423 c 1
 166 422 157 421 149 421 c 0
EndSplineSet
PickledDataWithLists: "(dp0
Vcom.fontlab.hintData
p1
(dp2
Vvhints
p3
(lp4
(dp5
Vposition
p6
L81L
sVwidth
p7
L10L
sa(dp8
g6
L106L
sg7
L10L
sa(dp9
g6
L194L
sg7
L10L
sa(dp10
g6
L511L
sg7
L10L
sa(dp11
g6
L516L
sg7
L10L
sa(dp12
g6
L599L
sg7
L10L
sa(dp13
g6
L604L
sg7
L10L
sasVhhints
p14
(lp15
(dp16
g6
L-26L
sg7
L10L
sa(dp17
g6
L36L
sg7
L10L
sa(dp18
g6
L596L
sg7
L10L
sass."
EndChar

StartChar: uni0E1B
Encoding: 3611 3611 155
GlifName: uni0E_1B_
Width: 700
VWidth: 0
GlyphClass: 2
Flags: HMW
LayerCount: 2
Fore
SplineSet
157 455 m 0
 192 455 221 480 228 514 c 0
 229 519 229 524 229 528 c 0
 229 555 212 573 182 573 c 0
 147 573 117 548 110 514 c 0
 109 509 109 504 109 500 c 0
 109 473 127 455 157 455 c 0
149 421 m 0
 99 421 68 451 68 494 c 0
 68 501 69 507 70 514 c 0
 81 568 131 607 189 607 c 0
 239 607 270 577 270 534 c 0
 270 527 269 521 268 514 c 0
 258 469 225 434 216 390 c 2
 171 181 l 2
 168 168 167 155 167 144 c 0
 167 71 223 32 312 32 c 0
 415 32 494 84 515 181 c 2
 649 810 l 1
 712 810 l 1
 578 181 l 2
 553 64 443 -17 301 -17 c 0
 177 -17 103 44 103 138 c 0
 103 152 105 166 108 181 c 2
 147 360 l 2
 152 385 162 406 173 423 c 1
 166 422 157 421 149 421 c 0
EndSplineSet
PickledDataWithLists: "(dp0
Vcom.fontlab.hintData
p1
(dp2
Vvhints
p3
(lp4
(dp5
Vposition
p6
L81L
sVwidth
p7
L10L
sa(dp8
g6
L106L
sg7
L10L
sa(dp9
g6
L194L
sg7
L10L
sa(dp10
g6
L521L
sg7
L10L
sa(dp11
g6
L526L
sg7
L10L
sa(dp12
g6
L609L
sg7
L10L
sa(dp13
g6
L614L
sg7
L10L
sasVhhints
p14
(lp15
(dp16
g6
L-26L
sg7
L10L
sa(dp17
g6
L36L
sg7
L10L
sa(dp18
g6
L600L
sg7
L10L
sa(dp19
g6
L836L
sg7
L10L
sass."
EndChar

StartChar: uni0E1C
Encoding: 3612 3612 156
GlifName: uni0E_1C_
Width: 715
VWidth: 0
GlyphClass: 2
Flags: HMW
LayerCount: 2
Fore
SplineSet
522 138 m 2
 621 600 l 1
 683 600 l 1
 555 0 l 1
 496 0 l 1
 362 312 l 1
 96 0 l 1
 37 0 l 1
 103 310 l 2
 119 383 113 411 125 469 c 0
 143 556 200 607 284 607 c 0
 334 607 365 577 365 534 c 0
 365 527 364 521 363 514 c 0
 352 460 302 421 244 421 c 0
 213 421 190 432 176 451 c 1
 174 436 173 424 173 412 c 0
 173 403 174 395 174 386 c 0
 174 367 173 346 166 315 c 2
 128 138 l 2
 123 115 116 91 109 72 c 1
 355 360 l 1
 373 360 l 1
 391 360 l 1
 513 72 l 1
 514 91 517 115 522 138 c 2
252 455 m 0
 287 455 316 480 323 514 c 0
 324 519 324 524 324 528 c 0
 324 555 307 573 277 573 c 0
 242 573 212 548 205 514 c 0
 204 509 204 504 204 500 c 0
 204 473 222 455 252 455 c 0
EndSplineSet
PickledDataWithLists: "(dp0
Vcom.fontlab.hintData
p1
(dp2
Vvhints
p3
(lp4
(dp5
Vposition
p6
L64L
sVwidth
p7
L10L
sa(dp8
g6
L148L
sg7
L10L
sa(dp9
g6
L372L
sg7
L10L
sa(dp10
g6
L559L
sg7
L10L
sa(dp11
g6
L643L
sg7
L10L
sa(dp12
g6
L653L
sg7
L10L
sasVhhints
p13
(lp14
(dp15
g6
L-14L
sg7
L10L
sa(dp16
g6
L-8L
sg7
L10L
sa(dp17
g6
L318L
sg7
L10L
sa(dp18
g6
L514L
sg7
L10L
sa(dp19
g6
L544L
sg7
L10L
sa(dp20
g6
L599L
sg7
L10L
sa(dp21
g6
L604L
sg7
L10L
sass."
EndChar

StartChar: uni0E1D
Encoding: 3613 3613 157
GlifName: uni0E_1D_
Width: 715
VWidth: 0
GlyphClass: 2
Flags: HMW
LayerCount: 2
Fore
SplineSet
522 138 m 2
 665 810 l 1
 727 810 l 1
 555 0 l 1
 496 0 l 1
 362 312 l 1
 96 0 l 1
 37 0 l 1
 103 310 l 2
 119 383 113 411 125 469 c 0
 143 556 200 607 284 607 c 0
 334 607 365 577 365 534 c 0
 365 527 364 521 363 514 c 0
 352 460 302 421 244 421 c 0
 213 421 190 432 176 451 c 1
 174 436 173 424 173 412 c 0
 173 403 174 395 174 386 c 0
 174 367 173 346 166 315 c 2
 128 138 l 2
 123 115 116 91 109 72 c 1
 355 360 l 1
 373 360 l 1
 391 360 l 1
 513 72 l 1
 514 91 517 115 522 138 c 2
252 455 m 0
 287 455 316 480 323 514 c 0
 324 519 324 524 324 528 c 0
 324 555 307 573 277 573 c 0
 242 573 212 548 205 514 c 0
 204 509 204 504 204 500 c 0
 204 473 222 455 252 455 c 0
EndSplineSet
PickledDataWithLists: "(dp0
Vcom.fontlab.hintData
p1
(dp2
Vvhints
p3
(lp4
(dp5
Vposition
p6
L64L
sVwidth
p7
L10L
sa(dp8
g6
L148L
sg7
L10L
sa(dp9
g6
L372L
sg7
L10L
sa(dp10
g6
L559L
sg7
L10L
sa(dp11
g6
L643L
sg7
L10L
sa(dp12
g6
L653L
sg7
L10L
sasVhhints
p13
(lp14
(dp15
g6
L-14L
sg7
L10L
sa(dp16
g6
L-8L
sg7
L10L
sa(dp17
g6
L318L
sg7
L10L
sa(dp18
g6
L514L
sg7
L10L
sa(dp19
g6
L544L
sg7
L10L
sa(dp20
g6
L604L
sg7
L10L
sa(dp21
g6
L834L
sg7
L10L
sass."
EndChar

StartChar: uni0E1E
Encoding: 3614 3614 158
GlifName: uni0E_1E_
Width: 735
VWidth: 0
GlyphClass: 2
Flags: HMW
LayerCount: 2
Fore
SplineSet
703 600 m 1
 575 0 l 1
 521 0 l 1
 417 432 l 1
 129 0 l 1
 75 0 l 1
 152 360 l 2
 158 387 169 407 180 423 c 1
 172 421 163 421 154 421 c 0
 104 421 73 451 73 494 c 0
 73 501 74 507 75 514 c 0
 86 568 136 607 194 607 c 0
 244 607 275 577 275 534 c 0
 275 527 274 521 273 514 c 0
 263 465 227 432 217 383 c 2
 169 155 l 2
 165 138 160 119 155 104 c 1
 413 495 l 1
 430 495 l 1
 447 495 l 1
 540 107 l 1
 541 122 544 139 547 155 c 2
 642 600 l 1
 703 600 l 1
162 455 m 0
 197 455 226 480 233 514 c 0
 234 519 234 524 234 528 c 0
 234 555 217 573 187 573 c 0
 152 573 122 548 115 514 c 0
 114 509 114 504 114 500 c 0
 114 473 132 455 162 455 c 0
EndSplineSet
PickledDataWithLists: "(dp0
Vcom.fontlab.hintData
p1
(dp2
Vvhints
p3
(lp4
(dp5
Vposition
p6
L58L
sVwidth
p7
L10L
sa(dp8
g6
L104L
sg7
L10L
sa(dp9
g6
L182L
sg7
L10L
sa(dp10
g6
L556L
sg7
L10L
sa(dp11
g6
L656L
sg7
L10L
sasVhhints
p12
(lp13
(dp14
g6
L-12L
sg7
L10L
sa(dp15
g6
L540L
sg7
L10L
sa(dp16
g6
L604L
sg7
L10L
sass."
EndChar

StartChar: uni0E1F
Encoding: 3615 3615 159
GlifName: uni0E_1F_
Width: 735
VWidth: 0
GlyphClass: 2
Flags: HMW
LayerCount: 2
Fore
SplineSet
747 810 m 1
 575 0 l 1
 521 0 l 1
 417 432 l 1
 129 0 l 1
 75 0 l 1
 152 360 l 2
 158 387 169 407 180 423 c 1
 172 421 163 421 154 421 c 0
 104 421 73 451 73 494 c 0
 73 501 74 507 75 514 c 0
 86 568 136 607 194 607 c 0
 244 607 275 577 275 534 c 0
 275 527 274 521 273 514 c 0
 263 465 227 432 217 383 c 2
 169 155 l 2
 165 138 160 119 155 104 c 1
 413 495 l 1
 430 495 l 1
 447 495 l 1
 540 107 l 1
 541 122 544 139 547 155 c 2
 686 810 l 1
 747 810 l 1
162 455 m 0
 197 455 226 480 233 514 c 0
 234 519 234 524 234 528 c 0
 234 555 217 573 187 573 c 0
 152 573 122 548 115 514 c 0
 114 509 114 504 114 500 c 0
 114 473 132 455 162 455 c 0
EndSplineSet
PickledDataWithLists: "(dp0
Vcom.fontlab.hintData
p1
(dp2
Vvhints
p3
(lp4
(dp5
Vposition
p6
L58L
sVwidth
p7
L10L
sa(dp8
g6
L104L
sg7
L10L
sa(dp9
g6
L182L
sg7
L10L
sa(dp10
g6
L565L
sg7
L10L
sa(dp11
g6
L641L
sg7
L9L
sa(dp12
g6
L686L
sg7
L11L
sasVhhints
p13
(lp14
(dp15
g6
L-12L
sg7
L10L
sa(dp16
g6
L540L
sg7
L10L
sa(dp17
g6
L604L
sg7
L10L
sa(dp18
g6
L834L
sg7
L10L
sass."
EndChar

StartChar: uni0E20
Encoding: 3616 3616 160
GlifName: uni0E_20
Width: 665
VWidth: 0
GlyphClass: 2
Flags: HMW
LayerCount: 2
Fore
SplineSet
113 145 m 0
 78 145 48 120 41 86 c 0
 40 81 40 76 40 72 c 0
 40 45 58 27 88 27 c 0
 123 27 152 52 159 86 c 0
 160 91 160 96 160 100 c 0
 160 127 143 145 113 145 c 0
177 442 m 1
 358 412 l 1
 344 382 l 1
 340 383 324 384 315 384 c 0
 269 384 236 359 224 304 c 2
 204 210 l 2
 202 198 201 187 201 176 c 0
 201 158 203 141 203 123 c 0
 203 111 202 99 199 86 c 0
 188 32 139 -7 81 -7 c 0
 30 -7 -1 23 -1 66 c 0
 -1 72 0 79 1 86 c 0
 12 140 62 179 120 179 c 0
 129 179 137 178 145 176 c 1
 144 184 143 193 143 203 c 0
 143 214 144 226 147 240 c 2
 160 299 l 2
 172 354 205 387 253 400 c 1
 105 422 l 1
 141 525 244 617 396 617 c 0
 528 617 607 553 607 453 c 0
 607 439 605 423 602 407 c 2
 515 0 l 1
 452 0 l 1
 539 407 l 2
 542 421 543 434 543 446 c 0
 543 526 483 568 386 568 c 0
 286 568 213 517 177 442 c 1
EndSplineSet
PickledDataWithLists: "(dp0
Vcom.fontlab.hintData
p1
(dp2
Vvhints
p3
(lp4
(dp5
Vposition
p6
L26L
sVwidth
p7
L10L
sa(dp8
g6
L81L
sg7
L10L
sa(dp9
g6
L131L
sg7
L10L
sa(dp10
g6
L219L
sg7
L10L
sa(dp11
g6
L465L
sg7
L10L
sa(dp12
g6
L476L
sg7
L10L
sa(dp13
g6
L556L
sg7
L10L
sa(dp14
g6
L564L
sg7
L10L
sasVhhints
p15
(lp16
(dp17
g6
L-16L
sg7
L10L
sa(dp18
g6
L66L
sg7
L10L
sa(dp19
g6
L544L
sg7
L10L
sa(dp20
g6
L606L
sg7
L10L
sass."
EndChar

StartChar: uni0E21
Encoding: 3617 3617 161
GlifName: uni0E_21
Width: 645
VWidth: 0
GlyphClass: 2
Flags: HMW
LayerCount: 2
Fore
SplineSet
116 145 m 0
 81 145 51 120 44 86 c 0
 43 81 43 76 43 72 c 0
 43 45 61 27 91 27 c 0
 126 27 155 52 162 86 c 0
 163 91 163 96 163 100 c 0
 163 127 146 145 116 145 c 0
172 455 m 0
 207 455 236 480 243 514 c 0
 244 519 244 524 244 528 c 0
 244 555 227 573 197 573 c 0
 162 573 132 548 125 514 c 0
 124 509 124 504 124 500 c 0
 124 473 142 455 172 455 c 0
164 421 m 0
 114 421 83 451 83 494 c 0
 83 501 84 507 85 514 c 0
 96 568 146 607 204 607 c 0
 254 607 285 577 285 534 c 0
 285 527 284 521 283 514 c 0
 271 458 241 436 229 380 c 2
 195 220 l 2
 193 210 192 201 192 193 c 0
 192 187 192 181 193 176 c 1
 309 167 390 114 437 59 c 1
 442 87 448 121 454 150 c 2
 550 600 l 1
 613 600 l 1
 485 0 l 1
 427 0 l 1
 389 61 313 122 203 135 c 1
 204 129 205 121 205 114 c 0
 205 106 204 97 202 86 c 0
 191 32 142 -7 84 -7 c 0
 33 -7 2 23 2 66 c 0
 2 72 3 79 4 86 c 0
 15 140 65 179 123 179 c 0
 129 179 135 179 140 178 c 1
 136 188 133 201 133 215 c 0
 133 223 134 231 136 240 c 2
 162 360 l 2
 168 387 179 408 190 424 c 1
 182 422 173 421 164 421 c 0
EndSplineSet
PickledDataWithLists: "(dp0
Vcom.fontlab.hintData
p1
(dp2
Vvhints
p3
(lp4
(dp5
Vposition
p6
L25L
sVwidth
p7
L10L
sa(dp8
g6
L56L
sg7
L10L
sa(dp9
g6
L100L
sg7
L10L
sa(dp10
g6
L200L
sg7
L10L
sa(dp11
g6
L280L
sg7
L10L
sa(dp12
g6
L476L
sg7
L10L
sa(dp13
g6
L484L
sg7
L10L
sa(dp14
g6
L556L
sg7
L10L
sa(dp15
g6
L566L
sg7
L10L
sasVhhints
p16
(lp17
(dp18
g6
L-27L
sg7
L10L
sa(dp19
g6
L243L
sg7
L10L
sa(dp20
g6
L297L
sg7
L10L
sa(dp21
g6
L528L
sg7
L10L
sa(dp22
g6
L548L
sg7
L10L
sa(dp23
g6
L588L
sg7
L10L
sa(dp24
g6
L602L
sg7
L10L
sass."
EndChar

StartChar: uni0E22
Encoding: 3618 3618 162
GlifName: uni0E_22
Width: 645
VWidth: 0
GlyphClass: 2
Flags: HMW
LayerCount: 2
Fore
SplineSet
268 455 m 0
 303 455 332 480 339 514 c 0
 340 519 340 524 340 528 c 0
 340 555 323 573 293 573 c 0
 258 573 228 548 221 514 c 0
 220 509 220 504 220 500 c 0
 220 473 238 455 268 455 c 0
260 421 m 0
 210 421 179 451 179 494 c 0
 179 501 180 507 181 514 c 0
 181 515 182 515 182 516 c 1
 174 503 169 487 165 470 c 0
 163 460 162 450 162 441 c 0
 162 364 238 335 333 335 c 1
 325 295 l 1
 230 295 140 267 120 174 c 0
 117 162 116 151 116 140 c 0
 116 69 172 32 262 32 c 0
 365 32 444 84 465 181 c 2
 555 600 l 1
 618 600 l 1
 528 181 l 2
 503 64 393 -17 251 -17 c 0
 126 -17 53 41 53 132 c 0
 53 145 54 158 57 172 c 0
 75 255 137 296 207 313 c 1
 155 333 115 374 115 435 c 0
 115 446 116 456 119 468 c 0
 137 551 207 607 300 607 c 0
 350 607 381 577 381 534 c 0
 381 527 380 521 379 514 c 0
 368 460 318 421 260 421 c 0
EndSplineSet
PickledDataWithLists: "(dp0
Vcom.fontlab.hintData
p1
(dp2
Vvhints
p3
(lp4
(dp5
Vposition
p6
L44L
sVwidth
p7
L10L
sa(dp8
g6
L114L
sg7
L10L
sa(dp9
g6
L126L
sg7
L10L
sa(dp10
g6
L196L
sg7
L10L
sa(dp11
g6
L335L
sg7
L10L
sa(dp12
g6
L352L
sg7
L10L
sa(dp13
g6
L474L
sg7
L10L
sa(dp14
g6
L562L
sg7
L10L
sasVhhints
p15
(lp16
(dp17
g6
L-26L
sg7
L10L
sa(dp18
g6
L36L
sg7
L10L
sa(dp19
g6
L517L
sg7
L10L
sa(dp20
g6
L546L
sg7
L10L
sa(dp21
g6
L596L
sg7
L10L
sa(dp22
g6
L604L
sg7
L10L
sass."
EndChar

StartChar: uni0E23
Encoding: 3619 3619 163
GlifName: uni0E_23
Width: 530
VWidth: 0
GlyphClass: 2
Flags: HMW
AnchorPoint: "ThaiBelow.mark" 440 0 basechar 0
AnchorPoint: "ThaiTone.mark" 450 0 basechar 0
AnchorPoint: "ThaiAbove.mark" 500 0 basechar 0
LayerCount: 2
Fore
SplineSet
449 547 m 1
 452 552 457 557 458 559 c 2
 502 611 l 1
 548 601 l 1
 547 598 l 1
 453 500 l 1
 431 500 l 1
 420 524 388 573 302 573 c 0
 229 573 161 534 136 448 c 1
 308 443 409 415 409 337 c 0
 409 330 409 323 407 315 c 2
 377 176 l 1
 363 108 l 2
 349 41 301 -7 225 -7 c 0
 174 -7 143 23 143 66 c 0
 143 72 144 79 145 86 c 0
 156 140 206 179 264 179 c 0
 285 179 304 174 317 165 c 1
 317 181 319 198 322 213 c 2
 343 309 l 2
 344 315 345 321 345 326 c 0
 345 389 259 414 68 414 c 1
 72 432 l 2
 96 545 190 617 303 617 c 0
 388 617 430 578 449 547 c 1
257 145 m 0
 222 145 192 120 185 86 c 0
 184 81 184 76 184 72 c 0
 184 45 202 27 232 27 c 0
 267 27 296 52 303 86 c 0
 304 91 304 96 304 100 c 0
 304 127 287 145 257 145 c 0
EndSplineSet
PickledDataWithLists: "(dp0
Vcom.fontlab.hintData
p1
(dp2
Vvhints
p3
(lp4
(dp5
Vposition
p6
L31L
sVwidth
p7
L10L
sa(dp8
g6
L111L
sg7
L10L
sa(dp9
g6
L116L
sg7
L10L
sa(dp10
g6
L362L
sg7
L10L
sa(dp11
g6
L446L
sg7
L10L
sa(dp12
g6
L479L
sg7
L10L
sasVhhints
p13
(lp14
(dp15
g6
L-16L
sg7
L10L
sa(dp16
g6
L46L
sg7
L10L
sa(dp17
g6
L91L
sg7
L10L
sa(dp18
g6
L494L
sg7
L10L
sa(dp19
g6
L548L
sg7
L10L
sa(dp20
g6
L610L
sg7
L10L
sass."
EndChar

StartChar: uni0E24
Encoding: 3620 3620 164
GlifName: uni0E_24
Width: 655
VWidth: 0
GlyphClass: 2
Flags: HMW
LayerCount: 2
Fore
SplineSet
172 145 m 0
 137 145 107 120 100 86 c 0
 99 81 99 76 99 72 c 0
 99 45 117 27 147 27 c 0
 182 27 211 52 218 86 c 0
 219 91 219 96 219 100 c 0
 219 127 202 145 172 145 c 0
179 179 m 0
 229 179 260 149 260 106 c 0
 260 99 259 93 258 86 c 0
 247 32 198 -7 140 -7 c 0
 89 -7 58 23 58 66 c 0
 58 72 59 79 60 86 c 0
 70 131 92 166 101 210 c 2
 120 299 l 2
 132 355 165 388 214 400 c 1
 95 422 l 1
 131 525 234 617 386 617 c 0
 518 617 597 553 597 453 c 0
 597 439 595 423 592 407 c 2
 460 -210 l 1
 397 -210 l 1
 529 407 l 2
 532 421 533 434 533 446 c 0
 533 526 473 568 376 568 c 0
 275 568 203 517 167 441 c 1
 318 412 l 1
 304 382 l 1
 300 383 284 384 275 384 c 0
 229 384 196 359 184 304 c 2
 170 240 l 2
 164 214 155 191 145 174 c 1
 156 177 167 179 179 179 c 0
EndSplineSet
PickledDataWithLists: "(dp0
Vcom.fontlab.hintData
p1
(dp2
Vvhints
p3
(lp4
(dp5
Vposition
p6
L81L
sVwidth
p7
L10L
sa(dp8
g6
L86L
sg7
L10L
sa(dp9
g6
L111L
sg7
L10L
sa(dp10
g6
L169L
sg7
L10L
sa(dp11
g6
L199L
sg7
L10L
sa(dp12
g6
L315L
sg7
L10L
sa(dp13
g6
L465L
sg7
L10L
sa(dp14
g6
L476L
sg7
L10L
sa(dp15
g6
L556L
sg7
L10L
sa(dp16
g6
L564L
sg7
L10L
sasVhhints
p17
(lp18
(dp19
g6
L-246L
sg7
L10L
sa(dp20
g6
L-19L
sg7
L10L
sa(dp21
g6
L43L
sg7
L10L
sa(dp22
g6
L56L
sg7
L10L
sa(dp23
g6
L544L
sg7
L10L
sa(dp24
g6
L606L
sg7
L10L
sass."
EndChar

StartChar: uni0E240E45.liga
Encoding: 63617 63617 165
GlifName: uni0E_240E_45.liga
Width: 950
VWidth: 0
GlyphClass: 3
Flags: HMW
LayerCount: 2
Fore
SplineSet
172 145 m 0
 137 145 107 120 100 86 c 0
 99 81 99 76 99 72 c 0
 99 45 117 27 147 27 c 0
 182 27 211 52 218 86 c 0
 219 91 219 96 219 100 c 0
 219 127 202 145 172 145 c 0
179 179 m 0
 229 179 260 149 260 106 c 0
 260 99 259 93 258 86 c 0
 247 32 198 -7 140 -7 c 0
 89 -7 58 23 58 66 c 0
 58 72 59 79 60 86 c 0
 70 131 92 166 101 210 c 2
 120 299 l 2
 132 355 165 388 214 400 c 1
 95 422 l 1
 131 525 234 617 386 617 c 0
 483 617 550 582 580 524 c 1
 615 572 673 611 750 611 c 0
 844 611 893 558 893 484 c 0
 893 471 892 458 889 444 c 2
 750 -210 l 1
 687 -210 l 1
 826 444 l 2
 829 456 830 468 830 478 c 0
 830 535 793 563 738 563 c 0
 670 563 622 515 597 459 c 1
 597 456 597 454 597 451 c 0
 597 437 595 422 592 407 c 2
 460 -210 l 1
 397 -210 l 1
 529 407 l 2
 532 421 533 434 533 446 c 0
 533 526 473 568 376 568 c 0
 275 568 203 517 167 441 c 1
 318 412 l 1
 304 382 l 1
 300 383 284 384 275 384 c 0
 229 384 196 359 184 304 c 2
 170 240 l 2
 164 214 155 191 145 174 c 1
 156 177 167 179 179 179 c 0
EndSplineSet
PickledDataWithLists: "(dp0
Vcom.fontlab.hintData
p1
(dp2
Vvhints
p3
(lp4
(dp5
Vposition
p6
L81L
sVwidth
p7
L10L
sa(dp8
g6
L86L
sg7
L10L
sa(dp9
g6
L111L
sg7
L10L
sa(dp10
g6
L169L
sg7
L10L
sa(dp11
g6
L199L
sg7
L10L
sa(dp12
g6
L315L
sg7
L10L
sa(dp13
g6
L465L
sg7
L10L
sa(dp14
g6
L476L
sg7
L10L
sa(dp15
g6
L556L
sg7
L10L
sa(dp16
g6
L563L
sg7
L10L
sa(dp17
g6
L756L
sg7
L10L
sa(dp18
g6
L782L
sg7
L10L
sa(dp19
g6
L844L
sg7
L10L
sa(dp20
g6
L870L
sg7
L10L
sasVhhints
p21
(lp22
(dp23
g6
L-245L
sg7
L10L
sa(dp24
g6
L-19L
sg7
L10L
sa(dp25
g6
L43L
sg7
L10L
sa(dp26
g6
L56L
sg7
L10L
sa(dp27
g6
L544L
sg7
L10L
sa(dp28
g6
L606L
sg7
L10L
sass."
Ligature2: "Thai.liga subtable" uni0E24 uni200D uni0E45
Ligature2: "Thai.liga subtable" uni0E24 uni0E45
Colour: ff00ff
EndChar

StartChar: uni0E25
Encoding: 3621 3621 166
GlifName: uni0E_25
Width: 635
VWidth: 0
GlyphClass: 2
Flags: HMW
LayerCount: 2
Fore
SplineSet
47 105 m 2
 69 209 l 2
 84 280 137 352 245 352 c 0
 365 352 431 267 463 193 c 1
 510 416 l 2
 513 430 514 442 514 454 c 0
 514 529 458 568 366 568 c 0
 261 568 188 509 158 424 c 1
 96 430 l 1
 130 529 230 617 376 617 c 0
 502 617 578 556 578 460 c 0
 578 446 576 431 573 416 c 2
 485 0 l 1
 422 0 l 1
 447 119 l 1
 431 186 364 308 238 308 c 0
 179 308 142 268 131 217 c 0
 126 193 119 175 116 165 c 1
 133 174 153 179 174 179 c 0
 224 179 255 149 255 106 c 0
 255 99 254 93 253 86 c 0
 242 32 193 -7 135 -7 c 0
 74 -7 44 27 44 76 c 0
 44 85 45 95 47 105 c 2
167 145 m 0
 132 145 102 120 95 86 c 0
 94 81 94 76 94 72 c 0
 94 45 112 27 142 27 c 0
 177 27 206 52 213 86 c 0
 214 91 214 96 214 100 c 0
 214 127 197 145 167 145 c 0
EndSplineSet
PickledDataWithLists: "(dp0
Vcom.fontlab.hintData
p1
(dp2
Vvhints
p3
(lp4
(dp5
Vposition
p6
L41L
sVwidth
p7
L10L
sa(dp8
g6
L91L
sg7
L10L
sa(dp9
g6
L179L
sg7
L10L
sa(dp10
g6
L504L
sg7
L10L
sa(dp11
g6
L589L
sg7
L10L
sasVhhints
p12
(lp13
(dp14
g6
L-16L
sg7
L10L
sa(dp15
g6
L-6L
sg7
L10L
sa(dp16
g6
L296L
sg7
L10L
sa(dp17
g6
L414L
sg7
L10L
sa(dp18
g6
L549L
sg7
L10L
sa(dp19
g6
L610L
sg7
L10L
sass."
EndChar

StartChar: uni0E26
Encoding: 3622 3622 167
GlifName: uni0E_26
Width: 670
VWidth: 0
GlyphClass: 2
Flags: HMW
LayerCount: 2
Fore
SplineSet
113 145 m 0
 78 145 48 120 41 86 c 0
 40 81 40 76 40 72 c 0
 40 45 58 27 88 27 c 0
 123 27 152 52 159 86 c 0
 160 91 160 96 160 100 c 0
 160 127 143 145 113 145 c 0
177 442 m 1
 358 412 l 1
 344 382 l 1
 340 383 324 384 315 384 c 0
 269 384 236 359 224 304 c 2
 204 210 l 2
 202 198 201 187 201 176 c 0
 201 158 203 141 203 123 c 0
 203 111 202 99 199 86 c 0
 188 32 139 -7 81 -7 c 0
 30 -7 -1 23 -1 66 c 0
 -1 72 0 79 1 86 c 0
 12 140 62 179 120 179 c 0
 129 179 137 178 145 176 c 1
 144 184 143 193 143 203 c 0
 143 214 144 226 147 240 c 2
 160 299 l 2
 172 354 205 387 253 400 c 1
 105 422 l 1
 141 525 244 617 396 617 c 0
 528 617 607 553 607 453 c 0
 607 439 605 423 602 407 c 2
 470 -210 l 1
 407 -210 l 1
 539 407 l 2
 542 421 543 434 543 446 c 0
 543 526 483 568 386 568 c 0
 286 568 213 517 177 442 c 1
EndSplineSet
PickledDataWithLists: "(dp0
Vcom.fontlab.hintData
p1
(dp2
Vvhints
p3
(lp4
(dp5
Vposition
p6
L26L
sVwidth
p7
L10L
sa(dp8
g6
L81L
sg7
L10L
sa(dp9
g6
L131L
sg7
L10L
sa(dp10
g6
L219L
sg7
L10L
sa(dp11
g6
L465L
sg7
L10L
sa(dp12
g6
L476L
sg7
L10L
sa(dp13
g6
L556L
sg7
L10L
sa(dp14
g6
L564L
sg7
L10L
sasVhhints
p15
(lp16
(dp17
g6
L-246L
sg7
L10L
sa(dp18
g6
L-16L
sg7
L10L
sa(dp19
g6
L66L
sg7
L10L
sa(dp20
g6
L544L
sg7
L10L
sa(dp21
g6
L606L
sg7
L10L
sass."
EndChar

StartChar: uni0E260E45.liga
Encoding: 63618 63618 168
GlifName: uni0E_260E_45.liga
Width: 960
VWidth: 0
GlyphClass: 3
Flags: HMW
LayerCount: 2
Fore
SplineSet
113 145 m 0
 78 145 48 120 41 86 c 0
 40 81 40 76 40 72 c 0
 40 45 58 27 88 27 c 0
 123 27 152 52 159 86 c 0
 160 91 160 96 160 100 c 0
 160 127 143 145 113 145 c 0
177 442 m 1
 358 412 l 1
 344 382 l 1
 340 383 324 384 315 384 c 0
 269 384 236 359 224 304 c 2
 204 210 l 2
 202 198 201 187 201 176 c 0
 201 158 203 141 203 123 c 0
 203 111 202 99 199 86 c 0
 188 32 139 -7 81 -7 c 0
 30 -7 -1 23 -1 66 c 0
 -1 72 0 79 1 86 c 0
 12 140 62 179 120 179 c 0
 129 179 137 178 145 176 c 1
 144 184 143 193 143 203 c 0
 143 214 144 226 147 240 c 2
 160 299 l 2
 172 354 205 387 253 400 c 1
 105 422 l 1
 141 525 244 617 396 617 c 0
 493 617 560 582 590 524 c 1
 625 572 683 611 760 611 c 0
 854 611 903 558 903 484 c 0
 903 471 902 458 899 444 c 2
 760 -210 l 1
 697 -210 l 1
 836 444 l 2
 839 456 840 468 840 478 c 0
 840 535 803 563 748 563 c 0
 680 563 632 515 607 459 c 1
 607 456 607 454 607 451 c 0
 607 437 605 422 602 407 c 2
 470 -210 l 1
 407 -210 l 1
 539 407 l 2
 542 421 543 434 543 446 c 0
 543 526 483 568 386 568 c 0
 286 568 213 517 177 442 c 1
EndSplineSet
PickledDataWithLists: "(dp0
Vcom.fontlab.hintData
p1
(dp2
Vvhints
p3
(lp4
(dp5
Vposition
p6
L26L
sVwidth
p7
L10L
sa(dp8
g6
L81L
sg7
L10L
sa(dp9
g6
L131L
sg7
L10L
sa(dp10
g6
L219L
sg7
L10L
sa(dp11
g6
L465L
sg7
L10L
sa(dp12
g6
L476L
sg7
L10L
sa(dp13
g6
L556L
sg7
L10L
sa(dp14
g6
L563L
sg7
L10L
sa(dp15
g6
L756L
sg7
L10L
sa(dp16
g6
L782L
sg7
L10L
sa(dp17
g6
L844L
sg7
L10L
sa(dp18
g6
L870L
sg7
L10L
sasVhhints
p19
(lp20
(dp21
g6
L-245L
sg7
L10L
sa(dp22
g6
L-16L
sg7
L10L
sa(dp23
g6
L66L
sg7
L10L
sa(dp24
g6
L544L
sg7
L10L
sa(dp25
g6
L606L
sg7
L10L
sass."
Ligature2: "Thai.liga subtable" uni0E26 uni200D uni0E45
Ligature2: "Thai.liga subtable" uni0E26 uni0E45
Colour: ff00ff
EndChar

StartChar: uni0E27
Encoding: 3623 3623 169
GlifName: uni0E_27
Width: 535
VWidth: 0
GlyphClass: 2
Flags: HMW
AnchorPoint: "ThaiAbove.mark" 485 0 basechar 0
LayerCount: 2
Fore
SplineSet
67 458 m 1
 96 539 181 617 306 617 c 0
 415 617 476 558 476 473 c 0
 476 459 474 445 471 430 c 2
 417 176 l 1
 403 108 l 2
 389 41 341 -7 265 -7 c 0
 214 -7 183 23 183 66 c 0
 183 72 184 79 185 86 c 0
 196 140 246 179 304 179 c 0
 325 179 344 174 357 165 c 1
 357 181 359 198 362 213 c 2
 408 430 l 2
 411 443 412 456 412 467 c 0
 412 534 366 568 296 568 c 0
 213 568 154 520 129 452 c 1
 67 458 l 1
297 145 m 0
 262 145 232 120 225 86 c 0
 224 81 224 76 224 72 c 0
 224 45 242 27 272 27 c 0
 307 27 336 52 343 86 c 0
 344 91 344 96 344 100 c 0
 344 127 327 145 297 145 c 0
EndSplineSet
PickledDataWithLists: "(dp0
Vcom.fontlab.hintData
p1
(dp2
Vvhints
p3
(lp4
(dp5
Vposition
p6
L21L
sVwidth
p7
L10L
sa(dp8
g6
L168L
sg7
L10L
sa(dp9
g6
L255L
sg7
L10L
sa(dp10
g6
L411L
sg7
L10L
sa(dp11
g6
L499L
sg7
L10L
sasVhhints
p12
(lp13
(dp14
g6
L-15L
sg7
L10L
sa(dp15
g6
L46L
sg7
L10L
sa(dp16
g6
L136L
sg7
L10L
sa(dp17
g6
L394L
sg7
L10L
sa(dp18
g6
L552L
sg7
L9L
sa(dp19
g6
L614L
sg7
L10L
sass."
EndChar

StartChar: uni0E28
Encoding: 3624 3624 170
GlifName: uni0E_28
Width: 680
VWidth: 0
GlyphClass: 2
Flags: HMW
LayerCount: 2
Fore
SplineSet
351 382 m 0
 316 382 287 357 280 323 c 0
 279 318 279 313 279 309 c 0
 279 282 296 264 326 264 c 0
 361 264 391 289 398 323 c 0
 399 328 399 333 399 337 c 0
 399 364 381 382 351 382 c 0
349 416 m 1
 399 456 454 499 506 535 c 1
 480 557 440 568 391 568 c 0
 281 568 195 512 173 407 c 0
 149 294 148 244 143 198 c 1
 181 278 233 351 282 389 c 0
 301 404 324 414 349 416 c 1
527 512 m 1
 482 482 433 447 390 412 c 1
 421 402 440 376 440 343 c 0
 440 337 439 330 438 323 c 0
 427 269 377 230 319 230 c 0
 273 230 242 255 238 292 c 1
 203 248 166 186 140 110 c 1
 110 0 l 1
 40 0 l 1
 40 0 66 75 76 122 c 0
 99 229 79 251 112 407 c 0
 139 532 253 617 401 617 c 0
 466 617 517 600 553 571 c 1
 597 603 648 635 700 641 c 1
 700 586 l 1
 661 583 621 568 580 543 c 1
 598 518 607 488 607 453 c 0
 607 438 605 423 602 407 c 2
 515 0 l 1
 452 0 l 1
 475 110 l 2
 481 137 527 343 541 407 c 0
 544 421 545 434 545 446 c 0
 545 472 539 494 527 512 c 1
EndSplineSet
PickledDataWithLists: "(dp0
Vcom.fontlab.hintData
p1
(dp2
Vvhints
p3
(lp4
(dp5
Vposition
p6
L59L
sVwidth
p7
L10L
sa(dp8
g6
L142L
sg7
L10L
sa(dp9
g6
L439L
sg7
L10L
sa(dp10
g6
L508L
sg7
L10L
sa(dp11
g6
L590L
sg7
L10L
sa(dp12
g6
L637L
sg7
L10L
sasVhhints
p13
(lp14
(dp15
g6
L-18L
sg7
L10L
sa(dp16
g6
L-4L
sg7
L10L
sa(dp17
g6
L551L
sg7
L10L
sa(dp18
g6
L608L
sg7
L10L
sa(dp19
g6
L654L
sg7
L10L
sass."
EndChar

StartChar: uni0E29
Encoding: 3625 3625 171
GlifName: uni0E_29
Width: 710
VWidth: 0
GlyphClass: 2
Flags: HMW
LayerCount: 2
Fore
SplineSet
157 455 m 0
 192 455 221 480 228 514 c 0
 229 519 229 524 229 528 c 0
 229 555 212 573 182 573 c 0
 147 573 117 548 110 514 c 0
 109 509 109 504 109 500 c 0
 109 473 127 455 157 455 c 0
149 421 m 0
 99 421 68 451 68 494 c 0
 68 501 69 507 70 514 c 0
 81 568 131 607 189 607 c 0
 239 607 270 577 270 534 c 0
 270 527 269 521 268 514 c 0
 258 469 225 434 216 390 c 2
 171 181 l 2
 168 168 167 155 167 144 c 0
 167 71 223 32 312 32 c 0
 415 32 494 84 515 181 c 2
 533 262 l 1
 500 257 464 254 426 254 c 0
 362 254 319 277 319 325 c 0
 319 331 320 338 321 345 c 0
 330 387 369 417 414 417 c 0
 453 417 477 394 477 361 c 0
 477 356 476 351 475 345 c 0
 470 320 455 299 433 286 c 1
 438 286 443 287 448 287 c 0
 480 287 511 290 540 296 c 1
 605 600 l 1
 668 600 l 1
 607 313 l 1
 640 323 670 335 698 348 c 1
 702 311 l 1
 671 297 637 286 599 276 c 1
 578 181 l 2
 553 64 443 -17 301 -17 c 0
 177 -17 103 44 103 138 c 0
 103 152 105 166 108 181 c 2
 147 360 l 2
 152 385 162 406 173 423 c 1
 166 422 157 421 149 421 c 0
408 389 m 0
 382 389 359 371 353 345 c 0
 352 341 352 337 352 334 c 0
 352 314 367 301 389 301 c 0
 415 301 437 319 443 345 c 0
 444 349 444 353 444 356 c 0
 444 376 430 389 408 389 c 0
EndSplineSet
PickledDataWithLists: "(dp0
Vcom.fontlab.hintData
p1
(dp2
Vvhints
p3
(lp4
(dp5
Vposition
p6
L84L
sVwidth
p7
L10L
sa(dp8
g6
L109L
sg7
L10L
sa(dp9
g6
L191L
sg7
L10L
sa(dp10
g6
L312L
sg7
L10L
sa(dp11
g6
L375L
sg7
L10L
sa(dp12
g6
L524L
sg7
L10L
sa(dp13
g6
L529L
sg7
L10L
sa(dp14
g6
L606L
sg7
L10L
sa(dp15
g6
L708L
sg7
L10L
sasVhhints
p16
(lp17
(dp18
g6
L-24L
sg7
L10L
sa(dp19
g6
L34L
sg7
L10L
sa(dp20
g6
L391L
sg7
L10L
sa(dp21
g6
L439L
sg7
L10L
sa(dp22
g6
L561L
sg7
L10L
sa(dp23
g6
L599L
sg7
L10L
sa(dp24
g6
L609L
sg7
L10L
sa(dp25
g6
L629L
sg7
L10L
sass."
EndChar

StartChar: uni0E2A
Encoding: 3626 3626 172
GlifName: uni0E_2A_
Width: 650
VWidth: 0
GlyphClass: 2
Flags: HMW
LayerCount: 2
Fore
SplineSet
47 105 m 2
 69 209 l 2
 84 280 137 352 244 352 c 1
 301 404 397 480 478 537 c 1
 452 558 414 568 366 568 c 0
 261 568 188 509 158 424 c 1
 96 430 l 1
 130 529 230 617 376 617 c 0
 440 617 491 601 526 573 c 1
 570 604 619 635 670 641 c 1
 670 586 l 1
 632 583 593 568 553 544 c 1
 570 520 578 493 578 461 c 0
 578 447 576 432 573 416 c 2
 485 0 l 1
 422 0 l 1
 447 119 l 1
 431 186 364 308 238 308 c 0
 179 308 142 268 131 217 c 0
 126 193 119 175 116 165 c 1
 133 174 153 179 174 179 c 0
 224 179 255 149 255 106 c 0
 255 99 254 93 253 86 c 0
 242 32 193 -7 135 -7 c 0
 74 -7 44 27 44 76 c 0
 44 85 45 95 47 105 c 2
167 145 m 0
 132 145 102 120 95 86 c 0
 94 81 94 76 94 72 c 0
 94 45 112 27 142 27 c 0
 177 27 206 52 213 86 c 0
 214 91 214 96 214 100 c 0
 214 127 197 145 167 145 c 0
285 349 m 1
 380 333 435 258 463 193 c 1
 510 416 l 2
 513 430 515 443 515 455 c 0
 515 478 509 497 499 513 c 1
 426 464 342 399 285 349 c 1
EndSplineSet
PickledDataWithLists: "(dp0
Vcom.fontlab.hintData
p1
(dp2
Vvhints
p3
(lp4
(dp5
Vposition
p6
L54L
sVwidth
p7
L10L
sa(dp8
g6
L94L
sg7
L10L
sa(dp9
g6
L136L
sg7
L10L
sa(dp10
g6
L176L
sg7
L10L
sa(dp11
g6
L504L
sg7
L10L
sa(dp12
g6
L586L
sg7
L10L
sa(dp13
g6
L616L
sg7
L10L
sasVhhints
p14
(lp15
(dp16
g6
L-14L
sg7
L10L
sa(dp17
g6
L-4L
sg7
L10L
sa(dp18
g6
L294L
sg7
L10L
sa(dp19
g6
L370L
sg7
L10L
sa(dp20
g6
L429L
sg7
L10L
sa(dp21
g6
L548L
sg7
L10L
sa(dp22
g6
L606L
sg7
L10L
sa(dp23
g6
L654L
sg7
L10L
sass."
EndChar

StartChar: uni0E2B
Encoding: 3627 3627 173
GlifName: uni0E_2B_
Width: 660
VWidth: 0
GlyphClass: 2
Flags: HMW
LayerCount: 2
Fore
SplineSet
526 455 m 0
 561 455 590 480 597 514 c 0
 598 519 598 524 598 528 c 0
 598 555 581 573 551 573 c 0
 516 573 486 548 479 514 c 0
 478 509 478 504 478 500 c 0
 478 473 496 455 526 455 c 0
162 455 m 0
 197 455 226 480 233 514 c 0
 234 519 234 524 234 528 c 0
 234 555 217 573 187 573 c 0
 152 573 122 548 115 514 c 0
 114 509 114 504 114 500 c 0
 114 473 132 455 162 455 c 0
154 421 m 0
 104 421 73 451 73 494 c 0
 73 501 74 507 75 514 c 0
 86 568 136 607 194 607 c 0
 244 607 275 577 275 534 c 0
 275 527 274 521 273 514 c 0
 263 469 230 434 221 390 c 2
 181 201 l 1
 253 297 360 395 469 434 c 1
 448 447 437 467 437 493 c 0
 437 500 437 507 439 514 c 0
 450 568 500 607 558 607 c 0
 608 607 639 577 639 534 c 0
 639 527 638 521 637 514 c 0
 627 468 590 434 544 424 c 1
 565 411 583 394 583 370 c 0
 583 367 583 364 582 360 c 2
 505 0 l 1
 442 0 l 1
 521 370 l 2
 522 372 522 375 522 377 c 0
 522 388 516 398 509 406 c 1
 379 375 226 232 160 103 c 1
 138 0 l 1
 75 0 l 1
 152 360 l 2
 157 385 167 406 178 423 c 1
 171 422 162 421 154 421 c 0
EndSplineSet
PickledDataWithLists: "(dp0
Vcom.fontlab.hintData
p1
(dp2
Vvhints
p3
(lp4
(dp5
Vposition
p6
L84L
sVwidth
p7
L10L
sa(dp8
g6
L166L
sg7
L10L
sa(dp9
g6
L191L
sg7
L11L
sa(dp10
g6
L320L
sg7
L10L
sa(dp11
g6
L395L
sg7
L10L
sa(dp12
g6
L493L
sg7
L10L
sa(dp13
g6
L525L
sg7
L10L
sa(dp14
g6
L600L
sg7
L10L
sa(dp15
g6
L638L
sg7
L10L
sasVhhints
p16
(lp17
(dp18
g6
L-24L
sg7
L10L
sa(dp19
g6
L-12L
sg7
L10L
sa(dp20
g6
L553L
sg7
L10L
sa(dp21
g6
L589L
sg7
L10L
sa(dp22
g6
L602L
sg7
L10L
sass."
EndChar

StartChar: uni0E2C
Encoding: 3628 3628 174
GlifName: uni0E_2C_
Width: 760
VWidth: 0
GlyphClass: 2
Flags: HMW
AnchorPoint: "ThaiBelow.mark" 660 0 basechar 0
AnchorPoint: "ThaiTone.mark" 660 0 basechar 0
AnchorPoint: "ThaiAbove.mark" 660 0 basechar 0
LayerCount: 2
Fore
SplineSet
547 155 m 2
 605 430 l 2
 607 440 611 449 615 457 c 1
 603 453 590 451 577 451 c 0
 527 451 496 481 496 524 c 0
 496 531 497 537 498 544 c 0
 509 598 558 637 616 637 c 0
 667 637 698 607 698 564 c 0
 698 558 697 551 696 544 c 0
 695 541 695 538 694 535 c 1
 718 555 734 582 748 627 c 1
 788 623 l 1
 765 555 726 520 683 496 c 1
 679 480 674 464 669 440 c 2
 575 0 l 1
 521 0 l 1
 410 402 l 1
 129 0 l 1
 75 0 l 1
 152 360 l 2
 158 387 169 407 180 423 c 1
 172 421 163 421 154 421 c 0
 104 421 73 451 73 494 c 0
 73 501 74 507 75 514 c 0
 86 568 136 607 194 607 c 0
 244 607 275 577 275 534 c 0
 275 527 274 521 273 514 c 0
 263 465 227 432 217 383 c 2
 169 155 l 2
 165 135 158 114 153 98 c 1
 407 465 l 1
 424 465 l 1
 441 465 l 1
 539 100 l 1
 540 115 543 136 547 155 c 2
584 485 m 0
 619 485 649 510 656 544 c 0
 657 549 657 554 657 558 c 0
 657 585 639 603 609 603 c 0
 574 603 545 578 538 544 c 0
 537 539 537 534 537 530 c 0
 537 503 554 485 584 485 c 0
162 455 m 0
 197 455 226 480 233 514 c 0
 234 519 234 524 234 528 c 0
 234 555 217 573 187 573 c 0
 152 573 122 548 115 514 c 0
 114 509 114 504 114 500 c 0
 114 473 132 455 162 455 c 0
EndSplineSet
PickledDataWithLists: "(dp0
Vcom.fontlab.hintData
p1
(dp2
Vvhints
p3
(lp4
(dp5
Vposition
p6
L58L
sVwidth
p7
L10L
sa(dp8
g6
L104L
sg7
L10L
sa(dp9
g6
L185L
sg7
L10L
sa(dp10
g6
L367L
sg7
L10L
sa(dp11
g6
L430L
sg7
L10L
sa(dp12
g6
L587L
sg7
L10L
sa(dp13
g6
L661L
sg7
L10L
sa(dp14
g6
L760L
sg7
L10L
sasVhhints
p15
(lp16
(dp17
g6
L-18L
sg7
L10L
sa(dp18
g6
L-13L
sg7
L10L
sa(dp19
g6
L329L
sg7
L10L
sa(dp20
g6
L391L
sg7
L10L
sa(dp21
g6
L439L
sg7
L10L
sa(dp22
g6
L561L
sg7
L10L
sa(dp23
g6
L604L
sg7
L10L
sa(dp24
g6
L609L
sg7
L10L
sa(dp25
g6
L629L
sg7
L10L
sass."
EndChar

StartChar: uni0E2D
Encoding: 3629 3629 175
GlifName: uni0E_2D_
Width: 635
VWidth: 0
GlyphClass: 2
Flags: HMW
LayerCount: 2
Fore
SplineSet
96 430 m 1
 130 529 230 617 376 617 c 0
 502 617 578 556 578 460 c 0
 578 446 576 431 573 416 c 2
 522 175 l 2
 498 61 392 -17 256 -17 c 0
 137 -17 67 42 67 133 c 0
 67 146 69 160 72 175 c 2
 92 267 l 2
 103 321 153 360 211 360 c 0
 261 360 292 330 292 287 c 0
 292 280 291 274 290 267 c 0
 279 213 229 174 171 174 c 0
 157 174 143 177 132 181 c 1
 133 179 132 177 132 175 c 0
 129 163 128 151 128 140 c 0
 128 69 184 32 267 32 c 0
 363 32 439 81 459 175 c 2
 510 416 l 2
 513 430 514 442 514 454 c 0
 514 529 458 568 366 568 c 0
 261 568 188 509 158 424 c 1
 96 430 l 1
203 326 m 0
 168 326 139 301 132 267 c 0
 131 262 131 257 131 253 c 0
 131 226 148 208 178 208 c 0
 213 208 243 233 250 267 c 0
 251 272 251 277 251 281 c 0
 251 308 233 326 203 326 c 0
EndSplineSet
PickledDataWithLists: "(dp0
Vcom.fontlab.hintData
p1
(dp2
Vvhints
p3
(lp4
(dp5
Vposition
p6
L50L
sVwidth
p7
L10L
sa(dp8
g6
L61L
sg7
L10L
sa(dp9
g6
L149L
sg7
L10L
sa(dp10
g6
L289L
sg7
L10L
sa(dp11
g6
L481L
sg7
L10L
sa(dp12
g6
L569L
sg7
L10L
sasVhhints
p13
(lp14
(dp15
g6
L-19L
sg7
L10L
sa(dp16
g6
L43L
sg7
L10L
sa(dp17
g6
L215L
sg7
L10L
sa(dp18
g6
L230L
sg7
L10L
sa(dp19
g6
L292L
sg7
L10L
sa(dp20
g6
L414L
sg7
L10L
sa(dp21
g6
L549L
sg7
L9L
sa(dp22
g6
L611L
sg7
L10L
sass."
EndChar

StartChar: uni0E2E
Encoding: 3630 3630 176
GlifName: uni0E_2E_
Width: 640
VWidth: 0
GlyphClass: 2
Flags: HMW
LayerCount: 2
Fore
SplineSet
198 326 m 0
 163 326 134 301 127 267 c 0
 126 262 126 257 126 253 c 0
 126 226 143 208 173 208 c 0
 208 208 238 233 245 267 c 0
 246 272 246 277 246 281 c 0
 246 308 228 326 198 326 c 0
206 360 m 0
 256 360 287 330 287 287 c 0
 287 280 286 274 285 267 c 0
 274 213 224 174 166 174 c 0
 152 174 138 177 127 181 c 1
 128 179 127 177 127 175 c 0
 124 163 123 151 123 140 c 0
 123 69 179 32 262 32 c 0
 358 32 434 81 454 175 c 2
 481 300 l 2
 495 364 504 389 511 423 c 0
 514 436 515 448 515 459 c 1
 475 431 415 403 315 403 c 0
 189 403 115 442 115 488 c 0
 115 491 115 495 116 498 c 0
 128 553 215 617 360 617 c 0
 465 617 524 576 548 533 c 1
 572 557 593 588 602 621 c 1
 661 615 l 1
 649 569 610 527 567 498 c 1
 571 487 574 472 574 456 c 0
 574 445 572 434 570 423 c 2
 517 175 l 2
 493 61 387 -17 251 -17 c 0
 132 -17 62 42 62 133 c 0
 62 146 64 160 67 175 c 2
 87 267 l 2
 98 321 148 360 206 360 c 0
175 498 m 1
 175 496 174 495 174 493 c 0
 174 468 215 439 322 439 c 0
 418 439 475 467 509 495 c 1
 491 547 436 577 352 577 c 0
 247 577 184 537 176 498 c 1
 175 498 l 1
EndSplineSet
PickledDataWithLists: "(dp0
Vcom.fontlab.hintData
p1
(dp2
Vvhints
p3
(lp4
(dp5
Vposition
p6
L54L
sVwidth
p7
L10L
sa(dp8
g6
L64L
sg7
L10L
sa(dp9
g6
L136L
sg7
L10L
sa(dp10
g6
L146L
sg7
L10L
sa(dp11
g6
L286L
sg7
L10L
sa(dp12
g6
L484L
sg7
L10L
sa(dp13
g6
L566L
sg7
L10L
sa(dp14
g6
L616L
sg7
L10L
sasVhhints
p15
(lp16
(dp17
g6
L-18L
sg7
L10L
sa(dp18
g6
L40L
sg7
L10L
sa(dp19
g6
L216L
sg7
L10L
sa(dp20
g6
L233L
sg7
L10L
sa(dp21
g6
L289L
sg7
L10L
sa(dp22
g6
L363L
sg7
L10L
sa(dp23
g6
L420L
sg7
L10L
sa(dp24
g6
L552L
sg7
L10L
sa(dp25
g6
L610L
sg7
L10L
sa(dp26
g6
L654L
sg7
L10L
sass."
EndChar

StartChar: uni0E2F
Encoding: 3631 3631 177
GlifName: uni0E_2F_
Width: 495
VWidth: 0
GlyphClass: 2
Flags: HMW
LayerCount: 2
Fore
SplineSet
216 573 m 0
 181 573 151 548 144 514 c 0
 143 509 143 504 143 500 c 0
 143 473 161 455 191 455 c 0
 226 455 255 480 262 514 c 0
 263 519 263 524 263 528 c 0
 263 555 246 573 216 573 c 0
223 607 m 0
 273 607 304 577 304 534 c 0
 304 527 303 521 302 514 c 0
 296 486 280 462 257 445 c 1
 342 461 396 525 419 596 c 1
 451 600 l 1
 457 589 459 575 459 560 c 0
 459 539 455 515 448 483 c 2
 374 138 l 2
 350 26 223 -2 102 -17 c 1
 103 29 l 1
 218 44 294 60 311 138 c 2
 375 436 l 2
 380 459 387 473 394 488 c 1
 352 443 290 410 211 410 c 0
 134 410 101 444 101 490 c 0
 101 498 102 506 104 514 c 0
 115 568 165 607 223 607 c 0
EndSplineSet
PickledDataWithLists: "(dp0
Vcom.fontlab.hintData
p1
(dp2
Vvhints
p3
(lp4
(dp5
Vposition
p6
L31L
sVwidth
p7
L10L
sa(dp8
g6
L119L
sg7
L10L
sa(dp9
g6
L153L
sg7
L10L
sa(dp10
g6
L356L
sg7
L10L
sa(dp11
g6
L356L
sg7
L10L
sa(dp12
g6
L434L
sg7
L10L
sa(dp13
g6
L439L
sg7
L10L
sasVhhints
p14
(lp15
(dp16
g6
L-16L
sg7
L10L
sa(dp17
g6
L394L
sg7
L10L
sa(dp18
g6
L456L
sg7
L10L
sa(dp19
g6
L589L
sg7
L10L
sa(dp20
g6
L596L
sg7
L10L
sass."
EndChar

StartChar: uni0E30
Encoding: 3632 3632 178
GlifName: uni0E_30
Width: 540
VWidth: 0
GlyphClass: 2
Flags: HMW
LayerCount: 2
Fore
SplineSet
224 519 m 0
 189 519 160 494 153 460 c 0
 152 455 152 450 152 446 c 0
 152 419 169 401 199 401 c 0
 234 401 264 426 271 460 c 0
 272 465 272 470 272 474 c 0
 272 501 254 519 224 519 c 0
232 553 m 0
 282 553 313 523 313 480 c 0
 313 473 312 467 311 460 c 0
 305 431 287 406 263 389 c 1
 312 389 l 2
 389 389 440 446 464 534 c 1
 517 527 l 1
 491 428 418 352 305 352 c 2
 230 352 l 2
 148 352 110 388 110 437 c 0
 110 444 111 452 113 460 c 0
 124 514 174 553 232 553 c 0
161 219 m 0
 126 219 96 194 89 160 c 0
 88 155 88 150 88 146 c 0
 88 119 105 101 135 101 c 0
 170 101 200 126 207 160 c 0
 208 165 208 170 208 174 c 0
 208 201 191 219 161 219 c 0
168 253 m 0
 218 253 249 223 249 180 c 0
 249 173 248 167 247 160 c 0
 241 131 223 106 199 89 c 1
 248 89 l 2
 325 89 376 146 400 234 c 1
 453 227 l 1
 427 128 354 52 241 52 c 2
 166 52 l 2
 84 52 46 88 46 137 c 0
 46 144 47 152 49 160 c 0
 60 214 110 253 168 253 c 0
EndSplineSet
PickledDataWithLists: "(dp0
Vcom.fontlab.hintData
p1
(dp2
Vvhints
p3
(lp4
(dp5
Vposition
p6
L51L
sVwidth
p7
L10L
sa(dp8
g6
L60L
sg7
L10L
sa(dp9
g6
L139L
sg7
L10L
sa(dp10
g6
L144L
sg7
L10L
sa(dp11
g6
L154L
sg7
L10L
sa(dp12
g6
L450L
sg7
L10L
sasVhhints
p13
(lp14
(dp15
g6
L60L
sg7
L10L
sa(dp16
g6
L122L
sg7
L10L
sa(dp17
g6
L228L
sg7
L10L
sa(dp18
g6
L360L
sg7
L10L
sa(dp19
g6
L421L
sg7
L10L
sa(dp20
g6
L536L
sg7
L10L
sass."
EndChar

StartChar: uni0E31
Encoding: 3633 3633 179
GlifName: uni0E_31
Width: 0
VWidth: 0
GlyphClass: 4
Flags: HMW
AnchorPoint: "ThaiExtendedAbove.mkmk" -60 0 basemark 0
AnchorPoint: "ThaiAbove.mark" -60 0 mark 0
LayerCount: 2
Fore
SplineSet
-148 855 m 0
 -175 855 -197 836 -203 810 c 0
 -204 806 -204 802 -204 799 c 0
 -204 779 -190 765 -167 765 c 0
 -140 765 -119 784 -113 810 c 0
 -112 814 -112 817 -112 821 c 0
 -112 841 -125 855 -148 855 c 0
-142 885 m 0
 -101 885 -76 862 -76 827 c 0
 -76 822 -77 816 -78 810 c 0
 -84 780 -105 756 -132 744 c 1
 -123 744 -113 744 -104 744 c 2
 -74 744 l 2
 -6 744 55 779 75 872 c 1
 124 867 l 1
 103 768 22 710 -74 710 c 2
 -124 710 l 2
 -198 710 -241 738 -241 788 c 0
 -241 795 -240 802 -238 810 c 0
 -229 854 -189 885 -142 885 c 0
EndSplineSet
PickledDataWithLists: "(dp0
Vcom.fontlab.hintData
p1
(dp2
Vvhints
p3
(lp4
(dp5
Vposition
p6
L-391L
sVwidth
p7
L10L
sa(dp8
g6
L-313L
sg7
L10L
sa(dp9
g6
L-306L
sg7
L10L
sa(dp10
g6
L55L
sg7
L10L
sasVhhints
p11
(lp12
(dp13
g6
L717L
sg7
L10L
sa(dp14
g6
L772L
sg7
L10L
sa(dp15
g6
L882L
sg7
L10L
sa(dp16
g6
L952L
sg7
L10L
sass."
Substitution2: "Thai.sl subtable" uni0E31.sl
EndChar

StartChar: uni0E32
Encoding: 3634 3634 180
GlifName: uni0E_32
Width: 485
VWidth: 0
GlyphClass: 2
Flags: HMW
LayerCount: 2
Fore
SplineSet
71 475 m 1
 96 547 170 617 281 617 c 0
 377 617 430 563 430 488 c 0
 430 476 429 463 426 450 c 2
 330 0 l 1
 267 0 l 1
 363 450 l 2
 366 462 367 473 367 483 c 0
 367 540 328 568 271 568 c 0
 204 568 155 529 133 469 c 1
 71 475 l 1
EndSplineSet
PickledDataWithLists: "(dp0
Vcom.fontlab.hintData
p1
(dp2
Vvhints
p3
(lp4
(dp5
Vposition
p6
L15L
sVwidth
p7
L10L
sa(dp8
g6
L291L
sg7
L10L
sa(dp9
g6
L312L
sg7
L10L
sa(dp10
g6
L379L
sg7
L10L
sa(dp11
g6
L400L
sg7
L10L
sasVhhints
p12
(lp13
(dp14
g6
L-25L
sg7
L10L
sa(dp15
g6
L399L
sg7
L10L
sa(dp16
g6
L545L
sg7
L10L
sa(dp17
g6
L606L
sg7
L10L
sass."
EndChar

StartChar: uni0E33
Encoding: 3635 3635 181
GlifName: uni0E_33
Width: 485
VWidth: 0
GlyphClass: 2
Flags: HMW
LayerCount: 2
Fore
SplineSet
-54 873 m 128
 -4 873 27 843 27 800 c 0
 27 793 26 787 25 780 c 128
 14 726 -36 687 -94 687 c 128
 -144 687 -175 717 -175 760 c 0
 -175 767 -174 773 -173 780 c 128
 -162 834 -112 873 -54 873 c 128
-62 839 m 128
 -97 839 -126 814 -133 780 c 128
 -134 775 -134 770 -134 766 c 0
 -134 739 -117 721 -87 721 c 128
 -52 721 -22 746 -15 780 c 128
 -14 785 -14 790 -14 794 c 0
 -14 821 -32 839 -62 839 c 128
71 475 m 1
 96 547 170 617 281 617 c 0
 377 617 430 563 430 488 c 0
 430 476 429 463 426 450 c 2
 330 0 l 1
 267 0 l 1
 363 450 l 2
 366 462 367 473 367 483 c 0
 367 540 328 568 271 568 c 128
 204 568 155 529 133 469 c 1
 71 475 l 1
EndSplineSet
PickledDataWithLists: "(dp0
Vcom.fontlab.hintData
p1
(dp2
Vvhints
p3
(lp4
(dp5
Vposition
p6
L-282L
sVwidth
p7
L10L
sa(dp8
g6
L-218L
sg7
L10L
sa(dp9
g6
L-122L
sg7
L10L
sa(dp10
g6
L-58L
sg7
L10L
sa(dp11
g6
L15L
sg7
L10L
sa(dp12
g6
L291L
sg7
L10L
sa(dp13
g6
L312L
sg7
L10L
sa(dp14
g6
L379L
sg7
L10L
sa(dp15
g6
L400L
sg7
L10L
sasVhhints
p16
(lp17
(dp18
g6
L-25L
sg7
L10L
sa(dp19
g6
L399L
sg7
L10L
sa(dp20
g6
L545L
sg7
L10L
sa(dp21
g6
L606L
sg7
L10L
sa(dp22
g6
L703L
sg7
L10L
sa(dp23
g6
L747L
sg7
L10L
sa(dp24
g6
L863L
sg7
L10L
sa(dp25
g6
L907L
sg7
L10L
sass."
MultipleSubs2: "ThaiDecomp subtable" uni0E4D uni200D uni0E32
Colour: ff00ff
EndChar

StartChar: uni0E34
Encoding: 3636 3636 182
GlifName: uni0E_34
Width: 0
VWidth: 0
GlyphClass: 4
Flags: HMW
AnchorPoint: "ThaiExtendedAbove.mkmk" -60 0 basemark 0
AnchorPoint: "ThaiAbove.mark" -60 0 mark 0
LayerCount: 2
Fore
SplineSet
-354 764 m 1
 -74 719 l 1
 -90 767 -129 844 -236 844 c 0
 -289 844 -334 816 -354 764 c 1
-31 699 m 1
 -41 685 l 1
 -412 742 l 1
 -396 816 -331 880 -230 880 c 0
 -73 880 -40 739 -31 699 c 1
EndSplineSet
PickledDataWithLists: "(dp0
Vcom.fontlab.hintData
p1
(dp2
Vvhints
p3
(lp4
(dp5
Vposition
p6
L-534L
sVwidth
p7
L10L
sa(dp8
g6
L-456L
sg7
L10L
sasVhhints
p9
(lp10
(dp11
g6
L682L
sg7
L10L
sa(dp12
g6
L871L
sg7
L9L
sa(dp13
g6
L919L
sg7
L10L
sass."
Substitution2: "Thai.sl subtable" uni0E34.sl
EndChar

StartChar: uni0E35
Encoding: 3637 3637 183
GlifName: uni0E_35
Width: 0
VWidth: 0
GlyphClass: 4
Flags: HMW
AnchorPoint: "ThaiExtendedAbove.mkmk" -60 0 basemark 0
AnchorPoint: "ThaiAbove.mark" -60 0 mark 0
LayerCount: 2
Fore
SplineSet
-49 798 m 2
 -31 885 l 1
 16 877 l 1
 -23 691 l 1
 -33 680 l 1
 -413 737 l 1
 -397 811 -333 875 -235 875 c 0
 -126 875 -76 799 -53 743 c 1
 -53 760 -53 780 -49 798 c 2
-355 759 m 1
 -64 712 l 1
 -81 760 -126 839 -238 839 c 0
 -291 839 -336 811 -355 759 c 1
EndSplineSet
PickledDataWithLists: "(dp0
Vcom.fontlab.hintData
p1
(dp2
Vvhints
p3
(lp4
(dp5
Vposition
p6
L-530L
sVwidth
p7
L10L
sa(dp8
g6
L-460L
sg7
L10L
sa(dp9
g6
L-189L
sg7
L10L
sa(dp10
g6
L-175L
sg7
L10L
sa(dp11
g6
L-116L
sg7
L10L
sasVhhints
p12
(lp13
(dp14
g6
L691L
sg7
L10L
sa(dp15
g6
L861L
sg7
L10L
sa(dp16
g6
L909L
sg7
L10L
sa(dp17
g6
L929L
sg7
L10L
sass."
Substitution2: "Thai.sl subtable" uni0E35.sl
EndChar

StartChar: uni0E36
Encoding: 3638 3638 184
GlifName: uni0E_36
Width: 0
VWidth: 0
GlyphClass: 4
Flags: HMW
AnchorPoint: "ThaiExtendedAbove.mkmk" -60 0 basemark 0
AnchorPoint: "ThaiAbove.mark" -60 0 mark 0
LayerCount: 2
Fore
SplineSet
-70 844 m 0
 -105 844 -134 819 -141 785 c 0
 -142 780 -142 775 -142 771 c 0
 -142 744 -125 726 -95 726 c 0
 -60 726 -30 751 -23 785 c 0
 -22 790 -22 795 -22 799 c 0
 -22 826 -40 844 -70 844 c 0
-62 878 m 0
 -12 878 19 848 19 805 c 0
 19 798 18 792 17 785 c 0
 6 731 -44 692 -102 692 c 0
 -119 692 -134 695 -146 701 c 1
 -413 737 l 1
 -397 811 -333 875 -235 875 c 0
 -196 875 -168 862 -149 844 c 1
 -127 865 -95 878 -62 878 c 0
-169 818 m 1
 -185 831 -207 839 -238 839 c 0
 -291 839 -336 811 -355 759 c 1
 -176 733 l 1
 -181 743 -183 753 -183 765 c 0
 -183 771 -182 778 -181 785 c 0
 -178 797 -175 808 -169 818 c 1
EndSplineSet
PickledDataWithLists: "(dp0
Vcom.fontlab.hintData
p1
(dp2
Vvhints
p3
(lp4
(dp5
Vposition
p6
L-544L
sVwidth
p7
L10L
sa(dp8
g6
L-466L
sg7
L10L
sa(dp9
g6
L-208L
sg7
L10L
sa(dp10
g6
L-134L
sg7
L10L
sa(dp11
g6
L-84L
sg7
L10L
sasVhhints
p12
(lp13
(dp14
g6
L689L
sg7
L10L
sa(dp15
g6
L723L
sg7
L10L
sa(dp16
g6
L824L
sg7
L21L
sa(dp17
g6
L861L
sg7
L10L
sa(dp18
g6
L892L
sg7
L10L
sa(dp19
g6
L909L
sg7
L10L
sass."
Substitution2: "Thai.sl subtable" uni0E36.sl
EndChar

StartChar: uni0E37
Encoding: 3639 3639 185
GlifName: uni0E_37
Width: 0
VWidth: 0
GlyphClass: 4
Flags: HMW
AnchorPoint: "ThaiExtendedAbove.mkmk" -60 0 basemark 0
AnchorPoint: "ThaiAbove.mark" -60 0 mark 0
LayerCount: 2
Fore
SplineSet
-140 848 m 2
 -127 910 l 1
 -86 901 l 1
 -125 722 l 1
 -53 710 l 1
 -54 715 -54 720 -54 726 c 0
 -54 735 -53 746 -51 758 c 2
 -24 885 l 1
 16 876 l 1
 -23 691 l 1
 -34 680 l 1
 -413 737 l 1
 -397 811 -335 875 -244 875 c 0
 -188 875 -159 850 -143 820 c 1
 -143 829 -142 839 -140 848 c 2
-142 724 m 1
 -147 774 -164 839 -247 839 c 0
 -294 839 -336 811 -355 759 c 1
 -142 724 l 1
EndSplineSet
PickledDataWithLists: "(dp0
Vcom.fontlab.hintData
p1
(dp2
Vvhints
p3
(lp4
(dp5
Vposition
p6
L-554L
sVwidth
p7
L10L
sa(dp8
g6
L-476L
sg7
L10L
sa(dp9
g6
L-280L
sg7
L10L
sa(dp10
g6
L-218L
sg7
L10L
sa(dp11
g6
L-159L
sg7
L10L
sa(dp12
g6
L-148L
sg7
L10L
sa(dp13
g6
L-100L
sg7
L10L
sasVhhints
p14
(lp15
(dp16
g6
L698L
sg7
L10L
sa(dp17
g6
L861L
sg7
L10L
sa(dp18
g6
L909L
sg7
L10L
sa(dp19
g6
L922L
sg7
L10L
sa(dp20
g6
L932L
sg7
L10L
sass."
Substitution2: "Thai.sl subtable" uni0E37.sl
EndChar

StartChar: uni0E38
Encoding: 3640 3640 186
GlifName: uni0E_38
Width: 0
VWidth: 0
GlyphClass: 4
Flags: HMW
AnchorPoint: "ThaiExtendedBelow.mkmk" -60 0 mark 0
AnchorPoint: "ThaiExtendedBelow.mkmk" -120 -280 basemark 0
AnchorPoint: "ThaiBelow.mark" -60 0 mark 0
LayerCount: 2
Fore
SplineSet
-262 -105 m 0
 -289 -105 -311 -124 -317 -150 c 0
 -318 -154 -318 -158 -318 -161 c 0
 -318 -181 -304 -195 -281 -195 c 0
 -254 -195 -233 -176 -227 -150 c 0
 -226 -146 -226 -143 -226 -139 c 0
 -226 -119 -239 -105 -262 -105 c 0
-280 -305 m 1
 -267 -245 l 2
 -265 -235 -260 -227 -256 -220 c 1
 -266 -223 -277 -225 -288 -225 c 0
 -329 -225 -354 -202 -354 -167 c 0
 -354 -162 -353 -156 -352 -150 c 0
 -343 -106 -303 -75 -256 -75 c 0
 -215 -75 -190 -98 -190 -133 c 0
 -190 -138 -191 -144 -192 -150 c 0
 -201 -191 -212 -203 -218 -233 c 2
 -233 -305 l 1
 -280 -305 l 1
EndSplineSet
PickledDataWithLists: "(dp0
Vcom.fontlab.hintData
p1
(dp2
Vvhints
p3
(lp4
(dp5
Vposition
p6
L-285L
sVwidth
p7
L10L
sa(dp8
g6
L-185L
sg7
L10L
sa(dp9
g6
L-104L
sg7
L10L
sasVhhints
p10
(lp11
(dp12
g6
L-322L
sg7
L10L
sa(dp13
g6
L-172L
sg7
L10L
sa(dp14
g6
L-98L
sg7
L10L
sass."
Substitution2: "ThaiBV.sd subtable" uni0E38.sd
EndChar

StartChar: uni0E39
Encoding: 3641 3641 187
GlifName: uni0E_39
Width: 0
VWidth: 0
GlyphClass: 4
Flags: HMW
AnchorPoint: "ThaiExtendedBelow.mkmk" -60 0 mark 0
AnchorPoint: "ThaiExtendedBelow.mkmk" -120 -280 basemark 0
AnchorPoint: "ThaiBelow.mark" -90 0 mark 0
LayerCount: 2
Fore
SplineSet
-422 -105 m 0
 -449 -105 -471 -124 -477 -150 c 0
 -478 -154 -478 -158 -478 -161 c 0
 -478 -181 -464 -195 -441 -195 c 0
 -414 -195 -393 -176 -387 -150 c 0
 -386 -146 -386 -143 -386 -139 c 0
 -386 -119 -399 -105 -422 -105 c 0
-428 -251 m 2
 -423 -228 l 2
 -423 -226 -421 -224 -421 -222 c 1
 -429 -224 -439 -225 -448 -225 c 0
 -489 -225 -514 -202 -514 -167 c 0
 -514 -162 -513 -156 -512 -150 c 0
 -503 -106 -463 -75 -416 -75 c 0
 -375 -75 -350 -98 -350 -133 c 0
 -350 -138 -351 -144 -352 -150 c 0
 -360 -188 -373 -199 -378 -223 c 2
 -383 -245 l 2
 -383 -247 -384 -249 -384 -251 c 0
 -384 -267 -368 -278 -331 -278 c 0
 -289 -278 -269 -265 -265 -245 c 2
 -230 -81 l 1
 -184 -81 l 1
 -220 -248 l 2
 -229 -290 -279 -310 -338 -310 c 0
 -391 -310 -429 -296 -429 -262 c 0
 -429 -258 -429 -255 -428 -251 c 2
EndSplineSet
PickledDataWithLists: "(dp0
Vcom.fontlab.hintData
p1
(dp2
Vvhints
p3
(lp4
(dp5
Vposition
p6
L-401L
sVwidth
p7
L10L
sa(dp8
g6
L-115L
sg7
L10L
sasVhhints
p9
(lp10
(dp11
g6
L-331L
sg7
L10L
sa(dp12
g6
L-267L
sg7
L21L
sa(dp13
g6
L-154L
sg7
L10L
sa(dp14
g6
L-106L
sg7
L10L
sass."
Substitution2: "ThaiBV.sd subtable" uni0E39.sd
EndChar

StartChar: uni0E3A
Encoding: 3642 3642 188
GlifName: uni0E_3A_
Width: 0
VWidth: 0
GlyphClass: 4
Flags: HMW
AnchorPoint: "ThaiExtendedBelow.mkmk" -60 0 mark 0
AnchorPoint: "ThaiExtendedBelow.mkmk" -105 -210 basemark 0
AnchorPoint: "ThaiBelow.mark" -60 0 mark 0
LayerCount: 2
Fore
SplineSet
-229 -89 m 0
 -197 -89 -175 -107 -175 -136 c 0
 -175 -140 -176 -145 -177 -150 c 0
 -185 -187 -218 -211 -255 -211 c 0
 -287 -211 -309 -193 -309 -164 c 0
 -309 -160 -308 -155 -307 -150 c 0
 -299 -113 -266 -89 -229 -89 c 0
EndSplineSet
PickledDataWithLists: "(dp0
Vcom.fontlab.hintData
p1
(dp2
Vvhints
p3
(lp4
(dp5
Vposition
p6
L-229L
sVwidth
p7
L10L
sa(dp8
g6
L-81L
sg7
L10L
sasVhhints
p9
(lp10
(dp11
g6
L-231L
sg7
L10L
sa(dp12
g6
L-110L
sg7
L10L
sass."
Substitution2: "ThaiBV.sd subtable" uni0E3A.sd
EndChar

